<?xml version="1.0" encoding="utf-8"?>
<!-- Generator: Adobe Illustrator 17.0.0, SVG Export Plug-In . SVG Version: 6.00 Build 0)  -->
<!DOCTYPE svg PUBLIC "-//W3C//DTD SVG 1.1//EN" "http://www.w3.org/Graphics/SVG/1.1/DTD/svg11.dtd">
<svg version="1.1" id="Layer_1" xmlns="http://www.w3.org/2000/svg" xmlns:xlink="http://www.w3.org/1999/xlink" x="0px" y="0px"
	 width="473px" height="400px" viewBox="0 0 473 400" enable-background="new 0 0 473 400" xml:space="preserve">
<rect x="278.214" y="346.081" fill="#173259" width="0" height="0"/>
<path opacity="0.6" fill="#CCE0F4" d="M216.613,90.744c-15.387-55.818-84.725-73.799-124.463-32.083
	c-0.571,0.599-1.141,1.208-1.711,1.827c-56.969,61.928-30.057,214.538,88.837,253.218c118.894,38.68,242.56-31.953,249.507-95.094
	c6.947-63.141-47.905-82.981-133.028-65.325C247.663,163.261,226.192,125.492,216.613,90.744z"/>
<path fill="#CCE0F4" d="M336.57,103.596c-15.907,2.59-20.316,16.683-8.034,26.681c4.06,3.305,9.857,6.05,18.117,7.42
	c31.463,5.22,48.159-8.701,35.547-26.749C374.416,99.809,352.334,101.029,336.57,103.596z"/>
<path fill="#CCE0F4" d="M47.428,197.787c-9.889-12.726-24.373-9.849-27.271,5.721c-0.958,5.146-0.592,11.551,2.159,19.458
	c10.48,30.122,30.695,38.116,40.503,18.403C68.872,229.201,57.229,210.399,47.428,197.787z"/>
<path opacity="0.6" fill="#CCE0F4" d="M264.153,75.446l1.653-8.426l-7.895-1.549c-0.005-2.075-0.359-4.155-1.045-6.167l6.505-4.37
	l-4.789-7.128l-6.226,4.183c-1.853-1.882-4.032-3.33-6.391-4.3l1.551-7.896l-8.426-1.653l-1.597,8.138
	c-1.729,0.096-3.45,0.425-5.127,0.998l-4.37-6.506l-7.128,4.789l4.183,6.226c-1.882,1.853-3.33,4.032-4.3,6.391l-6.902-1.356
	l-1.655,8.426l7.145,1.402c0.123,2.205,0.616,4.404,1.517,6.502l-6.227,4.183l4.789,7.128l6.506-4.37
	c1.867,1.627,3.999,2.848,6.277,3.647l-1.561,7.943l8.426,1.653l1.691-8.611c1.852-0.204,3.688-0.68,5.454-1.439l4.183,6.228
	l7.128-4.789l-4.37-6.505c1.163-1.335,2.119-2.805,2.863-4.37L264.153,75.446z M242.99,72.071c-3.603,2.42-8.502,1.459-10.922-2.144
	c-2.42-3.603-1.459-8.502,2.144-10.922c3.603-2.42,8.502-1.459,10.922,2.144S246.593,69.651,242.99,72.071z"/>
<path opacity="0.6" fill="#CCE0F4" d="M216.533,36.714l0.903-4.605l-4.314-0.847c-0.003-1.134-0.196-2.271-0.571-3.371l3.555-2.388
	l-2.617-3.895l-3.402,2.286c-1.013-1.029-2.204-1.82-3.493-2.35l0.848-4.315l-4.605-0.903l-0.873,4.447
	c-0.945,0.053-1.885,0.233-2.802,0.546l-2.388-3.556l-3.895,2.617l2.286,3.403c-1.029,1.013-1.82,2.204-2.35,3.493l-3.772-0.741
	l-0.904,4.605l3.905,0.766c0.067,1.205,0.337,2.407,0.829,3.553l-3.403,2.286l2.617,3.895l3.556-2.388
	c1.02,0.889,2.185,1.556,3.43,1.993l-0.853,4.341l4.605,0.903l0.924-4.706c1.012-0.112,2.016-0.371,2.981-0.786l2.286,3.403
	l3.895-2.617l-2.388-3.555c0.636-0.73,1.158-1.533,1.564-2.388L216.533,36.714z M204.968,34.87
	c-1.969,1.323-4.646,0.797-5.969-1.172c-1.323-1.969-0.797-4.646,1.172-5.969c1.969-1.323,4.646-0.797,5.969,1.172
	C207.462,30.87,206.937,33.547,204.968,34.87z"/>
<path opacity="0.6" fill="#CCE0F4" d="M448.098,60.24l0.903-4.605l-4.314-0.847c-0.003-1.134-0.196-2.271-0.571-3.37l3.555-2.388
	l-2.617-3.895l-3.402,2.286c-1.013-1.029-2.204-1.82-3.493-2.35l0.848-4.315l-4.605-0.903l-0.873,4.447
	c-0.945,0.053-1.885,0.233-2.802,0.546l-2.388-3.556l-3.895,2.617l2.286,3.403c-1.028,1.013-1.82,2.203-2.35,3.493l-3.772-0.741
	l-0.904,4.605l3.905,0.766c0.067,1.205,0.337,2.407,0.829,3.553l-3.403,2.286l2.617,3.895l3.556-2.388
	c1.02,0.889,2.185,1.556,3.43,1.993l-0.853,4.341l4.605,0.903l0.924-4.706c1.012-0.112,2.016-0.371,2.981-0.786l2.286,3.403
	l3.895-2.617l-2.388-3.555c0.636-0.73,1.158-1.533,1.565-2.388L448.098,60.24z M436.533,58.396
	c-1.969,1.323-4.646,0.797-5.969-1.172c-1.323-1.969-0.797-4.646,1.172-5.969c1.969-1.323,4.646-0.797,5.969,1.172
	C439.027,54.396,438.502,57.074,436.533,58.396z"/>
<path opacity="0.6" fill="#CCE0F4" d="M54.425,117.462l0.903-4.605l-4.314-0.847c-0.003-1.134-0.196-2.271-0.571-3.371l3.555-2.388
	l-2.617-3.896l-3.402,2.286c-1.013-1.029-2.204-1.82-3.493-2.35l0.847-4.315l-4.605-0.903l-0.873,4.447
	c-0.945,0.053-1.885,0.233-2.802,0.546l-2.388-3.556l-3.895,2.617l2.286,3.403c-1.029,1.013-1.82,2.203-2.35,3.493l-3.772-0.741
	l-0.904,4.605l3.905,0.766c0.067,1.205,0.337,2.407,0.829,3.553l-3.403,2.286l2.617,3.895l3.556-2.388
	c1.02,0.889,2.185,1.556,3.43,1.993l-0.853,4.341l4.605,0.903l0.924-4.706c1.012-0.112,2.016-0.371,2.981-0.786l2.286,3.403
	l3.895-2.617l-2.388-3.555c0.636-0.73,1.158-1.533,1.564-2.388L54.425,117.462z M42.86,115.617
	c-1.969,1.322-4.646,0.797-5.969-1.172c-1.323-1.969-0.797-4.646,1.172-5.969c1.969-1.323,4.646-0.797,5.969,1.172
	C45.354,111.617,44.829,114.295,42.86,115.617z"/>
<path fill="#CCE0F4" d="M234.68,346.451c-76.285,0-131.891-4.993-170.193-7.165c-3.835-0.217-23.807,2.172-35.148-12.38
	c0.002-0.001,0.004-0.001,0.006-0.002c15.91-8.027,101.783-14.16,205.335-14.16c114.862,0,207.977,7.545,207.977,16.852
	C442.657,338.906,349.542,346.451,234.68,346.451z"/>
<g>
	<g>
		<path fill="#3C74AB" d="M92.153,297.603c-9.158-9.231-29.163-30.867-41.766-55.43c-18.086-35.252-36.222-32.101-39.781-19.64
			c-9.203,32.229,45.006,67.256,67.484,80.194L92.153,297.603z"/>
		<g>
			<path fill="#01538A" d="M87.203,299.406C71.42,287.57,58.077,273.568,49.01,263.002c-12.125-14.128-19.428-25.328-19.502-25.442
				c-0.261-0.402-0.8-0.517-1.203-0.254c-0.404,0.26-0.519,0.799-0.256,1.202c0.071,0.113,7.427,11.391,19.62,25.605
				c8.956,10.441,22.064,24.216,37.585,36.003L87.203,299.406z"/>
		</g>
	</g>
	<g>
		<path fill="#01538A" d="M89.885,285.197c-4.242-8.465-12.285-26.2-15.267-44.272c-4.456-27.002-17.049-28.757-22.019-21.312
			c-13.651,20.447,19.063,58.059,29.498,69.193L89.885,285.197z"/>
		<g>
			<path fill="#173259" d="M86.92,286.57c-7.967-11.18-13.844-23.312-17.604-32.237c-4.993-11.851-7.433-20.758-7.457-20.849
				c-0.087-0.319-0.417-0.509-0.737-0.421c-0.321,0.086-0.51,0.416-0.422,0.736c0.023,0.089,2.481,9.059,7.5,20.981
				c3.764,8.941,9.643,21.08,17.611,32.303L86.92,286.57z"/>
		</g>
	</g>
	<g>
		<path fill="#3C74AB" d="M390.068,160.551c8.44-9.892,26.766-32.967,37.491-58.407c15.391-36.509,33.713-34.727,38.195-22.568
			c11.595,31.448-39.835,70.442-61.279,85.029L390.068,160.551z"/>
		<g>
			<path fill="#01538A" d="M395.14,161.978c14.851-12.986,27.106-27.95,35.355-39.167c11.031-14.998,17.474-26.714,17.539-26.833
				c0.23-0.42,0.759-0.575,1.18-0.343c0.422,0.229,0.577,0.758,0.345,1.179c-0.062,0.118-6.552,11.916-17.645,27.004
				c-8.148,11.083-20.186,25.803-34.779,38.72L395.14,161.978z"/>
		</g>
	</g>
	<g>
		<path fill="#01538A" d="M391.399,148.01c3.595-8.76,10.285-27.048,11.903-45.292c2.418-27.26,14.844-29.955,20.358-22.904
			c15.146,19.365-14.655,59.326-24.225,71.211L391.399,148.01z"/>
		<g>
			<g>
				<g>
					<path fill="#173259" d="M394.458,149.157c7.106-11.746,12.057-24.285,15.136-33.467c4.09-12.192,5.855-21.257,5.872-21.349
						c0.063-0.325,0.378-0.538,0.704-0.475c0.326,0.061,0.54,0.377,0.476,0.703c-0.016,0.091-1.794,9.22-5.906,21.484
						c-3.083,9.198-8.034,21.744-15.139,33.533L394.458,149.157z"/>
				</g>
			</g>
		</g>
	</g>
	<path fill="#01538A" d="M133.715,57.193c1.574-14.739,0.348-28.984-6.986-25.471c-7.342,3.517-4.769,27.991,5.214,44.134
		l2.083,6.303c-7.07-11.892-21.176-21.966-26.965-18.201c-5.753,3.742,4.245,9.596,14.27,13.419
		c7.631,2.91,11.959,6.564,13.969,8.635l9.836,29.772c-11.249-18.799-33.531-34.678-42.692-28.72
		c-9.129,5.938,6.736,15.226,22.642,21.292c12.02,4.584,18.88,10.335,22.1,13.632l1.961,5.936c1.083-0.179,2.164-0.364,3.244-0.555
		l-11.702-35.42c0.786-3.041,2.346-7.204,5.436-12.045c5.773-9.043,10.317-19.701,3.467-19.279
		c-5.945,0.366-10.726,12.683-11.027,24.893l-4.047-12.249C133.91,69.267,133.035,63.555,133.715,57.193z"/>
	<path fill="#3C74AB" d="M439.469,232.144c3.979-14.279,10.377-27.065,15.897-21.092c5.525,5.979-5.902,27.774-21.14,39.091
		l-4.263,5.089c10.961-8.441,27.79-12.596,31.78-6.959c3.965,5.602-7.488,7.35-18.216,7.202c-8.166-0.112-13.538,1.686-16.17,2.867
		l-20.133,24.037c17.395-13.318,43.965-19.848,50.279-10.929c6.292,8.888-11.882,11.663-28.903,11.428
		c-12.863-0.177-21.362,2.634-25.571,4.509l-4.014,4.793c-0.94-0.566-1.877-1.137-2.81-1.714l23.953-28.597
		c0.392-3.116,0.48-7.561-0.605-13.201c-2.027-10.535-2.314-22.118,3.896-19.196c5.39,2.535,5.285,15.747,1.058,27.206l8.284-9.89
		C434.83,243.293,437.752,238.307,439.469,232.144z"/>
	<g>
		<g>
			<g>
				<path fill="#01538A" d="M105.8,209.796h16.459c-8.894-1.47-30.944-10.937-32.911-29.919
					c-2.49-24.043-11.052-23.743-25.478-26.258S45.47,155.21,36.31,136.544c-9.16-18.666-29.596-21.019-29.596-21.019
					s18.626,20.323,15.062,35.769c-3.565,15.445,8.787,21.614,18.678,23.555c9.891,1.941,7.52,15.234,11.279,23.772
					c1.715,3.896,8.736,7.935,15.864,11.175H105.8z"/>
			</g>
		</g>
		<g>
			<g>
				<g>
					<path fill="#173259" d="M70.147,186.128c0.719,7.2,4.859,15.764,11.075,22.905c0.219,0.251,0.446,0.506,0.678,0.762h1.873
						c-0.536-0.564-1.043-1.121-1.516-1.664c-5.947-6.831-10.065-15.316-10.748-22.141c-1.085-10.866-9.482-18.271-27.228-24.009
						c-10.301-3.329-13.554-15.904-13.584-16.032c-0.092-0.366-0.464-0.591-0.831-0.499c-0.369,0.092-0.593,0.464-0.501,0.83
						c0.136,0.547,3.46,13.44,14.493,17.007C61.014,168.834,69.123,175.879,70.147,186.128z"/>
				</g>
			</g>
		</g>
	</g>
	<g>
		<g>
			<g>
				<path fill="#3C74AB" d="M97.333,209.796h34.602c0.01-0.035,0.02-0.07,0.029-0.104c0.972-3.456,1.522-7.014,1.644-10.603
					c0.412-12.111,0.617-42.523-7.211-50.312c-9.84-9.791-29.563-13.618-26.961-28.389c2.602-14.771,0.654-35.222-22.697-38.545
					c-23.351-3.323-41.59-40.064-41.59-40.064S27.47,71.41,48.478,94.122s13.18,26.031,8.945,47.405s-9.237,33.099,22.807,49.432
					C88.921,195.39,94.221,202.209,97.333,209.796z"/>
			</g>
		</g>
		<g>
			<g>
				<path fill="#01538A" d="M79.524,118.813c-1.539,27.709,4.246,43.332,18.749,50.657c9.109,4.604,18.682,14.864,24.981,26.778
					c1.988,3.762,4.012,8.332,5.583,13.549h2.13c-1.638-5.605-3.791-10.502-5.907-14.503c-6.586-12.454-16.256-22.788-25.867-27.642
					c-13.681-6.911-19.118-21.94-17.629-48.726c0.957-17.227-15.161-28.746-15.848-29.228c-0.459-0.324-1.097-0.212-1.421,0.251
					c-0.324,0.459-0.212,1.097,0.248,1.421C64.704,91.479,80.419,102.73,79.524,118.813z"/>
			</g>
		</g>
	</g>
	<g>
		<g>
			<g>
				<path fill="#01538A" d="M299.158,154.941h16.856l17.09-11.133c4.203-6.605,7.882-13.822,7.192-18.022
					c-1.511-9.206-10.753-19.049-3.525-26.075c7.228-7.026,14.211-18.936,2.793-29.932c-11.417-10.996-6.904-38.191-6.904-38.191
					s-15.84,13.126-13.326,33.766c2.514,20.64-3.057,19.37-13.772,29.351c-10.715,9.981-18.053,14.403-7.016,35.908
					C302.671,138.649,301.86,147.354,299.158,154.941z"/>
			</g>
		</g>
		<g>
			<g>
				<g>
					<path fill="#173259" d="M318.048,125.369c3.328,6.425,4.533,15.86,3.223,25.237c-0.046,0.33-0.097,0.667-0.152,1.009
						l-1.569,1.022c0.141-0.765,0.262-1.509,0.362-2.221c1.254-8.97,0.073-18.327-3.079-24.418
						c-5.022-9.697-2.029-20.485,9.709-34.979c6.814-8.412,2.676-20.724,2.631-20.848c-0.123-0.357,0.067-0.749,0.424-0.871
						c0.359-0.125,0.75,0.065,0.873,0.422c0.185,0.533,4.437,13.149-2.861,22.16C316.26,105.894,313.311,116.222,318.048,125.369z"
						/>
				</g>
			</g>
		</g>
	</g>
	<g>
		<g>
			<path fill="#3C74AB" d="M362.631,154.941c1.976-1.642,4.205-3.125,6.719-4.407c32.044-16.333,27.043-28.059,22.807-49.432
				c-4.235-21.374-12.063-24.693,8.945-47.405c21.008-22.712,13.329-52.343,13.329-52.343s-18.239,36.741-41.59,40.064
				c-23.351,3.323-25.3,23.774-22.697,38.545c2.602,14.771-17.121,18.598-26.961,28.389c-7.117,7.082-7.593,32.863-7.312,46.589
				H362.631z"/>
		</g>
		<g>
			<g>
				<path fill="#01538A" d="M326.802,154.941c6.299-11.536,15.622-21.407,24.505-25.897c14.503-7.325,20.288-22.948,18.749-50.657
					c-0.895-16.083,14.82-27.334,14.982-27.444c0.459-0.324,0.572-0.961,0.248-1.421c-0.325-0.463-0.962-0.575-1.421-0.251
					c-0.687,0.482-16.805,12-15.848,29.228c1.489,26.786-3.948,41.815-17.629,48.726c-9.611,4.854-19.282,15.188-25.867,27.642
					c-0.013,0.024-0.026,0.049-0.038,0.074H326.802z"/>
			</g>
		</g>
	</g>
</g>
<path fill="#173259" d="M404.402,114.376v180.91c0,7.458-6.046,13.504-13.504,13.504H82.586c-7.458,0-13.504-6.046-13.504-13.504
	v-180.91c0-7.458,6.046-13.504,13.504-13.504h308.312C398.356,100.872,404.402,106.918,404.402,114.376z"/>
<path fill="#FFFFFF" d="M389.507,123.573v162.515c0,4.783-3.875,8.66-8.657,8.66H92.637c-2.02,0-3.877-0.693-5.352-1.853
	c-0.39-0.307-0.755-0.65-1.088-1.02c-1.382-1.53-2.22-3.563-2.22-5.787V123.573c0-4.783,3.88-8.66,8.66-8.66H380.85
	c1.6,0,3.095,0.433,4.38,1.19c1.207,0.71,2.23,1.705,2.97,2.893C389.03,120.323,389.507,121.893,389.507,123.573z"/>
<g>
	<g>
		<path fill="#E7525C" d="M188.846,236.728h-11.81v15.238h-29.08v-15.238H101.86V217.68l37.716-54.604h30.731l-33.525,50.414h12.064
			v-13.588h28.191v13.588h11.81V236.728z"/>
	</g>
	<g>
		<path fill="#E7525C" d="M193.034,207.521c0-29.461,16.763-46.478,40.255-46.478c23.493,0,40.255,17.016,40.255,46.478
			c0,29.461-16.762,46.478-40.255,46.478C209.797,253.999,193.034,236.982,193.034,207.521z M243.448,207.521
			c0-17.143-4.317-22.477-10.159-22.477c-5.841,0-10.159,5.334-10.159,22.477s4.318,22.477,10.159,22.477
			C239.131,229.998,243.448,224.665,243.448,207.521z"/>
	</g>
	<g>
		<path fill="#E7525C" d="M367.001,236.728h-11.81v15.238h-29.08v-15.238h-46.097V217.68l37.715-54.604h30.731l-33.525,50.414
			h12.064v-13.588h28.191v13.588h11.81V236.728z"/>
	</g>
</g>
<path fill="#173259" d="M435.725,301.56v1.156c0,5.755-1.846,11.077-4.979,15.405c-4.778,6.61-12.555,10.911-21.336,10.911H64.075
	c-8.781,0-16.558-4.3-21.336-10.911c-3.134-4.328-4.979-9.65-4.979-15.405v-1.156H435.725z"/>
<path fill="#173259" d="M192.139,301.56v0.264c0,2.084,1.395,3.773,3.117,3.773h81.243c1.721,0,3.116-1.689,3.116-3.773v-0.264
	H192.139z"/>
<g>
	<path opacity="0.2" fill="#173259" d="M389.506,123.573v9.588H83.978v-9.588c0-1.845,0.575-3.552,1.562-4.955
		c1.562-2.24,4.159-3.705,7.098-3.705H380.85c2.94,0,5.537,1.465,7.095,3.705C388.931,120.02,389.506,121.727,389.506,123.573z"/>
	<path fill="#FFFFFF" d="M315.699,126.928H153.659c-0.415,0-0.755-0.34-0.755-0.755v-3.339c0-0.415,0.339-0.754,0.754-0.754h162.041
		c0.415,0,0.754,0.34,0.754,0.755v3.339C316.454,126.589,316.114,126.928,315.699,126.928z"/>
	<path fill="#173259" d="M113.85,124.504v1.797c0,0.515-0.558,0.838-1.004,0.58l-1.556-0.898l-1.556-0.898
		c-0.446-0.258-0.446-0.902,0-1.16l1.556-0.898l1.556-0.898c0.446-0.258,1.004,0.064,1.004,0.58V124.504z"/>
	<path fill="#173259" d="M121.947,124.504v1.797c0,0.515,0.558,0.838,1.004,0.58l1.556-0.898l1.556-0.898
		c0.446-0.258,0.446-0.902,0-1.16l-1.556-0.898l-1.556-0.898c-0.446-0.258-1.004,0.064-1.004,0.58V124.504z"/>
</g>
<path opacity="0.2" fill="#173259" d="M387.945,118.618H85.54c1.562-2.24,4.159-3.705,7.098-3.705H380.85
	C383.79,114.913,386.387,116.378,387.945,118.618z"/>
<path opacity="0.1" fill="#173259" d="M326.961,280.867H142.397c-3.609,0-6.534-2.925-6.534-6.534l0,0
	c0-3.609,2.925-6.534,6.534-6.534h184.564c3.609,0,6.534,2.925,6.534,6.534v0C333.495,277.942,330.57,280.867,326.961,280.867z"/>
<g>
	<path fill="#FAC0AE" d="M352.125,249.691c-1.425,2.723-2.805,5.072-4.138,7.092c-9.908,15-17.275,11.785-21.24,7.158
		c-1.405-1.64-2.415-3.36-3.138-4.952c-1.18-2.608-1.595-4.868-1.73-5.853l1.84,0.428c2.18,1.003,5.792,2.38,8.472,1.962
		c0.343-0.055,0.67-0.137,0.975-0.252c2.403-0.913,5.673-5.635,7.885-9.23c1.45-2.355,2.448-4.227,2.448-4.227L352.125,249.691z"/>
	<path fill="#F79F85" d="M352.125,249.691c-1.425,2.723-2.805,5.072-4.138,7.092c-2.815-3.085-5.362-7.63-6.935-10.74
		c1.45-2.355,2.448-4.227,2.448-4.227L352.125,249.691z"/>
	<path fill="#F79F85" d="M334.332,256.023c0,0-1.999,6.126-10.723,2.965c-1.18-2.608-1.595-4.868-1.73-5.853l1.84,0.428
		c2.18,1.003,5.792,2.38,8.472,1.962L334.332,256.023z"/>
</g>
<g>
	<path fill="#FAC0AE" d="M415.625,271.651c-2,11.54-11.383,3.068-12.193-5.945c-0.182-2.025-0.232-4.095-0.202-6.09
		c0.03-1.86,0.127-3.655,0.255-5.283c0.025-0.315,0.05-0.622,0.078-0.923c0.348-3.923,0.84-6.675,0.84-6.675l6.135-7.545
		c0,0,0.715,2.115,1.63,5.37c0.843,3.008,1.855,6.988,2.623,11.173c0.232,1.265,0.442,2.548,0.617,3.828
		C416.007,263.888,416.225,268.191,415.625,271.651z"/>
	<path fill="#F79F85" d="M412.167,244.561c-1.82,3.348-4.817,7.785-8.682,9.773c0.025-0.315,0.05-0.622,0.078-0.923
		c0.348-3.923,0.84-6.675,0.84-6.675l6.135-7.545C410.537,239.191,411.252,241.306,412.167,244.561z"/>
	<path fill="#F79F85" d="M415.407,259.561c-2.22,1.345-9.495,0.712-12.177,0.055c0.035-2.22,0.167-4.345,0.332-6.205l11.228,2.322
		C415.022,256.998,415.232,258.281,415.407,259.561z"/>
</g>
<path fill="#B26060" d="M350.865,220.973c0,0-8.879,15.68-10.34,20.988c0,0,6.066,10.139,11.571,11.262l2.04-6.915
	C354.136,246.309,354.352,224.671,350.865,220.973z"/>
<path fill="#F37B78" d="M370.369,212.918l-19.504,8.055l8.629,66.839c0,0,26.847,3.771,40.729,0v-66.839l-18.962-8.478
	L370.369,212.918z"/>
<g>
	<g>
		<path fill="#E7525C" d="M366.388,249.344c3.272,3.41,7.868,6.619,14.267,8.464c0.247,0.071,0.5-0.098,0.531-0.353
			c0-0.003,0.001-0.006,0.001-0.008c0.025-0.203-0.104-0.393-0.301-0.45c-6.237-1.798-10.711-4.925-13.897-8.246
			c-0.238-0.248-0.655-0.113-0.71,0.226c0,0.004-0.001,0.007-0.002,0.011C366.257,249.117,366.297,249.249,366.388,249.344z"/>
	</g>
	<g>
		<path fill="#E7525C" d="M366.55,242.984v0.018c0,0.068,0.017,0.134,0.051,0.193c0.216,0.374,0.462,0.765,0.745,1.167
			c1.545,2.2,4.464,5.114,9.603,6.503c0.033,0.009,0.067,0.013,0.1,0.013c0.169,0,0.324-0.113,0.37-0.284
			c0.055-0.203-0.065-0.414-0.27-0.47c-5.531-1.496-8.429-4.834-9.879-7.336C367.07,242.446,366.548,242.589,366.55,242.984z"/>
	</g>
	<g>
		<g>
			<path fill="#E7525C" d="M367.249,225.601c0,0.003,0,0.005,0.001,0.008c0.015,0.229,0.228,0.397,0.453,0.353
				c4.65-0.906,8.308-2.978,10.745-4.753c3.356-2.448,5.135-4.813,5.21-4.913c0.127-0.169,0.092-0.41-0.079-0.537
				c-0.169-0.127-0.41-0.09-0.537,0.078c-0.061,0.083-5.672,7.455-15.485,9.368C367.369,225.243,367.237,225.41,367.249,225.601z"/>
		</g>
	</g>
</g>
<path fill="#FAC0AE" d="M337.29,330.344l2.092-10.762h-7.147l-1.746,10.161C330.488,329.743,333.352,331.608,337.29,330.344z"/>
<path fill="#E54560" d="M332.394,330.234c0,0-1.588-2.083-2.829-1.979c-1.241,0.104-10.735,7.831-14.011,8.498
	c-3.275,0.667-2.61,3.076-1.995,4.305c0.616,1.228,26.18-0.765,26.18-0.765s0.615-7.623-0.247-9.943
	C338.631,328.03,334.967,330.756,332.394,330.234z"/>
<g>
	<g>
		<g>
			<g>
				<path fill="#FFFFFF" d="M327.159,335.611c0.117,0.033,0.246,0.021,0.359-0.045c0.219-0.128,0.293-0.41,0.165-0.629
					c-0.043-0.073-1.065-1.803-2.422-2.467c-1.805-0.886-3.194,0.145-3.252,0.189c-0.202,0.153-0.241,0.442-0.088,0.644
					c0.153,0.202,0.442,0.241,0.644,0.087c0.038-0.028,1.005-0.723,2.291-0.095c1.106,0.542,2.024,2.091,2.033,2.106
					C326.951,335.507,327.049,335.579,327.159,335.611z"/>
			</g>
		</g>
	</g>
	<g>
		<g>
			<g>
				<path fill="#FFFFFF" d="M328.515,334.3c0.116,0.033,0.246,0.021,0.359-0.045c0.219-0.128,0.293-0.41,0.165-0.629
					c-0.043-0.073-1.065-1.803-2.422-2.468c-1.807-0.887-3.194,0.144-3.252,0.189c-0.202,0.153-0.241,0.442-0.087,0.644
					c0.153,0.202,0.442,0.242,0.644,0.087c0.038-0.028,1.005-0.723,2.291-0.095c1.11,0.544,2.024,2.09,2.033,2.106
					C328.307,334.197,328.405,334.269,328.515,334.3z"/>
			</g>
		</g>
	</g>
	<g>
		<path fill="#FFFFFF" d="M325.313,336.683c0.117,0.034,0.246,0.021,0.359-0.045c0.219-0.128,0.293-0.41,0.165-0.629
			c-0.043-0.073-1.065-1.803-2.422-2.468c-1.807-0.887-3.194,0.144-3.252,0.189c-0.202,0.153-0.241,0.442-0.087,0.644
			c0.153,0.202,0.442,0.241,0.645,0.087c0.038-0.028,1.005-0.723,2.291-0.095c1.111,0.544,2.024,2.09,2.033,2.106
			C325.105,336.579,325.203,336.651,325.313,336.683z"/>
	</g>
</g>
<g>
	<g>
		<path fill="#414042" d="M369.722,281.109c0,0-12.233-30.374-19.836-29.175c-11.772,1.855-19.646,38.01-18.682,71.736l8.077,0.461
			c0,0,9.041-31.771,10.662-40.098c0,0,6.232,21.624,20.265,18.614C380.598,300.418,373.826,289.784,369.722,281.109z"/>
	</g>
</g>
<g>
	<path fill="#58595B" d="M338.324,322.739l-0.995-0.18c0.021-0.118,2.173-11.943,4.777-23.89
		c5.313-24.372,7.309-25.513,7.966-25.888c0.546-0.312,0.996-0.232,1.279-0.109c1.332,0.58,2,3.424,3.012,7.729
		c1.634,6.958,3.873,16.488,10.052,20.478l-0.548,0.849c-6.522-4.212-8.814-13.971-10.488-21.096
		c-0.804-3.423-1.564-6.656-2.431-7.034c-0.05-0.022-0.153-0.067-0.374,0.06C347.839,275.222,341.75,303.867,338.324,322.739z"/>
</g>
<polygon fill="#58595B" points="330.403,321.196 340.306,322.025 340.496,322.041 339.953,325.322 330.221,324.638 "/>
<path fill="#414042" d="M366.592,302.799c0,0,14.222,2.732,33.079-0.662c-1.553-7.793-5.078-13.91-10.826-19.346l-25.431,1.837
	C361.812,290.63,362.975,296.689,366.592,302.799z"/>
<path fill="#E54560" d="M362.535,327.937c0,0-3.369-0.74-4.288-0.681c-0.92,0.059-6.779,7.23-8.837,7.728
	c-3.733,0.905-3.475,6.784-1.171,6.974c6.665,0.549,17.878-2.756,17.878-2.756s0.708-7.591,0.149-9.938
	C365.706,326.917,364.418,328.55,362.535,327.937z"/>
<path fill="#FAC0AE" d="M364.515,328.449l2.478-9.669h-7.142l-1.603,9.329C358.248,328.108,360.58,329.712,364.515,328.449z"/>
<g>
	<g>
		<g>
			<g>
				<path fill="#FFFFFF" d="M357.334,334.621c0.119,0.021,0.247-0.005,0.352-0.083c0.204-0.151,0.247-0.438,0.097-0.643
					c-0.05-0.068-1.251-1.678-2.67-2.193c-1.888-0.688-3.158,0.484-3.211,0.534c-0.184,0.174-0.193,0.465-0.018,0.65
					c0.174,0.185,0.465,0.193,0.65,0.018c0.035-0.032,0.921-0.826,2.266-0.338c1.156,0.42,2.234,1.862,2.244,1.876
					C357.117,334.541,357.222,334.602,357.334,334.621z"/>
			</g>
		</g>
	</g>
	<g>
		<path fill="#FFFFFF" d="M358.542,333.175c0.119,0.021,0.247-0.005,0.352-0.083c0.204-0.151,0.247-0.438,0.097-0.643
			c-0.05-0.068-1.25-1.678-2.67-2.194c-1.89-0.689-3.158,0.483-3.211,0.534c-0.184,0.174-0.193,0.465-0.018,0.65
			c0.174,0.185,0.465,0.193,0.649,0.018c0.035-0.032,0.922-0.826,2.266-0.338c1.161,0.422,2.233,1.862,2.244,1.876
			C358.324,333.094,358.429,333.155,358.542,333.175z"/>
	</g>
	<g>
		<path fill="#FFFFFF" d="M355.615,335.884c0.119,0.021,0.247-0.005,0.352-0.083c0.204-0.151,0.248-0.439,0.097-0.643
			c-0.05-0.068-1.25-1.678-2.67-2.194c-1.89-0.689-3.158,0.484-3.211,0.534c-0.184,0.174-0.193,0.465-0.018,0.65
			c0.174,0.184,0.465,0.193,0.65,0.018c0.035-0.032,0.922-0.826,2.266-0.338c1.161,0.422,2.234,1.861,2.244,1.876
			C355.397,335.803,355.502,335.864,355.615,335.884z"/>
	</g>
</g>
<path fill="#414042" d="M397.934,302.645c-1.806,0.388-3.481,0.367-5.032,0.037c-0.509-0.108-1.004-0.249-1.483-0.421
	c-9.467-3.36-13.75-18.229-13.75-18.229c-1.621,8.328-10.997,40.078-10.997,40.078l-1.462-0.192l-1.008-0.135l-5.534-0.728
	c-1.089-32.65,7.172-69.267,18.94-71.12c7.603-1.2,19.837,29.175,19.837,29.175C401.55,289.784,408.32,300.417,397.934,302.645z"/>
<g>
	<path fill="#58595B" d="M392.902,302.682c-0.509-0.108-1.004-0.249-1.483-0.421c-3.464-5.577-5.271-13.379-6.727-19.661
		c-1.156-4.998-2.248-9.716-3.684-10.525c-0.219-0.121-0.435-0.142-0.684-0.057c-1.22,0.398-4.095,4.442-9.622,27.025
		c-2.635,10.764-4.819,21.492-5.493,24.875c-0.138,0.688-0.216,1.075-0.219,1.095L364,324.82c0.003-0.02,0.074-0.384,0.202-1.038
		c0.664-3.323,2.858-14.131,5.517-24.98c6.491-26.503,9.349-27.44,10.289-27.75c0.526-0.168,1.028-0.121,1.496,0.142
		c1.823,1.028,2.811,5.284,4.172,11.175C387.203,288.952,389.121,297.236,392.902,302.682z"/>
</g>
<polygon fill="#58595B" points="358.01,320.752 367.785,322.538 367.973,322.572 367.114,325.784 357.495,324.161 "/>
<path fill="#B26060" d="M400.223,220.973l12.648,18.321c0,0-5.617,10.589-11.122,11.698c0,0-5.73-10.012-6.404-15.124
	C394.673,230.756,398.247,221.413,400.223,220.973z"/>
<g>
	<path fill="#173259" d="M363.954,192.625c0,7.11,4.377,12.009,11.487,12.009c7.11,0,12.064-5.268,12.064-12.378
		c0-7.11-4.21-12.496-11.32-12.496C367.659,179.761,363.954,185.515,363.954,192.625z"/>
	<path fill="#173259" d="M364.375,188.702c0,0-5.299-5.24-3.318-7.712c1.98-2.471,4.564-0.112,5.351-2.471
		c0.786-2.359,1.095-5.392,4.311-4.157c3.216,1.236,3.364,3.258,6.435,1.46c3.071-1.797,2.397,1.236,5.093,2.584
		c2.696,1.348,4.579,1.123,4.143,3.707c-0.436,2.584,2.587,3.118,1.349,5.974c-1.237,2.855-2.684,1.415-2.684,1.415L364.375,188.702
		z"/>
	<g>
		<path fill="#F79F85" d="M365.552,195.686c0,0-1.975-2.634-3.444-0.456c-1.469,2.178,0.608,8.61,4.204,7.04L365.552,195.686z"/>
		<g>
			<path fill="#F37873" d="M365.526,200.283c-0.133,0-0.255-0.088-0.293-0.222c-0.557-1.986-2.615-2.791-2.635-2.799
				c-0.157-0.06-0.235-0.235-0.176-0.392c0.059-0.157,0.235-0.236,0.391-0.177c0.096,0.036,2.363,0.916,3.005,3.203
				c0.045,0.162-0.049,0.329-0.211,0.375C365.581,200.279,365.554,200.283,365.526,200.283z"/>
		</g>
		<g>
			<g>
				<g>
					<path fill="#F37873" d="M363.45,199.282c-0.056,0-0.113-0.016-0.164-0.049c-0.141-0.091-0.182-0.279-0.091-0.42
						c0.015-0.023,0.379-0.579,1.141-0.919c0.152-0.069,0.333,0,0.401,0.153c0.069,0.153,0,0.333-0.153,0.401
						c-0.589,0.264-0.875,0.69-0.878,0.694C363.647,199.233,363.549,199.282,363.45,199.282z"/>
				</g>
			</g>
		</g>
	</g>
	<g>
		<path fill="#F79F85" d="M385.908,195.686c0,0,1.975-2.634,3.444-0.456c1.469,2.178-0.608,8.61-4.204,7.04L385.908,195.686z"/>
		<g>
			<path fill="#F37873" d="M385.934,200.283c0.133,0,0.255-0.088,0.293-0.222c0.557-1.986,2.615-2.791,2.635-2.799
				c0.156-0.06,0.235-0.235,0.176-0.392c-0.059-0.157-0.235-0.236-0.391-0.177c-0.096,0.036-2.363,0.916-3.005,3.203
				c-0.045,0.162,0.049,0.329,0.211,0.375C385.879,200.279,385.907,200.283,385.934,200.283z"/>
		</g>
		<g>
			<g>
				<g>
					<path fill="#F37873" d="M388.011,199.282c0.056,0,0.113-0.016,0.164-0.049c0.141-0.091,0.182-0.279,0.091-0.42
						c-0.015-0.023-0.379-0.579-1.141-0.919c-0.152-0.069-0.333,0-0.401,0.153c-0.069,0.153,0,0.333,0.153,0.401
						c0.589,0.264,0.875,0.69,0.878,0.694C387.813,199.233,387.911,199.282,388.011,199.282z"/>
				</g>
			</g>
		</g>
	</g>
	<path fill="#FAC0AE" d="M380.592,207.726v6.397c0,0-1.908,3.258-4.487,3.48c-2.577,0.225-4.868-2.805-4.868-2.805v-6.622
		L380.592,207.726z"/>
	<path fill="#F79F85" d="M380.592,207.726v2.838c-1.731,1.921-4.805,2.401-9.355,1.729v-4.118L380.592,207.726z"/>
	<path fill="#FAC0AE" d="M364.495,195.483c0.097,1.355,0.257,2.786,0.519,4.211c0.857,4.715,2.789,9.352,6.953,10.841
		c9.425,3.366,12.794-4.718,14.14-9.431c0.148-0.522,0.281-1.105,0.398-1.727c0.214-1.123,0.38-2.376,0.51-3.638
		c0.154-1.531,0.257-3.079,0.32-4.441c0.139-2.868-1.579-5.5-4.263-6.533c-3.864-1.485-9.736-2.66-15.3,0.495
		c-2.056,1.162-3.345,3.321-3.39,5.682C364.359,192.225,364.377,193.792,364.495,195.483z"/>
	<path fill="#173259" d="M364.495,195.483c0.097,1.355,0.257,2.786,0.519,4.211c0.857,4.715,2.789,9.352,6.953,10.841
		c9.425,3.366,12.794-4.718,14.14-9.431c0.148-0.522,0.281-1.105,0.398-1.727c0.214-1.123,0.38-2.376,0.51-3.638h-1.377
		c-0.287,0.878-1.82,6.225-2.319,6.986c-1.072-2.569-6.512-0.863-6.512-0.863l-0.027,0.009c-0.329,0.103-0.67,0.157-1.011,0.157
		c-0.353,0-0.703-0.057-1.042-0.166c0,0-5.377-1.781-6.491,0.67c-0.492-0.764-2.258-6.213-2.575-6.792L364.495,195.483z
		 M375.756,203.024c6.152-0.83,5.183,2.481,5.183,2.481c-0.682,0.625-1.307,1.078-1.724,1.313c-1.343,0.749-2.666,1.033-3.625,0.987
		c-0.942-0.042-1.202,0.154-3.59-1.138c-0.423-0.227-0.848-0.562-1.265-0.96c0,0,0,0-0.003,0v-0.003
		C370.629,205.059,369.588,201.964,375.756,203.024z"/>
	<ellipse fill="#173259" cx="370.902" cy="196.521" rx="0.786" ry="1.236"/>
	<ellipse fill="#173259" cx="380.167" cy="196.496" rx="0.786" ry="1.236"/>
	<path fill="#173259" d="M367.517,193.497c0,0,2.58-1.957,5.083-1.617l0.124,1.304c0,0-3.355,0.639-4.819,1.77
		C367.623,194.517,367.466,194.04,367.517,193.497z"/>
	<path fill="#173259" d="M383.593,193.497c0,0-2.58-1.957-5.083-1.617l-0.124,1.304c0,0,3.355,0.639,4.819,1.77
		C383.487,194.517,383.644,194.04,383.593,193.497z"/>
	<g>
		<path fill="#F79F85" d="M375.836,201.306c0.513,0,1.021-0.199,1.1-0.232c0.155-0.064,0.23-0.241,0.166-0.396
			c-0.063-0.155-0.241-0.23-0.396-0.167c-0.274,0.111-0.933,0.286-1.219,0.115c-0.055-0.033-0.13-0.098-0.149-0.283
			c-0.11-1.061,0.181-4.618,0.184-4.654c0.014-0.167-0.111-0.314-0.278-0.328c-0.168-0.014-0.314,0.111-0.328,0.278
			c-0.012,0.148-0.298,3.65-0.183,4.767c0.043,0.42,0.264,0.635,0.442,0.742C375.369,201.265,375.603,201.306,375.836,201.306z"/>
	</g>
	<path fill="#FFFFFF" d="M375.425,203.533c-2.272,0-2.41,3.42-0.142,3.542c0.085,0.005,0.171,0.007,0.259,0.007
		c0.087,0,0.172-0.002,0.256-0.006c2.277-0.11,2.15-3.542-0.13-3.542H375.425z"/>
	<path fill="#173259" d="M387.015,195.74h-1.377c0.152-1.382,0.37-3.818-0.765-4.167c-3.589-1.102,1.062-3.638-0.558-4.902
		c-1.62-1.267-5.652-0.724-8.455-0.815c-2.821-0.091-7.355-0.051-8.455,0.204c-1.103,0.252-0.498,2.084-0.094,3.503
		c0.407,1.416-1.352,2.985-1.647,4.452c-0.085,0.421-0.067,1.047,0,1.725h-1.148c-0.136-1.786-0.157-3.449-0.132-4.798
		c0.046-2.361,1.334-4.519,3.388-5.683c5.564-3.154,11.435-1.978,15.301-0.492c2.683,1.03,4.4,3.665,4.264,6.531
		C387.272,192.66,387.171,194.209,387.015,195.74z"/>
</g>
<path fill="#01538A" d="M449.807,302.088c-1.707,6.665-6.485,11.72-13.813,14.62c-1.938,0.767-3.81,1.288-5.418,1.637
	c0.058-0.075,0.113-0.15,0.168-0.225c1.14-1.573,2.107-3.275,2.878-5.083c4.835-1.755,10.328-5.215,12.07-12.005
	c1.673-6.527-1.025-16.292-6.877-24.875c-4.638-6.803-15.165-18.55-33.575-20.825c-16.073-1.988-26.515,0.455-35.725,2.61
	c-7.83,1.83-15.225,3.557-24.275,1.975c-6.645-1.165-11.747-2.852-16.247-4.342c-8.28-2.74-13.75-4.548-22.438-0.99
	c-14.65,6.003-21.182,30.883-21.247,31.133l-4.117-1.053c0.285-1.107,7.122-27.197,23.755-34.012
	c10.14-4.155,16.867-1.93,25.382,0.887c4.363,1.445,9.308,3.08,15.645,4.19c8.198,1.435,14.86-0.122,22.573-1.927
	c9.557-2.235,20.392-4.768,37.215-2.688c7.857,0.97,15.18,3.667,21.77,8.015c5.735,3.787,10.852,8.845,14.795,14.633
	C448.935,283.458,451.802,294.311,449.807,302.088z"/>
<g>
	<path fill="#E7525C" d="M244.966,325.018l9.535-30.135c4.061-12.835,17.758-19.948,30.593-15.887h0
		c12.835,4.061,19.948,17.758,15.887,30.593l-9.535,30.135C272.132,333.614,264.346,331.15,244.966,325.018z"/>
</g>
<g>
	<g>
		<path fill="#FAC0AE" d="M319.777,253.618c0,0,0.826-1.9,2.474-4.457c0.837-1.298,2.785-1.935,2.999-0.377
			c0.168,1.23-0.712,2.159-0.89,3.359c0,0,0.431-0.683,1.391-2.457c0.868-1.604,2.057-1.484,2.235-0.269
			c0.167,1.147-0.168,1.101-0.453,1.97c-0.379,1.155-0.915,2.595-0.915,2.595s0.413-1.671,1.831-3.59
			c0.649-0.878,1.295-1.852,2.255-0.491c0.482,0.683-0.154,2.541-0.67,4.529c0,0,1.035-2.663,2.367-3.348
			c1.053-0.541,1.593-0.066,1.184,1.402c-0.527,1.894-0.862,2.413-1.262,3.535c-0.401,1.121-1.869,2.724-3.034,2.354
			c-1.165-0.371-1.417-1.185-2.211-1.242c-0.794-0.057-2.066,0.015-2.606-0.476c-0.54-0.49-1.101-0.601-2.022-0.633
			C321.546,255.991,319.726,254.822,319.777,253.618z"/>
	</g>
</g>
<g>
	<path fill="#FAC0AE" d="M402.29,255.465c0,0,0.523-2.004,1.759-4.785c0.627-1.412,2.216-2.427,2.667-0.921
		c0.356,1.189-0.133,2.329-0.124,3.542c0,0,0.321-0.741,0.996-2.642c0.611-1.719,1.805-1.783,2.167-0.61
		c0.342,1.108,0.003,1.114-0.144,2.016c-0.196,1.199-0.505,2.705-0.505,2.705s0.151-1.715,1.256-3.829
		c0.506-0.967,0.994-2.029,2.152-0.833c0.581,0.6,0.239,2.535,0.035,4.578c0,0,0.241-2.442,1.451-3.323
		c0.957-0.697,1.936-0.659,1.758,0.854c-0.23,1.953-0.48,2.517-0.703,3.687c-0.223,1.17-1.427,2.979-2.635,2.792
		c-1.208-0.187-1.583-0.953-2.376-0.887c-0.793,0.066-2.039,0.332-2.648-0.069c-0.609-0.402-1.181-0.425-2.095-0.314
		C404.403,257.537,402.424,256.662,402.29,255.465z"/>
</g>
<path fill="#E6E7E8" d="M240.25,354.143c0,0.827-0.335,1.577-0.878,2.12c-0.542,0.543-1.292,0.88-2.122,0.88H225.3v-6h11.95
	C238.907,351.143,240.25,352.486,240.25,354.143z"/>
<g>
	<g>
		<path fill="#E6E7E8" d="M240.25,375.476c0,0.83-0.335,1.58-0.878,2.122c-0.542,0.543-1.292,0.878-2.122,0.878H225.3v-6h11.95
			C238.907,372.476,240.25,373.818,240.25,375.476z"/>
	</g>
</g>
<g>
	<rect x="225.3" y="351.143" fill="#CCE0F4" width="5.45" height="6"/>
</g>
<g>
	<rect x="225.3" y="372.476" fill="#CCE0F4" width="5.45" height="6"/>
</g>
<g>
	<path fill="#CCE0F4" d="M177.875,361.298l-0.165,4.747c-49.533-1.737-87.948-5.35-114.173-10.737
		c-22.49-4.618-36.575-10.555-43.06-18.148c-3.33-3.9-4.717-8.335-4.122-13.183c1.002-8.167,8.26-14.195,21.607-17.972
		c0.2,1.603,0.543,3.158,1.02,4.655c-8.96,2.583-17.047,6.855-17.912,13.898c-0.433,3.517,0.555,6.632,3.02,9.517
		c5.69,6.665,19.285,12.242,40.402,16.58C90.46,355.991,128.607,359.571,177.875,361.298z"/>
</g>
<g>
	<path fill="#E7525C" d="M225.3,389.184h-31.607c-13.462,0-24.375-10.913-24.375-24.375l0,0c0-13.462,10.913-24.375,24.375-24.375
		l31.607,0C225.3,360.691,225.3,368.858,225.3,389.184z"/>
</g>
<g>
	<path fill="#E7525C" d="M442.126,173.954v16.168c0,2.137-1.734,3.871-3.871,3.871h-29.356l-8.863,3.18
		c-0.91,0.327-1.781-0.568-1.432-1.468l3.353-8.658v-13.093c0-2.137,1.734-3.871,3.873-3.871h32.425
		C440.392,170.083,442.126,171.817,442.126,173.954z"/>
</g>
<g>
	<g>
		<circle fill="#F37B78" cx="413.823" cy="182.498" r="2.8"/>
		<circle fill="#F37B78" cx="422.688" cy="182.498" r="2.8"/>
		<circle fill="#F37B78" cx="431.552" cy="182.498" r="2.8"/>
	</g>
</g>
<g>
	<g>
		<path fill="#F37B78" d="M293.874,75.553c0-3.645,2.966-6.611,6.611-6.611s6.611,2.966,6.611,6.611
			c0,3.645-2.966,6.611-6.611,6.611S293.874,79.198,293.874,75.553z M295.948,75.553c0,2.502,2.035,4.537,4.537,4.537
			c2.501,0,4.537-2.035,4.537-4.537c0-2.502-2.035-4.537-4.537-4.537C297.983,71.016,295.948,73.051,295.948,75.553z"/>
	</g>
	<g>
		<path fill="#F37B78" d="M271.776,47.236c0-3.645,2.966-6.611,6.611-6.611c3.645,0,6.611,2.966,6.611,6.611
			s-2.966,6.611-6.611,6.611C274.741,53.847,271.776,50.881,271.776,47.236z M273.85,47.236c0,2.501,2.035,4.537,4.537,4.537
			c2.502,0,4.537-2.035,4.537-4.537c0-2.502-2.035-4.537-4.537-4.537C275.885,42.7,273.85,44.735,273.85,47.236z"/>
	</g>
	<g>
		<g>
			<g>
				<path fill="#3C74AB" d="M273.85,78.876c0.573,0,1.037-0.464,1.037-1.037v-4.573c0-0.573-0.464-1.037-1.037-1.037
					c-0.573,0-1.037,0.464-1.037,1.037v4.573C272.813,78.412,273.277,78.876,273.85,78.876z"/>
			</g>
			<g>
				<path fill="#3C74AB" d="M273.85,86.878c0.573,0,1.037-0.464,1.037-1.037v-4.573c0-0.573-0.464-1.037-1.037-1.037
					c-0.573,0-1.037,0.464-1.037,1.037v4.573C272.813,86.414,273.277,86.878,273.85,86.878z"/>
			</g>
		</g>
		<g>
			<g>
				<path fill="#3C74AB" d="M267.431,80.591h4.108c0.573,0,1.037-0.464,1.037-1.037c0-0.573-0.464-1.037-1.037-1.037h-4.108
					c-0.573,0-1.037,0.464-1.037,1.037C266.394,80.127,266.858,80.591,267.431,80.591z"/>
			</g>
			<g>
				<path fill="#3C74AB" d="M276.16,80.591h4.108c0.573,0,1.037-0.464,1.037-1.037c0-0.573-0.465-1.037-1.037-1.037h-4.108
					c-0.573,0-1.037,0.464-1.037,1.037C275.123,80.127,275.588,80.591,276.16,80.591z"/>
			</g>
		</g>
	</g>
	<g>
		<g>
			<g>
				<g>
					<path fill="#01538A" d="M301.759,48.409c0.573,0,1.037-0.464,1.037-1.037v-4.573c0-0.573-0.464-1.037-1.037-1.037
						c-0.573,0-1.037,0.464-1.037,1.037v4.573C300.722,47.945,301.186,48.409,301.759,48.409z"/>
				</g>
				<g>
					<path fill="#01538A" d="M301.759,56.411c0.573,0,1.037-0.464,1.037-1.037v-4.573c0-0.573-0.464-1.037-1.037-1.037
						c-0.573,0-1.037,0.464-1.037,1.037v4.573C300.722,55.947,301.186,56.411,301.759,56.411z"/>
				</g>
			</g>
			<g>
				<g>
					<path fill="#01538A" d="M295.34,50.124h4.108c0.572,0,1.037-0.464,1.037-1.037c0-0.573-0.464-1.037-1.037-1.037h-4.108
						c-0.573,0-1.037,0.464-1.037,1.037C294.303,49.66,294.767,50.124,295.34,50.124z"/>
				</g>
				<g>
					<path fill="#01538A" d="M304.07,50.124h4.108c0.573,0,1.037-0.464,1.037-1.037c0-0.573-0.464-1.037-1.037-1.037h-4.108
						c-0.573,0-1.037,0.464-1.037,1.037C303.033,49.66,303.497,50.124,304.07,50.124z"/>
				</g>
			</g>
		</g>
	</g>
</g>
<g>
	<g>
		<g>
			<path fill="#F37B78" d="M102.789,30.261c0-3.645,2.966-6.611,6.61-6.611c3.645,0,6.611,2.966,6.611,6.611
				c0,3.645-2.966,6.61-6.611,6.61C105.755,36.871,102.789,33.906,102.789,30.261z M104.863,30.261c0,2.502,2.035,4.537,4.537,4.537
				c2.502,0,4.537-2.035,4.537-4.537c0-2.502-2.035-4.537-4.537-4.537C106.898,25.724,104.863,27.759,104.863,30.261z"/>
		</g>
	</g>
	<g>
		<path fill="#3C74AB" d="M77.368,42.7c0-3.645,2.965-6.611,6.611-6.611c3.645,0,6.61,2.966,6.61,6.611s-2.966,6.611-6.61,6.611
			C80.333,49.31,77.368,46.345,77.368,42.7z M79.442,42.7c0,2.502,2.035,4.537,4.537,4.537c2.502,0,4.537-2.035,4.537-4.537
			s-2.035-4.537-4.537-4.537C81.477,38.163,79.442,40.198,79.442,42.7z"/>
	</g>
	<g>
		<g>
			<g>
				<path fill="#F37B78" d="M73.564,60.494c0.573,0,1.037-0.464,1.037-1.037v-4.573c0-0.573-0.464-1.037-1.037-1.037
					c-0.573,0-1.037,0.464-1.037,1.037v4.573C72.527,60.029,72.991,60.494,73.564,60.494z"/>
			</g>
			<g>
				<path fill="#F37B78" d="M73.564,68.496c0.573,0,1.037-0.464,1.037-1.037v-4.573c0-0.573-0.464-1.037-1.037-1.037
					c-0.573,0-1.037,0.464-1.037,1.037v4.573C72.527,68.032,72.991,68.496,73.564,68.496z"/>
			</g>
		</g>
		<g>
			<g>
				<path fill="#F37B78" d="M67.145,62.209h4.108c0.573,0,1.037-0.464,1.037-1.037c0-0.573-0.464-1.037-1.037-1.037h-4.108
					c-0.573,0-1.037,0.464-1.037,1.037C66.108,61.744,66.573,62.209,67.145,62.209z"/>
			</g>
			<g>
				<path fill="#F37B78" d="M75.875,62.209h4.108c0.572,0,1.037-0.464,1.037-1.037c0-0.573-0.464-1.037-1.037-1.037h-4.108
					c-0.573,0-1.037,0.464-1.037,1.037C74.838,61.744,75.302,62.209,75.875,62.209z"/>
			</g>
		</g>
	</g>
	<g>
		<g>
			<g>
				<g>
					<path fill="#01538A" d="M92.153,17.722c0.573,0,1.037-0.464,1.037-1.037v-4.573c0-0.573-0.464-1.037-1.037-1.037
						c-0.573,0-1.037,0.464-1.037,1.037v4.573C91.116,17.257,91.58,17.722,92.153,17.722z"/>
				</g>
				<g>
					<path fill="#01538A" d="M92.153,25.724c0.573,0,1.037-0.464,1.037-1.037v-4.573c0-0.573-0.464-1.037-1.037-1.037
						c-0.573,0-1.037,0.464-1.037,1.037v4.573C91.116,25.26,91.58,25.724,92.153,25.724z"/>
				</g>
			</g>
			<g>
				<g>
					<path fill="#01538A" d="M85.734,19.437h4.108c0.573,0,1.037-0.464,1.037-1.037c0-0.573-0.464-1.037-1.037-1.037h-4.108
						c-0.572,0-1.037,0.464-1.037,1.037C84.697,18.972,85.162,19.437,85.734,19.437z"/>
				</g>
				<g>
					<path fill="#01538A" d="M94.464,19.437h4.108c0.573,0,1.037-0.464,1.037-1.037c0-0.573-0.464-1.037-1.037-1.037h-4.108
						c-0.573,0-1.037,0.464-1.037,1.037C93.427,18.972,93.891,19.437,94.464,19.437z"/>
				</g>
			</g>
		</g>
	</g>
</g>
</svg>
