<?xml version="1.0" encoding="utf-8"?>
<!-- Generator: Adobe Illustrator 17.0.0, SVG Export Plug-In . SVG Version: 6.00 Build 0)  -->
<!DOCTYPE svg PUBLIC "-//W3C//DTD SVG 1.1//EN" "http://www.w3.org/Graphics/SVG/1.1/DTD/svg11.dtd">
<svg version="1.1" id="Layer_1" xmlns="http://www.w3.org/2000/svg" xmlns:xlink="http://www.w3.org/1999/xlink" x="0px" y="0px"
	 width="1823.532px" height="578.572px" viewBox="0 0 1823.532 578.572" enable-background="new 0 0 1823.532 578.572"
	 xml:space="preserve">
<rect x="220.18" y="112.438" fill="none" width="698.876" height="159.551"/>
<g>
	<path fill="#B6AEB6" d="M359.517,422.685H59.086c-6.876,0-12.451-5.575-12.451-12.451v-14.809
		c0-13.753,11.148-24.901,24.901-24.901h275.53c13.753,0,24.901,11.148,24.901,24.901v14.809
		C371.967,417.111,366.394,422.685,359.517,422.685L359.517,422.685z"/>
	<path fill="#A79BA7" d="M347.066,370.525h-3.339c2.12,3.663,3.339,7.913,3.339,12.451c0,15.055-12.204,27.26-27.26,27.26H46.636
		c0,6.876,5.574,12.451,12.451,12.451h300.431c6.876,0,12.451-5.575,12.451-12.451v-14.809
		C371.967,381.673,360.819,370.525,347.066,370.525L347.066,370.525z"/>
	<path fill="#B6AEB6" d="M347.067,370.525H71.537v-27.26c0-13.753,11.148-24.901,24.901-24.901h225.728
		c13.753,0,24.901,11.148,24.901,24.901L347.067,370.525L347.067,370.525z"/>
	<path fill="#A79BA7" d="M322.165,318.364h-3.339c2.12,3.663,3.339,7.913,3.339,12.451c0,15.055-12.204,27.26-27.26,27.26H71.537
		v12.451h275.53v-27.26C347.066,329.512,335.918,318.364,322.165,318.364z"/>
	<path fill="#F04A58" d="M315.93,318.364H102.674V204.513c0-58.889,47.739-106.628,106.628-106.628
		c58.889,0,106.628,47.739,106.628,106.628L315.93,318.364z"/>
	<path fill="#EE3540" d="M271.218,117.697c12.471,17.455,19.811,38.828,19.811,61.916v50.176c0,35.166-28.508,63.674-63.674,63.674
		H102.674v24.901H315.93V204.514C315.93,168.712,298.284,137.035,271.218,117.697L271.218,117.697z"/>
	<g>
		<path fill="#F04A58" d="M209.302,40.924c-3.438,0-6.225-2.786-6.225-6.225V10.159c0-3.438,2.786-6.225,6.225-6.225
			c3.438,0,6.225,2.786,6.225,6.225v24.54C215.527,38.138,212.74,40.924,209.302,40.924z"/>
	</g>
	<g>
		<path fill="#F04A58" d="M291.428,68.175c-1.056,0-2.127-0.269-3.107-0.835c-2.977-1.719-3.998-5.526-2.279-8.503l14.617-25.316
			c1.718-2.978,5.527-3.998,8.503-2.279c2.977,1.719,3.998,5.526,2.279,8.503l-14.616,25.316
			C295.672,67.059,293.579,68.175,291.428,68.175z"/>
	</g>
	<g>
		<path fill="#F04A58" d="M355.198,126.52c-2.151,0-4.244-1.116-5.397-3.114c-1.719-2.977-0.698-6.784,2.279-8.503l21.409-12.361
			c2.976-1.718,6.785-0.699,8.503,2.279c1.719,2.977,0.698,6.784-2.279,8.503l-21.409,12.361
			C357.325,126.251,356.254,126.52,355.198,126.52z"/>
	</g>
	<g>
		<path fill="#F04A58" d="M402.05,211.182h-24.541c-3.438,0-6.225-2.786-6.225-6.225s2.786-6.225,6.225-6.225h24.541
			c3.438,0,6.225,2.786,6.225,6.225S405.488,211.182,402.05,211.182L402.05,211.182z"/>
	</g>
	<g>
		<path fill="#F04A58" d="M39.044,209.131H14.503c-3.438,0-6.225-2.786-6.225-6.225c0-3.438,2.786-6.225,6.225-6.225h24.541
			c3.438,0,6.225,2.786,6.225,6.225C45.269,206.345,42.483,209.131,39.044,209.131L39.044,209.131z"/>
	</g>
	<g>
		<path fill="#F04A58" d="M62.38,124.744c-1.056,0-2.126-0.269-3.107-0.835l-21.409-12.36c-2.977-1.718-3.998-5.526-2.279-8.503
			c1.718-2.978,5.525-3.998,8.503-2.279l21.409,12.36c2.977,1.718,3.998,5.526,2.279,8.503
			C66.625,123.627,64.532,124.744,62.38,124.744L62.38,124.744z"/>
	</g>
	<g>
		<path fill="#F04A58" d="M125.237,64.267c-2.151,0-4.243-1.116-5.397-3.114L106.887,38.72c-1.719-2.977-0.698-6.784,2.279-8.503
			c2.975-1.718,6.783-0.699,8.503,2.279l12.953,22.433c1.719,2.977,0.698,6.784-2.279,8.503
			C127.363,63.998,126.293,64.267,125.237,64.267z"/>
	</g>
	<g>
		<path fill="#F5F8F8" d="M254.522,234.611l-33.6-10.723v-13.281l33.6-10.723c2.678-0.855,5.412,1.143,5.412,3.954v26.82
			C259.934,233.468,257.199,235.465,254.522,234.611L254.522,234.611z"/>
		<path fill="#F5F8F8" d="M164.082,234.611l33.6-10.723v-13.281l-33.6-10.723c-2.678-0.855-5.412,1.143-5.412,3.954v26.82
			C158.67,233.468,161.405,235.465,164.082,234.611L164.082,234.611z"/>
	</g>
	<g>
		<path fill="#F5F8F8" d="M203.076,318.364v-85.769c0-3.438,2.786-6.225,6.225-6.225s6.225,2.786,6.225,6.225v85.769H203.076z"/>
	</g>
	<circle fill="#E8EDF1" cx="209.302" cy="217.248" r="15.347"/>
</g>
<g>
	<path fill="#FFFFFF" d="M426.722,369.821c12.987,6.652,32.943,13.305,53.533,13.305c22.173,0,33.893-9.187,33.893-23.124
		c0-13.304-10.136-20.906-35.794-30.093c-35.477-12.353-58.601-31.992-58.601-63.035c0-36.427,30.409-64.302,80.774-64.302
		c24.074,0,41.812,5.068,54.483,10.77l-10.77,38.962c-8.553-4.118-23.757-10.136-44.663-10.136s-31.042,9.503-31.042,20.589
		c0,13.621,12.037,19.639,39.595,30.092c37.694,13.938,55.432,33.577,55.432,63.669c0,35.794-27.558,66.203-86.159,66.203
		c-24.39,0-48.464-6.336-60.5-12.987L426.722,369.821z"/>
	<path fill="#FFFFFF" d="M637.363,246.601H580.03l0-40.545l164.081,0v40.545l-58.283,0l0,172.951h-48.464L637.363,246.601z"/>
	<path fill="#FFFFFF" d="M769.763,206.056h130.505v39.595h-82.041v48.781l76.656,0v39.279h-76.656v85.842h-48.464L769.763,206.056z"
		/>
	<path fill="#FFFFFF" d="M1112.812,337.829c-0.951-25.657-1.9-56.7-1.9-87.743h-0.951c-6.652,27.241-15.521,57.65-23.757,82.674
		l-25.974,83.308h-37.695l-22.806-82.675c-6.968-25.024-14.254-55.433-19.322-83.307h-0.633
		c-1.267,28.825-2.218,61.768-3.802,88.376l-3.801,81.09h-44.663l13.621-213.496h64.302l20.906,71.271
		c6.652,24.708,13.304,51.315,18.055,76.339h0.951c6.018-24.707,13.304-52.898,20.273-76.656l22.806-70.954l63.036,0l11.719,213.496
		h-47.198L1112.812,337.829z"/>
	<path fill="#FFFFFF" d="M1201.817,369.821c12.986,6.652,32.943,13.305,53.531,13.305c22.174,0,33.893-9.187,33.893-23.124
		c0-13.304-10.136-20.906-35.794-30.093c-35.477-12.353-58.6-31.992-58.6-63.035c0-36.427,30.409-64.302,80.773-64.302
		c24.074,0,41.813,5.068,54.483,10.77l-10.77,38.962c-8.553-4.118-23.757-10.136-44.663-10.136
		c-20.906,0-31.042,9.503-31.042,20.589c0,13.621,12.037,19.639,39.594,30.092c37.694,13.938,55.433,33.577,55.433,63.669
		c0,35.794-27.558,66.203-86.158,66.203c-24.391,0-48.465-6.336-60.502-12.987L1201.817,369.821z"/>
</g>
<g>
	<path fill="#FFFFFF" d="M52.37,529.77c4.1,2.101,10.4,4.2,16.901,4.2c7,0,10.701-2.9,10.701-7.3c0-4.2-3.2-6.601-11.301-9.501
		c-11.201-3.9-18.501-10.101-18.501-19.901c0-11.501,9.601-20.301,25.501-20.301c7.601,0,13.201,1.6,17.201,3.4l-3.4,12.3
		c-2.7-1.3-7.5-3.199-14.101-3.199c-6.601,0-9.801,3-9.801,6.5c0,4.3,3.8,6.2,12.5,9.5c11.901,4.4,17.501,10.602,17.501,20.102
		c0,11.301-8.701,20.901-27.202,20.901c-7.701,0-15.301-2-19.102-4.101L52.37,529.77z"/>
	<path fill="#FFFFFF" d="M106.369,512.17c0-6.101-0.2-11.301-0.4-15.602h12.801l0.7,6.601h0.3c2.1-3.1,6.4-7.7,14.801-7.7
		c6.3,0,11.301,3.2,13.401,8.301h0.2c1.8-2.501,4-4.501,6.3-5.9c2.7-1.601,5.701-2.4,9.301-2.4c9.4,0,16.501,6.601,16.501,21.201
		v28.802h-14.801V518.87c0-7.101-2.3-11.201-7.201-11.201c-3.5,0-6,2.4-7,5.301c-0.4,1.1-0.6,2.7-0.6,3.9v28.602h-14.801V518.07
		c0-6.201-2.2-10.401-7-10.401c-3.9,0-6.2,3.001-7.1,5.501c-0.5,1.2-0.6,2.6-0.6,3.8v28.502h-14.801V512.17z"/>
	<path fill="#FFFFFF" d="M221.169,545.471l-0.9-4.9h-0.3c-3.2,3.9-8.201,6-14.001,6c-9.9,0-15.801-7.2-15.801-15
		c0-12.701,11.4-18.802,28.702-18.701v-0.7c0-2.601-1.4-6.301-8.901-6.301c-5,0-10.3,1.7-13.5,3.7l-2.8-9.801
		c3.4-1.899,10.101-4.3,19.001-4.3c16.301,0,21.501,9.601,21.501,21.102v17.001c0,4.7,0.2,9.2,0.7,11.9H221.169z M219.369,522.37
		c-8-0.1-14.201,1.8-14.201,7.7c0,3.9,2.601,5.801,6,5.801c3.8,0,6.9-2.5,7.9-5.601c0.2-0.8,0.3-1.7,0.3-2.6V522.37z"/>
	<path fill="#FFFFFF" d="M247.167,512.67c0-7.201-0.2-11.901-0.4-16.102h13.101l0.5,9.001h0.4c2.5-7.101,8.5-10.101,13.201-10.101
		c1.4,0,2.1,0,3.2,0.2v14.301c-1.1-0.2-2.4-0.4-4.1-0.4c-5.601,0-9.4,3-10.4,7.7c-0.2,1-0.3,2.2-0.3,3.4v24.802h-15.201V512.67z"/>
	<path fill="#FFFFFF" d="M305.267,482.567v14.001h10.9v11.201h-10.9v17.701c0,5.9,1.4,8.601,6,8.601c1.9,0,3.4-0.2,4.501-0.4
		l0.1,11.501c-2,0.8-5.601,1.3-9.9,1.3c-4.9,0-9.001-1.7-11.401-4.2c-2.8-2.9-4.2-7.601-4.2-14.501v-20.001h-6.5v-11.201h6.5
		v-10.601L305.267,482.567z"/>
	<path fill="#FFFFFF" d="M356.767,490.868h-18.102v-12.801h51.804v12.801h-18.401v54.604h-15.301V490.868z"/>
	<path fill="#FFFFFF" d="M393.667,512.67c0-7.201-0.2-11.901-0.4-16.102h13.101l0.5,9.001h0.4c2.5-7.101,8.501-10.101,13.201-10.101
		c1.399,0,2.1,0,3.2,0.2v14.301c-1.101-0.2-2.4-0.4-4.101-0.4c-5.601,0-9.4,3-10.4,7.7c-0.2,1-0.3,2.2-0.3,3.4v24.802h-15.201
		V512.67z"/>
	<path fill="#FFFFFF" d="M459.369,545.471l-0.9-4.9h-0.3c-3.2,3.9-8.2,6-14.001,6c-9.9,0-15.801-7.2-15.801-15
		c0-12.701,11.4-18.802,28.701-18.701v-0.7c0-2.601-1.399-6.301-8.9-6.301c-5,0-10.301,1.7-13.501,3.7l-2.8-9.801
		c3.4-1.899,10.101-4.3,19.001-4.3c16.301,0,21.502,9.601,21.502,21.102v17.001c0,4.7,0.199,9.2,0.699,11.9H459.369z
		 M457.568,522.37c-8-0.1-14.2,1.8-14.2,7.7c0,3.9,2.6,5.801,6,5.801c3.801,0,6.9-2.5,7.9-5.601c0.2-0.8,0.3-1.7,0.3-2.6V522.37z"/>
	<path fill="#FFFFFF" d="M554.17,487.368c-2.399-1.101-5.9-2-10-2c-8.001,0-10.801,4.101-10.801,9.5v1.7h29.802v48.903h-15.301
		v-37.702h-14.401v37.702h-15.201v-37.702h-15.9v37.702h-15.301v-37.702h-6.4v-11.201h6.4v-1.1c0-5.801,1.899-11.701,6.3-15.801
		c3.301-3.101,8.101-5.2,14.701-5.2c3.4,0,6.601,0.899,8.501,1.6l-3.4,11.001c-1.101-0.5-2.7-1-4.301-1c-2,0-3.5,0.7-4.5,1.7
		c-1.601,1.7-2.101,4.5-2.101,7.1v1.7h16.001v-2.1c0-13.501,10.401-21.102,25.502-21.102c4.801,0,10.4,1,13.701,2.601
		L554.17,487.368z"/>
	<path fill="#FFFFFF" d="M612.967,544.271c-2.7,1.2-7.801,2.2-13.601,2.2c-15.802,0-25.902-9.601-25.902-25.001
		c0-14.302,9.801-26.002,28.002-26.002c4,0,8.4,0.7,11.601,1.9l-2.399,11.301c-1.801-0.801-4.501-1.501-8.501-1.501
		c-8,0-13.201,5.701-13.101,13.701c0,9.001,6,13.701,13.4,13.701c3.601,0,6.4-0.601,8.701-1.5L612.967,544.271z"/>
	<path fill="#FFFFFF" d="M644.064,478.067h41.202v12.501h-25.901v15.401h24.201v12.4h-24.201v27.102h-15.3V478.067z"/>
	<path fill="#FFFFFF" d="M710.965,482.967c0,4.2-3.2,7.601-8.201,7.601c-4.8,0-8-3.4-7.9-7.601c-0.1-4.4,3.101-7.7,8.001-7.7
		S710.864,478.567,710.965,482.967z M695.264,545.471v-48.903h15.201v48.903H695.264z"/>
	<path fill="#FFFFFF" d="M723.662,512.17c0-6.101-0.2-11.301-0.4-15.602h13.201l0.7,6.701h0.3c2-3.101,7-7.801,15.101-7.801
		c10.001,0,17.501,6.601,17.501,21.001v29.002h-15.2V518.37c0-6.301-2.2-10.601-7.701-10.601c-4.2,0-6.7,2.9-7.7,5.7
		c-0.4,0.9-0.6,2.4-0.6,3.8v28.202h-15.201V512.17z"/>
	<path fill="#FFFFFF" d="M794.962,525.87c0.5,6.301,6.701,9.301,13.801,9.301c5.2,0,9.401-0.7,13.501-2l2,10.301
		c-5,2-11.101,3-17.701,3c-16.601,0-26.102-9.601-26.102-24.901c0-12.4,7.701-26.102,24.702-26.102
		c15.801,0,21.801,12.301,21.801,24.401c0,2.601-0.3,4.9-0.5,6H794.962z M812.863,515.469c0-3.7-1.6-9.9-8.601-9.9
		c-6.4,0-9,5.8-9.4,9.9H812.863z"/>
	<path fill="#FFFFFF" d="M915.765,519.67c-0.3-8.101-0.6-17.901-0.6-27.701h-0.3c-2.101,8.601-4.9,18.201-7.501,26.102l-8.2,26.302
		h-11.9l-7.201-26.103c-2.2-7.9-4.5-17.501-6.1-26.301h-0.2c-0.4,9.101-0.7,19.501-1.2,27.901l-1.2,25.602h-14.101l4.3-67.404
		h20.302l6.6,22.502c2.101,7.8,4.201,16.2,5.701,24.101h0.3c1.9-7.8,4.2-16.7,6.4-24.201l7.2-22.401h19.901l3.7,67.404h-14.901
		L915.765,519.67z"/>
	<path fill="#FFFFFF" d="M971.962,545.471l-0.9-4.9h-0.3c-3.2,3.9-8.2,6-14.001,6c-9.9,0-15.801-7.2-15.801-15
		c0-12.701,11.4-18.802,28.701-18.701v-0.7c0-2.601-1.399-6.301-8.9-6.301c-5,0-10.301,1.7-13.501,3.7l-2.8-9.801
		c3.4-1.899,10.101-4.3,19.001-4.3c16.301,0,21.502,9.601,21.502,21.102v17.001c0,4.7,0.199,9.2,0.699,11.9H971.962z
		 M970.161,522.37c-8-0.1-14.2,1.8-14.2,7.7c0,3.9,2.6,5.801,6,5.801c3.801,0,6.9-2.5,7.9-5.601c0.2-0.8,0.3-1.7,0.3-2.6V522.37z"/>
	<path fill="#FFFFFF" d="M997.96,512.17c0-6.101-0.2-11.301-0.4-15.602h13.201l0.7,6.701h0.3c2-3.101,7-7.801,15.101-7.801
		c10.001,0,17.501,6.601,17.501,21.001v29.002h-15.2V518.37c0-6.301-2.2-10.601-7.701-10.601c-4.2,0-6.7,2.9-7.7,5.7
		c-0.4,0.9-0.6,2.4-0.6,3.8v28.202H997.96V512.17z"/>
	<path fill="#FFFFFF" d="M1085.361,545.471l-0.9-4.9h-0.3c-3.2,3.9-8.2,6-14.001,6c-9.9,0-15.801-7.2-15.801-15
		c0-12.701,11.4-18.802,28.701-18.701v-0.7c0-2.601-1.399-6.301-8.9-6.301c-5,0-10.301,1.7-13.501,3.7l-2.8-9.801
		c3.4-1.899,10.101-4.3,19.001-4.3c16.301,0,21.502,9.601,21.502,21.102v17.001c0,4.7,0.199,9.2,0.699,11.9H1085.361z
		 M1083.561,522.37c-8-0.1-14.2,1.8-14.2,7.7c0,3.9,2.6,5.801,6,5.801c3.801,0,6.9-2.5,7.9-5.601c0.2-0.8,0.3-1.7,0.3-2.6V522.37z"
		/>
	<path fill="#FFFFFF" d="M1158.063,496.568c-0.199,3.101-0.399,7.201-0.399,14.501v27.302c0,9.4-1.9,17.102-7.4,22.002
		c-5.4,4.6-12.701,6-19.901,6c-6.4,0-13.201-1.3-17.602-3.801l3.001-11.5c3.1,1.8,8.5,3.7,14.2,3.7
		c7.201,0,12.701-3.9,12.701-12.901v-3.2h-0.2c-2.9,4.101-7.601,6.4-13.2,6.4c-12.102,0-20.702-9.8-20.702-23.901
		c0-15.701,10.201-25.701,22.202-25.701c6.7,0,10.9,2.9,13.4,6.9h0.2l0.5-5.801H1158.063z M1142.462,516.469c0-1-0.1-2-0.3-2.8
		c-1.101-4-4-6.7-8.2-6.7c-5.501,0-10.001,5-10.001,13.9c0,7.301,3.601,13.001,10.001,13.001c3.899,0,7-2.601,8-6.2
		c0.4-1.101,0.5-2.7,0.5-4.001V516.469z"/>
	<path fill="#FFFFFF" d="M1182.56,525.87c0.5,6.301,6.701,9.301,13.801,9.301c5.2,0,9.401-0.7,13.501-2l2,10.301
		c-5,2-11.101,3-17.701,3c-16.601,0-26.102-9.601-26.102-24.901c0-12.4,7.701-26.102,24.702-26.102
		c15.801,0,21.801,12.301,21.801,24.401c0,2.601-0.3,4.9-0.5,6H1182.56z M1200.461,515.469c0-3.7-1.6-9.9-8.601-9.9
		c-6.4,0-9,5.8-9.4,9.9H1200.461z"/>
	<path fill="#FFFFFF" d="M1224.659,512.17c0-6.101-0.2-11.301-0.4-15.602h12.801l0.7,6.601h0.3c2.101-3.1,6.4-7.7,14.801-7.7
		c6.301,0,11.301,3.2,13.401,8.301h0.2c1.8-2.501,4-4.501,6.3-5.9c2.7-1.601,5.7-2.4,9.301-2.4c9.4,0,16.501,6.601,16.501,21.201
		v28.802h-14.801V518.87c0-7.101-2.3-11.201-7.2-11.201c-3.501,0-6.001,2.4-7.001,5.301c-0.399,1.1-0.6,2.7-0.6,3.9v28.602h-14.801
		V518.07c0-6.201-2.2-10.401-7.001-10.401c-3.9,0-6.2,3.001-7.101,5.501c-0.5,1.2-0.6,2.6-0.6,3.8v28.502h-14.801V512.17z"/>
	<path fill="#FFFFFF" d="M1323.357,525.87c0.5,6.301,6.701,9.301,13.801,9.301c5.201,0,9.401-0.7,13.501-2l2,10.301
		c-5,2-11.101,3-17.701,3c-16.601,0-26.102-9.601-26.102-24.901c0-12.4,7.701-26.102,24.702-26.102
		c15.801,0,21.801,12.301,21.801,24.401c0,2.601-0.3,4.9-0.5,6H1323.357z M1341.259,515.469c0-3.7-1.6-9.9-8.601-9.9
		c-6.4,0-9,5.8-9.4,9.9H1341.259z"/>
	<path fill="#FFFFFF" d="M1365.458,512.17c0-6.101-0.2-11.301-0.4-15.602h13.201l0.7,6.701h0.3c2-3.101,7-7.801,15.101-7.801
		c10.001,0,17.501,6.601,17.501,21.001v29.002h-15.2V518.37c0-6.301-2.2-10.601-7.701-10.601c-4.2,0-6.7,2.9-7.7,5.7
		c-0.4,0.9-0.6,2.4-0.6,3.8v28.202h-15.201V512.17z"/>
	<path fill="#FFFFFF" d="M1441.459,482.567v14.001h10.9v11.201h-10.9v17.701c0,5.9,1.4,8.601,6,8.601c1.9,0,3.4-0.2,4.5-0.4
		l0.101,11.501c-2,0.8-5.601,1.3-9.9,1.3c-4.9,0-9.001-1.7-11.401-4.2c-2.8-2.9-4.2-7.601-4.2-14.501v-20.001h-6.5v-11.201h6.5
		v-10.601L1441.459,482.567z"/>
	<path fill="#FFFFFF" d="M1484.356,529.77c4.101,2.101,10.4,4.2,16.901,4.2c7,0,10.7-2.9,10.7-7.3c0-4.2-3.2-6.601-11.301-9.501
		c-11.2-3.9-18.501-10.101-18.501-19.901c0-11.501,9.601-20.301,25.502-20.301c7.6,0,13.2,1.6,17.2,3.4l-3.399,12.3
		c-2.7-1.3-7.501-3.199-14.102-3.199s-9.801,3-9.801,6.5c0,4.3,3.801,6.2,12.501,9.5c11.901,4.4,17.501,10.602,17.501,20.102
		c0,11.301-8.7,20.901-27.201,20.901c-7.7,0-15.301-2-19.102-4.101L1484.356,529.77z"/>
	<path fill="#FFFFFF" d="M1548.256,496.568l7.301,24.002c0.8,2.9,1.8,6.5,2.4,9.101h0.3c0.7-2.601,1.5-6.301,2.2-9.101l6-24.002
		h16.301l-11.4,32.202c-7,19.401-11.701,27.202-17.201,32.103c-5.3,4.6-10.9,6.2-14.701,6.7l-3.2-12.901
		c1.9-0.3,4.301-1.199,6.601-2.6c2.301-1.2,4.801-3.601,6.301-6.101c0.5-0.7,0.8-1.5,0.8-2.2c0-0.5-0.1-1.3-0.7-2.5l-17.901-44.703
		H1548.256z"/>
	<path fill="#FFFFFF" d="M1588.455,532.171c2.801,1.7,8.601,3.7,13.102,3.7c4.6,0,6.5-1.6,6.5-4.101c0-2.5-1.5-3.7-7.2-5.6
		c-10.101-3.4-14.001-8.901-13.901-14.701c0-9.101,7.801-16.001,19.901-16.001c5.7,0,10.801,1.3,13.801,2.8l-2.7,10.501
		c-2.2-1.2-6.4-2.8-10.601-2.8c-3.7,0-5.8,1.5-5.8,4c0,2.3,1.899,3.5,7.9,5.601c9.3,3.2,13.2,7.9,13.301,15.101
		c0,9.101-7.201,15.801-21.201,15.801c-6.4,0-12.102-1.4-15.802-3.4L1588.455,532.171z"/>
	<path fill="#FFFFFF" d="M1649.956,482.567v14.001h10.9v11.201h-10.9v17.701c0,5.9,1.4,8.601,6,8.601c1.9,0,3.4-0.2,4.501-0.4
		l0.1,11.501c-2,0.8-5.601,1.3-9.9,1.3c-4.9,0-9.001-1.7-11.401-4.2c-2.8-2.9-4.2-7.601-4.2-14.501v-20.001h-6.5v-11.201h6.5
		v-10.601L1649.956,482.567z"/>
	<path fill="#FFFFFF" d="M1681.855,525.87c0.5,6.301,6.701,9.301,13.801,9.301c5.201,0,9.401-0.7,13.501-2l2,10.301
		c-5,2-11.101,3-17.701,3c-16.601,0-26.102-9.601-26.102-24.901c0-12.4,7.701-26.102,24.702-26.102
		c15.801,0,21.801,12.301,21.801,24.401c0,2.601-0.3,4.9-0.5,6H1681.855z M1699.757,515.469c0-3.7-1.6-9.9-8.601-9.9
		c-6.4,0-9,5.8-9.4,9.9H1699.757z"/>
	<path fill="#FFFFFF" d="M1723.955,512.17c0-6.101-0.2-11.301-0.4-15.602h12.801l0.7,6.601h0.3c2.101-3.1,6.4-7.7,14.801-7.7
		c6.301,0,11.301,3.2,13.401,8.301h0.2c1.8-2.501,4-4.501,6.3-5.9c2.7-1.601,5.7-2.4,9.301-2.4c9.4,0,16.501,6.601,16.501,21.201
		v28.802h-14.801V518.87c0-7.101-2.3-11.201-7.2-11.201c-3.501,0-6.001,2.4-7.001,5.301c-0.399,1.1-0.6,2.7-0.6,3.9v28.602h-14.801
		V518.07c0-6.201-2.2-10.401-7.001-10.401c-3.9,0-6.2,3.001-7.101,5.501c-0.5,1.2-0.6,2.6-0.6,3.8v28.502h-14.801V512.17z"/>
</g>
</svg>
