<?xml version="1.0" encoding="utf-8"?>
<!-- Generator: Adobe Illustrator 17.0.0, SVG Export Plug-In . SVG Version: 6.00 Build 0)  -->
<!DOCTYPE svg PUBLIC "-//W3C//DTD SVG 1.1//EN" "http://www.w3.org/Graphics/SVG/1.1/DTD/svg11.dtd">
<svg version="1.1" id="Layer_1" xmlns="http://www.w3.org/2000/svg" xmlns:xlink="http://www.w3.org/1999/xlink" x="0px" y="0px"
	 width="1316px" height="429px" viewBox="0 0 1316 429" enable-background="new 0 0 1316 429" xml:space="preserve">
<rect x="220.18" y="112.438" fill="none" width="698.876" height="159.551"/>
<g>
	<path fill="#B6AEB6" d="M359.517,422.685H59.086c-6.876,0-12.451-5.575-12.451-12.451v-14.809
		c0-13.753,11.148-24.901,24.901-24.901h275.53c13.753,0,24.901,11.148,24.901,24.901v14.809
		C371.967,417.111,366.394,422.685,359.517,422.685L359.517,422.685z"/>
	<path fill="#A79BA7" d="M347.066,370.525h-3.339c2.12,3.663,3.339,7.913,3.339,12.451c0,15.055-12.204,27.26-27.26,27.26H46.636
		c0,6.876,5.574,12.451,12.451,12.451h300.431c6.876,0,12.451-5.575,12.451-12.451v-14.809
		C371.967,381.673,360.819,370.525,347.066,370.525L347.066,370.525z"/>
	<path fill="#B6AEB6" d="M347.067,370.525H71.537v-27.26c0-13.753,11.148-24.901,24.901-24.901h225.728
		c13.753,0,24.901,11.148,24.901,24.901L347.067,370.525L347.067,370.525z"/>
	<path fill="#A79BA7" d="M322.165,318.364h-3.339c2.12,3.663,3.339,7.913,3.339,12.451c0,15.055-12.204,27.26-27.26,27.26H71.537
		v12.451h275.53v-27.26C347.066,329.512,335.918,318.364,322.165,318.364z"/>
	<path fill="#F04A58" d="M315.93,318.364H102.674V204.513c0-58.889,47.739-106.628,106.628-106.628
		c58.889,0,106.628,47.739,106.628,106.628L315.93,318.364z"/>
	<path fill="#EE3540" d="M271.218,117.697c12.471,17.455,19.811,38.828,19.811,61.916v50.176c0,35.166-28.508,63.674-63.674,63.674
		H102.674v24.901H315.93V204.514C315.93,168.712,298.284,137.035,271.218,117.697L271.218,117.697z"/>
	<g>
		<path fill="#F04A58" d="M209.302,40.924c-3.438,0-6.225-2.786-6.225-6.225V10.159c0-3.438,2.786-6.225,6.225-6.225
			c3.438,0,6.225,2.786,6.225,6.225v24.54C215.527,38.138,212.74,40.924,209.302,40.924z"/>
	</g>
	<g>
		<path fill="#F04A58" d="M291.428,68.175c-1.056,0-2.127-0.269-3.107-0.835c-2.977-1.719-3.998-5.526-2.279-8.503l14.617-25.316
			c1.718-2.978,5.527-3.998,8.503-2.279c2.977,1.719,3.998,5.526,2.279,8.503l-14.616,25.316
			C295.672,67.059,293.579,68.175,291.428,68.175z"/>
	</g>
	<g>
		<path fill="#F04A58" d="M355.198,126.52c-2.151,0-4.244-1.116-5.397-3.114c-1.719-2.977-0.698-6.784,2.279-8.503l21.409-12.361
			c2.976-1.718,6.785-0.699,8.503,2.279c1.719,2.977,0.698,6.784-2.279,8.503l-21.409,12.361
			C357.325,126.251,356.254,126.52,355.198,126.52z"/>
	</g>
	<g>
		<path fill="#F04A58" d="M402.05,211.182h-24.541c-3.438,0-6.225-2.786-6.225-6.225s2.786-6.225,6.225-6.225h24.541
			c3.438,0,6.225,2.786,6.225,6.225S405.488,211.182,402.05,211.182L402.05,211.182z"/>
	</g>
	<g>
		<path fill="#F04A58" d="M39.044,209.131H14.503c-3.438,0-6.225-2.786-6.225-6.225c0-3.438,2.786-6.225,6.225-6.225h24.541
			c3.438,0,6.225,2.786,6.225,6.225C45.269,206.345,42.483,209.131,39.044,209.131L39.044,209.131z"/>
	</g>
	<g>
		<path fill="#F04A58" d="M62.38,124.744c-1.056,0-2.126-0.269-3.107-0.835l-21.409-12.36c-2.977-1.718-3.998-5.526-2.279-8.503
			c1.718-2.978,5.525-3.998,8.503-2.279l21.409,12.36c2.977,1.718,3.998,5.526,2.279,8.503
			C66.625,123.627,64.532,124.744,62.38,124.744L62.38,124.744z"/>
	</g>
	<g>
		<path fill="#F04A58" d="M125.237,64.267c-2.151,0-4.243-1.116-5.397-3.114L106.887,38.72c-1.719-2.977-0.698-6.784,2.279-8.503
			c2.975-1.718,6.783-0.699,8.503,2.279l12.953,22.433c1.719,2.977,0.698,6.784-2.279,8.503
			C127.363,63.998,126.293,64.267,125.237,64.267z"/>
	</g>
	<g>
		<path fill="#F5F8F8" d="M254.522,234.611l-33.6-10.723v-13.281l33.6-10.723c2.678-0.855,5.412,1.143,5.412,3.954v26.82
			C259.934,233.468,257.199,235.465,254.522,234.611L254.522,234.611z"/>
		<path fill="#F5F8F8" d="M164.082,234.611l33.6-10.723v-13.281l-33.6-10.723c-2.678-0.855-5.412,1.143-5.412,3.954v26.82
			C158.67,233.468,161.405,235.465,164.082,234.611L164.082,234.611z"/>
	</g>
	<g>
		<path fill="#F5F8F8" d="M203.076,318.364v-85.769c0-3.438,2.786-6.225,6.225-6.225s6.225,2.786,6.225,6.225v85.769H203.076z"/>
	</g>
	<circle fill="#E8EDF1" cx="209.302" cy="217.248" r="15.347"/>
</g>
<g>
	<path fill="#FFFFFF" d="M451.075,266.574c11.829,6.058,30.004,12.118,48.757,12.118c20.195,0,30.87-8.367,30.87-21.061
		c0-12.117-9.232-19.041-32.601-27.408c-32.312-11.251-53.373-29.138-53.373-57.412c0-33.178,27.696-58.566,73.568-58.566
		c21.926,0,38.082,4.616,49.622,9.809l-9.809,35.486c-7.79-3.751-21.638-9.232-40.679-9.232s-28.273,8.655-28.273,18.753
		c0,12.406,10.963,17.887,36.063,27.408c34.331,12.695,50.487,30.582,50.487,57.989c0,32.601-25.099,60.297-78.472,60.297
		c-22.214,0-44.14-5.77-55.103-11.829L451.075,266.574z"/>
	<path fill="#FFFFFF" d="M642.925,154.348l-52.219,0v-36.928l149.443,0v36.928l-53.084,0l0,157.522h-44.141L642.925,154.348z"/>
	<path fill="#FFFFFF" d="M763.513,117.419l118.863,0v36.063h-74.722v44.429l69.818,0v35.775l-69.818,0l0,78.184h-44.14
		L763.513,117.419z"/>
	<path fill="#FFFFFF" d="M1075.959,237.436c-0.866-23.369-1.731-51.642-1.731-79.915h-0.866
		c-6.058,24.811-14.137,52.507-21.638,75.299l-23.656,75.876h-34.332l-20.772-75.299c-6.346-22.792-12.983-50.488-17.598-75.876
		h-0.577c-1.154,26.253-2.02,56.258-3.463,80.492l-3.462,73.856h-40.679l12.406-194.45l58.566,0l19.041,64.913
		c6.058,22.504,12.117,46.737,16.444,69.529h0.866c5.481-22.503,12.117-48.179,18.464-69.817l20.772-64.624l57.412,0l10.674,194.45
		h-42.987L1075.959,237.436z"/>
	<path fill="#FFFFFF" d="M1157.024,266.574c11.828,6.058,30.004,12.118,48.756,12.118c20.196,0,30.87-8.367,30.87-21.061
		c0-12.117-9.232-19.041-32.601-27.408c-32.312-11.251-53.372-29.138-53.372-57.412c0-33.178,27.696-58.566,73.567-58.566
		c21.927,0,38.083,4.616,49.623,9.809l-9.809,35.486c-7.79-3.751-21.638-9.232-40.679-9.232s-28.273,8.655-28.273,18.753
		c0,12.406,10.963,17.887,36.062,27.408c34.331,12.695,50.488,30.582,50.488,57.989c0,32.601-25.099,60.297-78.472,60.297
		c-22.215,0-44.141-5.77-55.104-11.829L1157.024,266.574z"/>
</g>
</svg>
