<?xml version="1.0" encoding="utf-8"?>
<!-- Generator: Adobe Illustrator 17.0.0, SVG Export Plug-In . SVG Version: 6.00 Build 0)  -->
<!DOCTYPE svg PUBLIC "-//W3C//DTD SVG 1.1//EN" "http://www.w3.org/Graphics/SVG/1.1/DTD/svg11.dtd">
<svg version="1.1" id="Layer_1" xmlns="http://www.w3.org/2000/svg" xmlns:xlink="http://www.w3.org/1999/xlink" x="0px" y="0px"
	 width="617px" height="539px" viewBox="0 0 617 539" enable-background="new 0 0 617 539" xml:space="preserve">
<g opacity="0.5">
	<g>
		<path fill="#EBEBEB" d="M44.021,328.966c0,0-10.056,5.44,4.585,26.444c14.641,21.004,24.169,31.088,24.169,31.088
			s2.768,4.963-1.535,6.386c-4.303,1.424-14.238,1.213-15.461,6.887c-1.268,5.885,3.531,10.609,12.422,14.109
			c8.891,3.499,28.09,11.881,29.823,12.646c1.702,0.751,3.611,2.974,0.835,4.414c-2.776,1.439-24.328,6.736-21.203,16.812
			c3.126,10.077,29.497,15.755,32.368,16.431c2.871,0.676,3.682,1.742,3.666,3.269c-0.016,1.527-7.428,2.624-13.496,4.382
			c-6.068,1.758-12.796,4.859-10.506,10.522c2.29,5.662,18.864,15.938,55.471,14.499l16.919-1.777l7.205-15.494
			c13.398-34.098,9.145-53.129,4.551-57.154c-4.594-4.025-9.736,1.309-13.392,6.461c-3.655,5.153-7.129,11.792-8.577,11.304
			c-1.447-0.487-2.187-1.604-1.881-4.537c0.306-2.934,3.616-29.706-4.872-35.971c-8.488-6.265-20.578,12.346-22.85,14.494
			c-2.272,2.148-3.745-0.387-3.894-2.24c-0.152-1.888-1.753-22.775-2.134-32.323c-0.381-9.548-3.264-15.633-9.238-16.371
			c-5.76-0.712-8.829,8.74-11.589,12.336c-2.759,3.595-6.536-0.651-6.536-0.651s-6.39-12.314-21.41-33.048
			c-15.02-20.734-23.638-12.791-23.638-12.791"/>
	</g>
	<g>
		<g>
			<path fill="#E0E0E0" d="M163.498,498.92c-10.971-15.271-30.015-42.74-46.487-66.239c-16.467-23.491-31.395-44.745-42.288-60.071
				c-5.445-7.644-9.855-13.835-12.919-18.136c-1.514-2.128-2.694-3.787-3.51-4.934c-0.387-0.554-0.686-0.983-0.902-1.291
				c-0.201-0.293-0.293-0.451-0.293-0.451s0.121,0.137,0.336,0.419c0.225,0.301,0.539,0.72,0.944,1.26
				c0.834,1.133,2.041,2.773,3.59,4.876c3.113,4.238,7.573,10.402,13.056,18.039c10.971,15.271,25.949,36.493,42.416,59.984
				c16.472,23.499,35.466,51,46.359,66.325"/>
		</g>
	</g>
	<g>
		<g>
			<path fill="#E0E0E0" d="M69.666,400.626c0.008-0.036,0.442,0.025,1.22,0.165c0.779,0.137,1.899,0.368,3.281,0.666
				c2.762,0.602,6.556,1.531,10.723,2.631c4.106,1.1,7.818,2.095,10.659,2.857c1.282,0.335,2.364,0.618,3.233,0.845
				c0.764,0.196,1.184,0.322,1.177,0.357c-0.007,0.036-0.441-0.022-1.221-0.156c-0.779-0.139-1.9-0.37-3.279-0.683
				c-2.757-0.63-6.537-1.608-10.704-2.708c-4.112-1.07-7.83-2.038-10.675-2.779c-1.285-0.329-2.368-0.606-3.24-0.829
				C70.077,400.79,69.658,400.662,69.666,400.626z"/>
		</g>
	</g>
	<g>
		<g>
			
				<ellipse transform="matrix(-0.2092 0.9779 -0.9779 -0.2092 507.3353 368.3561)" fill="#E0E0E0" cx="104.728" cy="389.311" rx="17.999" ry="0.264"/>
		</g>
	</g>
	<g>
		<g>
			<path fill="#E0E0E0" d="M124.627,444.133c-0.031-0.018,0.163-0.422,0.541-1.134c0.434-0.806,0.976-1.811,1.619-3.005
				c1.363-2.539,3.231-6.053,5.15-10.006c1.928-3.95,3.549-7.586,4.701-10.227c0.544-1.243,1.001-2.289,1.368-3.128
				c0.327-0.737,0.524-1.139,0.558-1.125c0.034,0.013-0.098,0.44-0.367,1.202c-0.269,0.761-0.678,1.855-1.214,3.195
				c-1.066,2.682-2.637,6.353-4.571,10.314c-1.924,3.965-3.85,7.461-5.299,9.958c-0.73,1.245-1.331,2.247-1.768,2.926
				C124.912,443.783,124.658,444.151,124.627,444.133z"/>
		</g>
	</g>
	<g>
		<g>
			<path fill="#E0E0E0" d="M95.068,444.677c-0.001-0.036,0.409-0.084,1.153-0.139c0.857-0.05,1.91-0.11,3.152-0.182
				c2.662-0.131,6.34-0.275,10.403-0.402c4.065-0.127,7.745-0.213,10.41-0.248c1.244-0.006,2.298-0.011,3.157-0.015
				c0.746,0.008,1.159,0.03,1.16,0.067c0.001,0.036-0.41,0.084-1.153,0.139c-0.857,0.049-1.91,0.11-3.151,0.182
				c-2.662,0.131-6.34,0.275-10.405,0.402c-4.063,0.127-7.743,0.212-10.408,0.248c-1.244,0.006-2.298,0.011-3.157,0.014
				C95.482,444.736,95.069,444.714,95.068,444.677z"/>
		</g>
	</g>
	<g>
		<g>
			<path fill="#E0E0E0" d="M111.785,480.191c-0.002-0.036,0.525-0.093,1.478-0.163c1.052-0.065,2.409-0.148,4.038-0.249
				c3.41-0.187,8.123-0.409,13.329-0.621c5.208-0.213,9.924-0.375,13.338-0.467c1.632-0.033,2.991-0.06,4.044-0.081
				c0.955-0.007,1.484,0.006,1.486,0.042c0.001,0.036-0.525,0.093-1.477,0.163c-1.052,0.065-2.409,0.148-4.038,0.249
				c-3.41,0.187-8.123,0.409-13.332,0.621c-5.206,0.213-9.921,0.375-13.336,0.467c-1.631,0.033-2.99,0.06-4.044,0.081
				C112.315,480.24,111.786,480.227,111.785,480.191z"/>
		</g>
	</g>
	<g>
		<g>
			<path fill="#E0E0E0" d="M148.585,478.435c-0.032-0.017,0.2-0.534,0.649-1.454c0.494-1.002,1.139-2.309,1.916-3.885
				c1.613-3.281,3.825-7.822,6.124-12.903c2.308-5.079,4.275-9.731,5.676-13.109c0.674-1.622,1.234-2.968,1.662-4
				c0.396-0.943,0.632-1.459,0.666-1.446c0.034,0.013-0.136,0.553-0.474,1.52c-0.338,0.966-0.848,2.357-1.508,4.065
				c-1.313,3.417-3.23,8.1-5.542,13.188c-2.303,5.09-4.572,9.613-6.272,12.854c-0.855,1.619-1.559,2.921-2.066,3.811
				C148.912,477.967,148.617,478.452,148.585,478.435z"/>
		</g>
	</g>
</g>
<g opacity="0.5">
	<g>
		<path fill="#EBEBEB" d="M211.371,420.665c0,0,4.409,2.385-2.01,11.593c-6.419,9.208-10.596,13.629-10.596,13.629
			s-1.213,2.176,0.673,2.8c1.886,0.624,6.242,0.532,6.778,3.019c0.556,2.58-1.548,4.651-5.446,6.185
			c-3.898,1.534-12.315,5.209-13.075,5.544c-0.746,0.329-1.583,1.304-0.366,1.935s10.665,2.953,9.295,7.371
			c-1.37,4.418-12.932,6.907-14.19,7.203c-1.259,0.296-1.614,0.764-1.607,1.433c0.007,0.669,3.256,1.151,5.917,1.921
			c2.66,0.771,5.61,2.13,4.606,4.613c-1.004,2.482-8.27,6.987-24.319,6.356l-7.417-0.779l-3.159-6.793
			c-5.874-14.949-4.009-23.292-1.995-25.057c2.014-1.765,4.268,0.574,5.871,2.833c1.603,2.259,3.126,5.17,3.76,4.956
			c0.634-0.213,0.959-0.703,0.825-1.989c-0.134-1.286-1.585-13.023,2.136-15.77c3.721-2.747,9.021,5.413,10.018,6.354
			c0.996,0.942,1.642-0.169,1.707-0.982c0.067-0.828,0.769-9.985,0.935-14.171c0.167-4.186,1.431-6.854,4.05-7.177
			c2.525-0.312,3.871,3.832,5.08,5.408c1.21,1.576,2.865-0.285,2.865-0.285s2.801-5.398,9.386-14.488
			c6.585-9.09,10.363-5.607,10.363-5.607"/>
	</g>
	<g>
		<g>
			<path fill="#E0E0E0" d="M158.992,495.173c4.81-6.695,13.159-18.738,20.38-29.039c7.219-10.298,13.764-19.616,18.539-26.335
				c2.387-3.351,4.321-6.065,5.664-7.951c0.664-0.933,1.181-1.66,1.539-2.163c0.17-0.243,0.301-0.431,0.395-0.566
				c0.088-0.128,0.128-0.198,0.128-0.198s-0.053,0.06-0.147,0.184c-0.099,0.132-0.236,0.316-0.414,0.552
				c-0.366,0.497-0.895,1.216-1.574,2.138c-1.365,1.858-3.32,4.56-5.724,7.908c-4.81,6.695-11.376,15.999-18.595,26.297
				c-7.222,10.302-15.549,22.359-20.324,29.077"/>
		</g>
	</g>
	<g>
		<g>
			<path fill="#E0E0E0" d="M200.128,452.081c-0.003-0.016-0.194,0.011-0.535,0.072c-0.342,0.06-0.833,0.161-1.438,0.292
				c-1.211,0.264-2.874,0.671-4.701,1.154c-1.8,0.482-3.428,0.919-4.673,1.252c-0.562,0.147-1.036,0.271-1.418,0.37
				c-0.335,0.086-0.519,0.141-0.516,0.157c0.003,0.016,0.193-0.009,0.535-0.068c0.341-0.061,0.833-0.162,1.438-0.3
				c1.209-0.276,2.866-0.705,4.692-1.187c1.803-0.469,3.433-0.894,4.68-1.218c0.563-0.144,1.038-0.266,1.42-0.363
				C199.948,452.153,200.132,452.096,200.128,452.081z"/>
		</g>
	</g>
	<g>
		<g>
			
				<ellipse transform="matrix(0.2092 0.9779 -0.9779 0.2092 583.3245 172.9025)" fill="#E0E0E0" cx="184.757" cy="447.12" rx="7.891" ry="0.116"/>
		</g>
	</g>
	<g>
		<g>
			<path fill="#E0E0E0" d="M176.033,471.154c0.014-0.008-0.071-0.185-0.237-0.497c-0.19-0.353-0.428-0.794-0.71-1.318
				c-0.598-1.113-1.416-2.654-2.258-4.387c-0.845-1.732-1.556-3.326-2.061-4.483c-0.238-0.545-0.439-1.004-0.6-1.371
				c-0.144-0.323-0.23-0.499-0.245-0.493c-0.015,0.006,0.043,0.193,0.161,0.527c0.118,0.334,0.297,0.813,0.532,1.401
				c0.467,1.176,1.156,2.785,2.004,4.522c0.844,1.738,1.688,3.271,2.323,4.365c0.32,0.546,0.584,0.985,0.775,1.283
				C175.908,471.001,176.019,471.162,176.033,471.154z"/>
		</g>
	</g>
	<g>
		<g>
			<path fill="#E0E0E0" d="M188.992,471.393c0.001-0.016-0.18-0.037-0.506-0.061c-0.376-0.022-0.837-0.048-1.382-0.08
				c-1.167-0.057-2.779-0.121-4.561-0.176c-1.782-0.056-3.396-0.093-4.564-0.109c-0.545-0.003-1.007-0.005-1.384-0.006
				c-0.327,0.004-0.508,0.013-0.508,0.029c0,0.016,0.18,0.037,0.506,0.061c0.376,0.022,0.837,0.048,1.382,0.08
				c1.167,0.057,2.78,0.121,4.562,0.176c1.781,0.056,3.395,0.093,4.563,0.109c0.545,0.003,1.008,0.005,1.384,0.006
				C188.811,471.419,188.992,471.409,188.992,471.393z"/>
		</g>
	</g>
	<g>
		<g>
			<path fill="#E0E0E0" d="M181.663,486.962c0.001-0.016-0.23-0.041-0.648-0.072c-0.461-0.028-1.056-0.065-1.77-0.109
				c-1.495-0.082-3.561-0.179-5.844-0.272c-2.283-0.093-4.351-0.164-5.847-0.205c-0.715-0.014-1.311-0.026-1.773-0.036
				c-0.419-0.003-0.651,0.003-0.651,0.019c-0.001,0.016,0.23,0.041,0.648,0.071c0.461,0.028,1.056,0.065,1.77,0.109
				c1.495,0.082,3.561,0.179,5.845,0.272c2.282,0.093,4.35,0.165,5.847,0.205c0.715,0.014,1.311,0.026,1.773,0.035
				C181.431,486.984,181.663,486.978,181.663,486.962z"/>
		</g>
	</g>
	<g>
		<g>
			<path fill="#E0E0E0" d="M165.53,486.192c0.014-0.008-0.088-0.234-0.284-0.637c-0.217-0.439-0.499-1.012-0.84-1.703
				c-0.707-1.439-1.677-3.429-2.685-5.657c-1.012-2.227-1.874-4.266-2.488-5.747c-0.296-0.711-0.541-1.301-0.729-1.754
				c-0.174-0.414-0.277-0.64-0.292-0.634c-0.015,0.006,0.06,0.243,0.208,0.666c0.148,0.424,0.372,1.033,0.661,1.782
				c0.576,1.498,1.416,3.551,2.43,5.782c1.01,2.231,2.004,4.214,2.75,5.635c0.375,0.71,0.684,1.281,0.906,1.671
				C165.387,485.987,165.516,486.2,165.53,486.192z"/>
		</g>
	</g>
</g>
<g>
	<g>
		<g>
			<g>
				<rect x="120.932" y="23.227" fill="#FAFBFB" width="352.346" height="231.109"/>
			</g>
		</g>
		<g>
			<g>
				<g>
					<path fill="#263238" d="M473.278,254.336c-0.003-2.225-0.106-90.153-0.273-231.109l0.273,0.273
						c-96.692,0.019-219.311,0.044-352.318,0.07h-0.028l0.343-0.343c-0.01,82.189-0.02,160.404-0.028,231.109l-0.315-0.315
						C328.249,254.206,470.455,254.334,473.278,254.336c-2.822,0.003-145.029,0.13-352.346,0.315l-0.315,0v-0.316
						c-0.009-70.705-0.018-148.92-0.028-231.109v-0.343h0.343h0.028c133.007,0.027,255.626,0.051,352.318,0.07h0.273l0,0.273
						C473.385,164.183,473.281,252.113,473.278,254.336z"/>
				</g>
			</g>
		</g>
	</g>
	<g>
		<g>
			<g>
				<g>
					<path fill="#455B65" d="M228.614,150.851l34.656,0.478c-0.265,18.469-15.826,33.521-34.656,33.521
						c-0.068,0-0.135,0-0.203-0.001L228.614,150.851z"/>
				</g>
			</g>
			<g>
				<g>
					<g>
						<path fill="#263238" d="M285.918,197.776c0,0.021-0.256,0.041-0.741,0.06c-0.548,0.014-1.251,0.033-2.119,0.055
							c-1.91,0.022-4.542,0.053-7.743,0.09l-0.098,0.001l-0.063-0.079c-3.092-3.895-7.081-8.922-11.433-14.404
							c-3.38-4.31-6.54-8.339-9.216-11.752l0.178,0.086c-4.173-0.039-7.667-0.071-10.199-0.095
							c-1.177-0.026-2.128-0.047-2.853-0.063c-0.658-0.022-1.009-0.046-1.009-0.07s0.351-0.047,1.009-0.07
							c0.724-0.016,1.676-0.037,2.853-0.063c2.532-0.023,6.026-0.056,10.199-0.095l0.109-0.001l0.07,0.088
							c2.694,3.399,5.874,7.413,9.276,11.705c4.315,5.511,8.271,10.563,11.337,14.479l-0.161-0.078
							c3.201,0.037,5.832,0.067,7.743,0.09c0.868,0.023,1.571,0.041,2.119,0.055C285.662,197.735,285.918,197.755,285.918,197.776z"
							/>
					</g>
				</g>
			</g>
			<g>
				<g>
					<g>
						<ellipse fill="#263238" cx="287.137" cy="201.772" rx="11.213" ry="0.265"/>
					</g>
				</g>
			</g>
			<g>
				<g>
					<g>
						<ellipse fill="#263238" cx="287.137" cy="205.924" rx="11.213" ry="0.266"/>
					</g>
				</g>
			</g>
		</g>
		<g>
			<g>
				<g>
					<path fill="#E7515B" d="M223.133,145.919l-0.487,33.995c-18.828-0.259-34.173-15.524-34.173-33.995
						c0-18.651,15.646-33.999,34.66-33.999c19.014,0,34.66,15.348,34.66,33.999H223.133z"/>
				</g>
			</g>
			<g>
				<g>
					<g>
						<path fill="#263238" d="M209.601,134.801c0.003,0.022-0.206,0.07-0.602,0.141c-0.471,0.075-1.041,0.166-1.724,0.276
							c-1.591,0.223-3.705,0.52-6.226,0.873l-0.102,0.014l-0.077-0.075c-2.369-2.305-5.224-5.082-8.304-8.078
							c-3.989-3.913-7.579-7.476-10.159-10.074c-1.231-1.255-2.252-2.297-3.036-3.096c-0.709-0.74-1.088-1.161-1.062-1.187
							c0.026-0.026,0.454,0.345,1.207,1.039c0.814,0.768,1.875,1.769,3.154,2.976c2.647,2.529,6.279,6.05,10.268,9.963
							c3.055,3.022,5.887,5.823,8.237,8.147l-0.179-0.061c2.53-0.279,4.652-0.513,6.249-0.689c0.689-0.063,1.264-0.115,1.739-0.158
							C209.384,134.783,209.598,134.778,209.601,134.801z"/>
					</g>
				</g>
			</g>
			<g>
				<g>
					<g>
						<ellipse fill="#263238" cx="158.317" cy="112.098" rx="11.213" ry="0.265"/>
					</g>
				</g>
			</g>
			<g>
				<g>
					<g>
						<ellipse fill="#263238" cx="158.317" cy="116.25" rx="11.213" ry="0.266"/>
					</g>
				</g>
			</g>
		</g>
	</g>
	<g>
		<g>
			<g>
				<g>
					<g>
						<path fill="#E7515B" d="M344.38,78.754l-0.138-21.126c-6.222,0.036-12.565,2.496-17.429,6.795
							c-5.73,5.064-9.399,12.678-8.399,21.88c0.109,1.005,0.269,2.028,0.493,3.069c0.005,0.025,0.009,0.049,0.014,0.074l0.003-0.001
							l25.456-5.728V78.754z"/>
					</g>
				</g>
				<g opacity="0.3">
					<g>
						<path fill="#FFFFFF" d="M344.38,78.754l-0.138-21.126c-6.222,0.036-12.565,2.496-17.429,6.795
							c-5.73,5.064-9.399,12.678-8.399,21.88c0.109,1.005,0.269,2.028,0.493,3.069c0.005,0.025,0.009,0.049,0.014,0.074l0.003-0.001
							l25.456-5.728V78.754z"/>
					</g>
				</g>
				<g>
					<g>
						<path fill="#E7515B" d="M370.616,72.25c-3.558-7.43-10.566-13.382-20.546-14.383c-0.267-0.027-0.535-0.051-0.806-0.071
							c-0.171-0.012-0.34-0.029-0.513-0.039c-0.504-0.028-1.015-0.042-1.533-0.044c-0.024,0-0.046-0.002-0.07-0.002
							c-0.001,0-0.002,0-0.004,0c-0.022,0-0.042-0.002-0.064-0.002v0.003v0l0.138,21.126l0.032,4.965l25.463,5.556l0.031,0.007v0
							c0.389-1.784,0.575-3.624,0.565-5.478C373.29,79.929,372.37,75.912,370.616,72.25z"/>
					</g>
				</g>
				<g opacity="0.3">
					<g>
						<path d="M370.616,72.25c-3.558-7.43-10.566-13.382-20.546-14.383c-0.267-0.027-0.535-0.051-0.806-0.071
							c-0.171-0.012-0.34-0.029-0.513-0.039c-0.504-0.028-1.015-0.042-1.533-0.044c-0.024,0-0.046-0.002-0.07-0.002
							c-0.001,0-0.002,0-0.004,0c-0.022,0-0.042-0.002-0.064-0.002v0.003v0l0.138,21.126l0.032,4.965l25.463,5.556l0.031,0.007v0
							c0.389-1.784,0.575-3.624,0.565-5.478C373.29,79.929,372.37,75.912,370.616,72.25z"/>
					</g>
				</g>
			</g>
			<g>
				<g>
					<path fill="#E7515B" d="M345.744,86.355l-25.456,5.728c2.612,11.655,13.013,20.366,25.456,20.366
						c12.504,0,22.948-8.797,25.496-20.538l-25.463-5.556"/>
				</g>
			</g>
		</g>
		<g>
			<g>
				<g>
					<path fill="#263238" d="M444.833,82.552c0,0.19-13.161,0.343-29.393,0.343c-16.237,0-29.396-0.154-29.396-0.343
						c0-0.189,13.158-0.343,29.396-0.343C431.671,82.209,444.833,82.363,444.833,82.552z"/>
				</g>
			</g>
		</g>
		<g>
			<g>
				<g>
					<path fill="#263238" d="M444.833,75.851c0,0.19-13.161,0.343-29.393,0.343c-16.237,0-29.396-0.154-29.396-0.343
						c0-0.189,13.158-0.343,29.396-0.343C431.671,75.508,444.833,75.661,444.833,75.851z"/>
				</g>
			</g>
		</g>
		<g>
			<g>
				<g>
					<path fill="#263238" d="M444.833,69.15c0,0.19-13.161,0.343-29.393,0.343c-16.237,0-29.396-0.154-29.396-0.343
						c0-0.189,13.158-0.343,29.396-0.343C431.671,68.807,444.833,68.96,444.833,69.15z"/>
				</g>
			</g>
		</g>
		<g>
			<g>
				<g>
					<path fill="#263238" d="M444.833,88.786c0,0.19-13.161,0.343-29.393,0.343c-16.237,0-29.396-0.154-29.396-0.343
						c0-0.189,13.158-0.343,29.396-0.343C431.671,88.443,444.833,88.597,444.833,88.786z"/>
				</g>
			</g>
		</g>
		<g>
			<g>
				<g>
					<ellipse fill="#263238" cx="406.44" cy="95.571" rx="20.189" ry="0.343"/>
				</g>
			</g>
		</g>
	</g>
	<g>
		<g>
			<g>
				<g>
					<rect x="324.392" y="144.077" fill="#E7515B" width="6.055" height="67.626"/>
				</g>
			</g>
		</g>
		<g>
			<g>
				<g>
					<rect x="336.082" y="167.046" fill="#E7515B" width="6.056" height="44.658"/>
				</g>
			</g>
		</g>
		<g>
			<g>
				<g>
					<rect x="347.772" y="152.483" fill="#E7515B" width="6.055" height="59.564"/>
				</g>
			</g>
		</g>
		<g>
			<g>
				<g>
					<rect x="359.463" y="146.689" fill="#E7515B" width="6.055" height="65.015"/>
				</g>
			</g>
		</g>
		<g>
			<g>
				<g>
					<rect x="371.153" y="168.421" fill="#E7515B" width="6.056" height="43.283"/>
				</g>
			</g>
		</g>
		<g>
			<g>
				<g>
					<rect x="382.843" y="176.909" fill="#E7515B" width="6.055" height="34.794"/>
				</g>
			</g>
		</g>
		<g>
			<g>
				<g>
					<rect x="394.534" y="151.018" fill="#E7515B" width="6.056" height="60.685"/>
				</g>
			</g>
		</g>
		<g>
			<g>
				<g>
					<rect x="406.224" y="161.959" fill="#E7515B" width="6.055" height="49.744"/>
				</g>
			</g>
		</g>
		<g>
			<g>
				<g>
					<rect x="417.914" y="153.217" fill="#E7515B" width="6.056" height="58.487"/>
				</g>
			</g>
		</g>
		<g>
			<g>
				<g>
					<rect x="429.605" y="171.857" fill="#E7515B" width="6.055" height="39.846"/>
				</g>
			</g>
		</g>
		<g>
			<g>
				<g>
					<rect x="441.295" y="164.275" fill="#E7515B" width="6.055" height="47.428"/>
				</g>
			</g>
		</g>
		<g>
			<g>
				<g>
					<g>
						<path fill="#263238" d="M449.822,216.414c0,0.137-28.723,0.249-64.146,0.249c-35.435,0-64.152-0.111-64.152-0.249
							c0-0.137,28.717-0.249,64.152-0.249C421.1,216.165,449.822,216.276,449.822,216.414z"/>
					</g>
				</g>
			</g>
		</g>
		<g>
			<g>
				<g>
					<g>
						<ellipse fill="#263238" cx="328.535" cy="221.737" rx="4.494" ry="0.249"/>
					</g>
				</g>
			</g>
		</g>
		<g>
			<g>
				<g>
					<g>
						<ellipse fill="#263238" cx="342.564" cy="222.008" rx="5.371" ry="0.249"/>
					</g>
				</g>
			</g>
		</g>
		<g>
			<g>
				<g>
					<g>
						<ellipse fill="#263238" cx="355.278" cy="222.008" rx="5.37" ry="0.249"/>
					</g>
				</g>
			</g>
		</g>
		<g>
			<g>
				<g>
					<g>
						<ellipse fill="#263238" cx="367.992" cy="222.008" rx="5.37" ry="0.249"/>
					</g>
				</g>
			</g>
		</g>
		<g>
			<g>
				<g>
					<g>
						<ellipse fill="#263238" cx="380.706" cy="222.008" rx="5.37" ry="0.249"/>
					</g>
				</g>
			</g>
		</g>
		<g>
			<g>
				<g>
					<g>
						<ellipse fill="#263238" cx="393.42" cy="222.008" rx="5.37" ry="0.249"/>
					</g>
				</g>
			</g>
		</g>
		<g>
			<g>
				<g>
					<g>
						<ellipse fill="#263238" cx="406.134" cy="222.008" rx="5.37" ry="0.249"/>
					</g>
				</g>
			</g>
		</g>
		<g>
			<g>
				<g>
					<g>
						<ellipse fill="#263238" cx="418.847" cy="222.008" rx="5.371" ry="0.249"/>
					</g>
				</g>
			</g>
		</g>
		<g>
			<g>
				<g>
					<g>
						<ellipse fill="#263238" cx="431.561" cy="222.008" rx="5.371" ry="0.249"/>
					</g>
				</g>
			</g>
		</g>
		<g>
			<g>
				<g>
					<g>
						<ellipse fill="#263238" cx="444.275" cy="222.008" rx="5.371" ry="0.249"/>
					</g>
				</g>
			</g>
		</g>
		<g opacity="0.3">
			<g>
				<g>
					<rect x="336.082" y="167.046" fill="#FFFFFF" width="6.056" height="44.658"/>
				</g>
			</g>
		</g>
		<g opacity="0.3">
			<g>
				<g>
					<rect x="359.463" y="146.689" fill="#FFFFFF" width="6.055" height="65.015"/>
				</g>
			</g>
		</g>
		<g opacity="0.3">
			<g>
				<g>
					<rect x="382.843" y="176.909" fill="#FFFFFF" width="6.055" height="34.794"/>
				</g>
			</g>
		</g>
		<g opacity="0.3">
			<g>
				<g>
					<rect x="406.224" y="161.959" fill="#FFFFFF" width="6.055" height="49.744"/>
				</g>
			</g>
		</g>
		<g opacity="0.3">
			<g>
				<g>
					<rect x="429.605" y="171.857" fill="#FFFFFF" width="6.055" height="39.846"/>
				</g>
			</g>
		</g>
	</g>
	<g>
		<g>
			<circle fill="#E7515B" cx="157.912" cy="66.665" r="5.828"/>
		</g>
	</g>
	<g>
		<g>
			<g>
				<path fill="#E7515B" d="M263.949,62.068c0,0.19-19.653,0.343-43.89,0.343c-24.246,0-43.894-0.154-43.894-0.343
					c0-0.189,19.648-0.343,43.894-0.343C244.296,61.725,263.949,61.879,263.949,62.068z"/>
			</g>
		</g>
	</g>
	<g>
		<g>
			<g>
				<path fill="#E7515B" d="M211.407,69.117c0,0.047-0.484,0.093-1.36,0.134c-0.875,0.041-2.142,0.078-3.708,0.109
					c-3.131,0.062-7.456,0.101-12.232,0.101c-4.778,0-9.104-0.038-12.234-0.101c-1.565-0.031-2.832-0.068-3.707-0.109
					c-0.875-0.041-1.359-0.086-1.359-0.134c0-0.047,0.484-0.093,1.359-0.134c0.875-0.041,2.142-0.078,3.707-0.109
					c3.131-0.062,7.456-0.101,12.234-0.101c4.777,0,9.101,0.038,12.232,0.101c1.565,0.031,2.832,0.068,3.708,0.109
					C210.923,69.024,211.407,69.069,211.407,69.117z"/>
			</g>
		</g>
	</g>
</g>
<g>
	<g>
		<g>
			<g>
				<g>
					<g>
						<g>
							<g>
								<rect x="275.68" y="347.684" fill="#263238" width="78.535" height="3.82"/>
							</g>
						</g>
					</g>
				</g>
				<g>
					<g>
						<g>
							<g>
								<polygon fill="#263238" points="263.508,351.504 248.777,296.301 310.099,296.301 323.438,351.504 								"/>
							</g>
						</g>
					</g>
				</g>
			</g>
			<g>
				<g>
					<g>
						<g>
							<polygon fill="#F5F5F5" points="319.763,347.325 264.982,347.325 252.231,298.852 307.295,298.852 							"/>
						</g>
					</g>
				</g>
			</g>
		</g>
		<g>
			<g>
				<g>
					<path fill="#EBEBEB" d="M253.147,302.336c18.55,0,36.523,0,55.074,0l-0.926-3.484h-55.064L253.147,302.336z"/>
				</g>
			</g>
		</g>
		<g>
			<g>
				<g>
					<g>
						<circle fill="#FAFBFB" cx="259.696" cy="300.594" r="0.602"/>
					</g>
				</g>
			</g>
			<g>
				<g>
					<g>
						<circle fill="#FAFBFB" cx="257.624" cy="300.594" r="0.602"/>
					</g>
				</g>
			</g>
			<g>
				<g>
					<g>
						<circle fill="#FAFBFB" cx="255.552" cy="300.594" r="0.602"/>
					</g>
				</g>
			</g>
		</g>
	</g>
	<g>
		<g>
			<g>
				<path fill="#E7515B" d="M294.535,323.576l6.031,6.9c2.347-1.675,3.714-4.237,3.703-6.938c-0.019-4.825-4.429-8.778-9.769-8.757
					c-5.34,0.021-9.718,4.009-9.699,8.834L294.535,323.576z"/>
			</g>
		</g>
		<g>
			<g>
				<g>
					<path fill="#263238" d="M293.769,324.681c0.025-0.056,0.642,0.57,1.72,1.725c1.077,1.155,2.617,2.842,4.458,4.903l0.209,0.233
						l-0.259,0.194c-2.443,1.835-6.513,2.611-10.167,0.998c-1.739-0.733-3.18-1.961-4.183-3.364
						c-0.993-1.422-1.494-3.039-1.551-4.529l-0.012-0.306l0.302-0.002c2.886-0.015,5.276-0.003,6.931,0.023
						C292.872,324.584,293.795,324.624,293.769,324.681c-0.026,0.057-0.995,0.126-2.655,0.204c-1.661,0.078-4.011,0.164-6.82,0.237
						l0.29-0.308c0.084,1.38,0.568,2.863,1.502,4.174c0.945,1.293,2.29,2.431,3.917,3.116c3.415,1.508,7.23,0.825,9.558-0.842
						l-0.05,0.427c-1.747-2.045-3.188-3.768-4.193-4.996C294.313,325.468,293.745,324.737,293.769,324.681z"/>
				</g>
			</g>
		</g>
		<g>
			<g>
				<circle fill="#263238" cx="290.376" cy="318.368" r="0.546"/>
			</g>
		</g>
		<g>
			<g>
				<g>
					<path fill="#263238" d="M278.981,314.419c-0.001-0.19,2.916-0.355,6.515-0.369c0.297,0,0.588,0,0.869,0h0.143l0.098,0.099
						c2.251,2.265,3.892,4.096,3.77,4.219c-0.122,0.123-1.966-1.503-4.249-3.736l0.241,0.099c-0.281,0.002-0.572,0.004-0.869,0.007
						C281.9,314.75,278.982,314.608,278.981,314.419z"/>
				</g>
			</g>
		</g>
		<g>
			<g>
				<g>
					<path fill="#263238" d="M266.649,321.324c-0.036,0.044-0.254-0.868-0.624-2.544c-0.369-1.674-0.892-4.12-1.491-7.115
						l-0.066-0.329l0.339-0.003c3.878-0.033,8.565-0.074,13.629-0.118c-0.073-0.061,0.642,0.529,0.34,0.281l0,0.003l0.001,0.005
						l0.002,0.01l0.004,0.02l0.008,0.041l0.015,0.081l0.031,0.163l0.062,0.325l0.122,0.646c0.081,0.429,0.161,0.855,0.241,1.278
						c0.158,0.845,0.313,1.676,0.466,2.49c0.299,1.624,0.587,3.181,0.858,4.652l0.068,0.37l-0.373-0.001
						c-4.094-0.011-7.539-0.06-9.931-0.109c-1.096-0.029-2.013-0.053-2.765-0.073C266.954,321.374,266.627,321.35,266.649,321.324
						c0.022-0.027,0.391-0.054,1.055-0.083c0.769-0.026,1.706-0.058,2.826-0.095c2.407-0.067,5.777-0.144,9.749-0.186l-0.304,0.369
						c-0.286-1.469-0.589-3.023-0.904-4.644c-0.156-0.814-0.316-1.644-0.478-2.488c-0.081-0.423-0.162-0.849-0.244-1.278
						l-0.123-0.646l-0.062-0.325l-0.031-0.163l-0.015-0.081l-0.008-0.041l-0.004-0.02l-0.002-0.01l-0.001-0.005l-0.001-0.003
						c-0.303-0.251,0.412,0.338,0.337,0.278c-5.064-0.004-9.752-0.007-13.63-0.01l0.273-0.331c0.517,2.897,0.915,5.306,1.187,7.015
						C266.54,320.282,266.685,321.279,266.649,321.324z"/>
				</g>
			</g>
		</g>
		<g>
			<g>
				<g>
					<circle fill="#263238" cx="289.565" cy="329.342" r="0.546"/>
				</g>
			</g>
			<g>
				<g>
					<g>
						
							<ellipse transform="matrix(-1 0.0039 -0.0039 -1 570.524 657.6002)" fill="#263238" cx="284.614" cy="329.362" rx="4.951" ry="0.343"/>
					</g>
				</g>
			</g>
		</g>
		<g>
			<g>
				<g>
					<path fill="#263238" d="M266.698,333.683c-0.031,0.041-0.238-0.605-0.599-1.821c-0.359-1.215-0.875-3.009-1.482-5.246
						l-0.086-0.316l0.335-0.006c3.711-0.068,8.649-0.119,14.054-0.141c-0.297-0.231,0.408,0.314,0.335,0.259l0.001,0.002
						l0.001,0.004l0.002,0.007l0.004,0.015l0.008,0.029l0.015,0.059l0.03,0.118l0.06,0.235l0.12,0.468l0.237,0.928
						c0.156,0.615,0.311,1.222,0.463,1.819c0.3,1.192,0.591,2.346,0.87,3.452l0.102,0.403l-0.413-0.001
						c-4.169-0.007-7.722-0.055-10.202-0.106c-1.133-0.031-2.087-0.057-2.875-0.078C267.018,333.74,266.675,333.713,266.698,333.683
						c0.023-0.029,0.409-0.059,1.101-0.091c0.805-0.028,1.779-0.061,2.936-0.101c2.493-0.07,5.968-0.146,10.017-0.186l-0.311,0.402
						c-0.288-1.103-0.589-2.255-0.9-3.444c-0.154-0.597-0.311-1.203-0.47-1.817l-0.239-0.928l-0.12-0.468l-0.06-0.235l-0.03-0.118
						l-0.015-0.059l-0.008-0.029l-0.004-0.015l-0.002-0.007l-0.001-0.004l-0.001-0.002c-0.073-0.057,0.632,0.487,0.333,0.257
						c-5.406,0.021-10.344,0.009-14.055-0.03l0.249-0.322c0.521,2.156,0.921,3.928,1.195,5.18
						C266.584,332.919,266.729,333.643,266.698,333.683z"/>
				</g>
			</g>
		</g>
		<g>
			<g>
				<g>
					
						<ellipse transform="matrix(-1 0.0039 -0.0039 -1 546.0215 628.0641)" fill="#263238" cx="272.392" cy="314.57" rx="4.663" ry="0.343"/>
				</g>
			</g>
		</g>
		<g>
			<g>
				<g>
					
						<ellipse transform="matrix(-1 0.0039 -0.0039 -1 546.3138 631.115)" fill="#263238" cx="272.534" cy="316.097" rx="4.69" ry="0.343"/>
				</g>
			</g>
		</g>
		<g>
			<g>
				<g>
					
						<ellipse transform="matrix(-1 0.0039 -0.0039 -1 546.5485 634.0596)" fill="#263238" cx="272.649" cy="317.569" rx="4.526" ry="0.343"/>
				</g>
			</g>
		</g>
		<g>
			<g>
				<g>
					
						<ellipse transform="matrix(-1 0.0039 -0.0039 -1 546.1953 657.4035)" fill="#263238" cx="272.449" cy="329.24" rx="4.445" ry="0.343"/>
				</g>
			</g>
		</g>
		<g>
			<g>
				<g>
					
						<ellipse transform="matrix(-1 0.0039 -0.0039 -1 545.9981 660.785)" fill="#263238" cx="272.347" cy="330.931" rx="3.79" ry="0.343"/>
				</g>
			</g>
		</g>
	</g>
</g>
<g>
	<g>
		<polygon fill="#383F42" points="182.674,351.323 182.674,358.563 187.414,358.563 187.414,505.141 197.142,505.141 
			197.142,358.563 248.772,358.563 248.772,505.141 258.5,505.141 258.5,358.563 482.472,358.563 482.472,505.106 492.2,505.106 
			492.2,358.563 496.411,358.563 496.411,351.323 		"/>
	</g>
</g>
<g>
	<g>
		<g>
			<g>
				<ellipse fill="#263238" cx="399.931" cy="405.941" rx="6.326" ry="0.266"/>
			</g>
		</g>
	</g>
</g>
<g>
	<g>
		<g>
			<ellipse fill="#455B65" cx="301.468" cy="407.267" rx="0.343" ry="0.168"/>
		</g>
	</g>
</g>
<g>
	<g>
		<g>
			<g>
				<path fill="#B78876" d="M363.455,276.968l-36.336-36.915l-0.785-3.996c-0.151-0.731-0.303-1.548-0.444-2.475
					c-0.164-1.081-0.14-2.183,0.057-3.252c0.239-1.296,0.625-3.004,1.12-3.869c0.612-1.069-0.368-2.358-1.38-1.917
					c-1.011,0.442-2.769,3.345-3.148,7.332c-0.378,3.987-3.781-1.303-5.055-3.208c-1.273-1.906-5.481-7.614-6.359-7.682
					c-1.287-0.1-1.615,1.295-0.301,3.168c1.331,1.896,4.874,7.771,3.866,8.402c0,0-0.013-0.003-0.039-0.007
					c-2.048-0.348-4.07,0.665-5.019,2.49c-0.917,1.762-1.939,4.259-1.102,5.411c1.578,2.171,5.793,6.136,5.793,6.136l1.217,1.046
					c0.002,0.003,31.435,45.55,38.287,47.03c4.261,0.92,70.137,6.385,70.137,6.385l4.969-18.148L363.455,276.968z"/>
			</g>
		</g>
		<g>
			<g>
				<g>
					<path fill="#B78876" d="M308.251,239.684c1.12,1.076,2.241,2.152,3.361,3.228c0.38,0.365,0.774,0.739,1.266,0.929
						c0.492,0.189,1.111,0.149,1.469-0.238c0.324-0.35,0.353-0.898,0.197-1.349c-0.156-0.451-0.468-0.829-0.773-1.196
						c-1.089-1.309-2.178-2.617-3.267-3.926"/>
				</g>
			</g>
			<g>
				<g>
					<g>
						<path fill="#AA6550" d="M310.504,237.133c0.073-0.061,0.704,0.564,1.665,1.622c0.538,0.609,1.09,1.234,1.661,1.882
							c0.298,0.357,0.663,0.725,0.927,1.255c0.257,0.52,0.362,1.26-0.092,1.867c-0.497,0.6-1.281,0.618-1.839,0.422
							c-0.578-0.21-0.975-0.596-1.317-0.927c-0.606-0.617-1.19-1.212-1.76-1.792c-0.987-1.034-1.565-1.708-1.499-1.776
							c0.066-0.068,0.762,0.482,1.835,1.426c0.602,0.545,1.22,1.104,1.86,1.684c0.34,0.312,0.698,0.616,1.099,0.749
							c0.387,0.133,0.871,0.071,1.082-0.211c0.225-0.283,0.212-0.772,0.023-1.153c-0.185-0.401-0.511-0.765-0.805-1.139
							c-0.533-0.68-1.047-1.336-1.548-1.976C310.931,237.927,310.431,237.193,310.504,237.133z"/>
					</g>
				</g>
			</g>
		</g>
		<g>
			<g>
				<g>
					<path fill="#B78876" d="M310.637,237.335c1.12,1.076,2.241,2.152,3.361,3.228c0.38,0.365,0.774,0.739,1.266,0.929
						s1.111,0.149,1.469-0.238c0.324-0.351,0.353-0.898,0.197-1.349c-0.156-0.451-0.468-0.829-0.773-1.196
						c-1.089-1.309-2.178-2.617-3.267-3.926"/>
				</g>
			</g>
			<g>
				<g>
					<g>
						<path fill="#AA6550" d="M312.89,234.783c0.073-0.061,0.704,0.564,1.665,1.622c0.538,0.609,1.09,1.234,1.661,1.882
							c0.298,0.357,0.663,0.725,0.927,1.255c0.257,0.52,0.362,1.26-0.092,1.867c-0.497,0.6-1.281,0.618-1.839,0.422
							c-0.578-0.21-0.975-0.596-1.317-0.927c-0.606-0.617-1.19-1.212-1.76-1.792c-0.987-1.034-1.565-1.708-1.499-1.776
							c0.066-0.068,0.762,0.482,1.836,1.426c0.602,0.545,1.22,1.104,1.86,1.684c0.34,0.312,0.698,0.616,1.099,0.749
							c0.386,0.133,0.871,0.071,1.082-0.211c0.225-0.283,0.212-0.772,0.023-1.153c-0.185-0.401-0.511-0.765-0.806-1.139
							c-0.533-0.68-1.047-1.336-1.548-1.976C313.316,235.577,312.817,234.843,312.89,234.783z"/>
					</g>
				</g>
			</g>
		</g>
		<g>
			<g>
				<g>
					<path fill="#B78876" d="M313.254,235.409c1.12,1.076,2.241,2.152,3.361,3.228c0.38,0.365,0.774,0.739,1.266,0.929
						s1.111,0.149,1.469-0.238c0.324-0.351,0.353-0.898,0.197-1.349c-0.157-0.451-0.468-0.829-0.774-1.196
						c-1.089-1.309-2.178-2.617-3.267-3.926"/>
				</g>
			</g>
			<g>
				<g>
					<g>
						<path fill="#AA6550" d="M315.507,232.857c0.073-0.061,0.704,0.564,1.665,1.622c0.538,0.609,1.09,1.234,1.661,1.882
							c0.298,0.357,0.663,0.725,0.927,1.255c0.257,0.52,0.362,1.26-0.092,1.867c-0.497,0.6-1.281,0.618-1.839,0.422
							c-0.578-0.21-0.975-0.596-1.317-0.927c-0.606-0.617-1.19-1.212-1.76-1.792c-0.987-1.034-1.565-1.708-1.499-1.776
							c0.066-0.068,0.762,0.482,1.835,1.426c0.602,0.545,1.22,1.104,1.86,1.684c0.34,0.312,0.698,0.616,1.099,0.749
							c0.387,0.133,0.871,0.07,1.082-0.211c0.225-0.283,0.212-0.772,0.023-1.153c-0.185-0.401-0.511-0.765-0.805-1.139
							c-0.533-0.68-1.047-1.336-1.548-1.976C315.934,233.652,315.434,232.918,315.507,232.857z"/>
					</g>
				</g>
			</g>
		</g>
		<g>
			<g>
				<g>
					<path fill="#AA6550" d="M318.567,240.994c-0.009-0.108,0.833-0.277,2.048,0.096l-0.387,0.331
						c-0.158-0.648-0.232-1.463-0.086-2.309c0.191-1.214,0.75-2.209,1.259-2.809c0.518-0.605,0.955-0.843,1.01-0.779
						c0.145,0.131-1.254,1.48-1.591,3.698c-0.131,0.76-0.101,1.485-0.02,2.083l0.071,0.527l-0.459-0.195
						C319.36,241.189,318.562,241.129,318.567,240.994z"/>
				</g>
			</g>
		</g>
	</g>
	<g>
		<g>
			<g>
				<g>
					<path fill="#B78876" d="M411.049,221.627l0.155,50.566l-19.717,0.94l-0.798-12.12c0,0-9.512,1.445-11.499-5.711
						c-1.27-4.571-0.953-39.899-0.953-39.899L411.049,221.627z"/>
				</g>
			</g>
			<g>
				<g>
					<path fill="#263238" d="M373.339,220.39c1.461,3.021,8.419,8.551,8.419,8.551l3.143,8.424c2.731-2.138,6.396-2.015,7.09,2.783
						c0.502,3.467-3.809,4.168-3.809,4.168c2.51,4.27,4.211,7.725,7.865,11.787c3.955,4.396,6.17,4.839,10.459,4.911h4.729
						c0,0,9.677-8.087,7.765-29.385s-21.06-15.084-25.63-20.406C385.926,202.555,368.461,210.303,373.339,220.39z"/>
				</g>
			</g>
		</g>
		<g>
			<g>
				<g>
					<path fill="#455B65" d="M417.925,249.436c0,0-0.842,0.17-2.34-0.106c-1.486-0.266-3.601-1.111-5.65-2.907
						c-2.072-1.778-3.893-4.494-5.71-7.552c-1.842-3.01-3.855-6.522-7.246-8.862c-3.43-2.294-7.462-2.762-10.923-3.47
						c-3.495-0.657-6.664-1.655-8.821-3.357c-2.161-1.68-3.221-3.762-3.534-5.235c-0.323-1.497-0.096-2.338-0.096-2.338
						c0.049-0.003-0.151,0.847,0.2,2.313c0.34,1.444,1.409,3.474,3.548,5.106c2.133,1.651,5.263,2.621,8.751,3.262
						c3.453,0.696,7.52,1.149,11.029,3.491c3.461,2.392,5.476,5.944,7.308,8.959c1.805,3.065,3.593,5.763,5.622,7.536
						c2.007,1.792,4.08,2.653,5.542,2.948c0.733,0.164,1.32,0.181,1.714,0.204C417.715,249.424,417.925,249.436,417.925,249.436z"/>
				</g>
			</g>
		</g>
		<g>
			<g>
				<g>
					<path fill="#455B65" d="M419.042,232.113c0,0-0.353-0.102-1.019-0.309c-0.667-0.197-1.653-0.521-2.968-0.66
						c-1.288-0.133-3.02-0.055-4.567,1.022c-0.751,0.53-1.417,1.359-1.588,2.398c-0.178,1.011,0.063,2.237,0.92,3.017
						c0.42,0.387,1,0.604,1.594,0.632c0.6,0.026,1.208-0.173,1.756-0.48c1.093-0.638,1.977-1.732,2.384-3.043
						c0.887-2.583,0.264-5.951-2.108-8.001c-1.148-1.027-2.648-1.734-4.254-1.896c-1.615-0.171-3.269,0.186-4.901,0.644
						c-1.634,0.459-3.307,0.998-5.072,1.219c-1.758,0.237-3.572,0.247-5.379,0.014c-1.802-0.249-3.571-0.673-5.187-1.437
						c-1.591-0.754-3.072-2.012-3.55-3.743c-0.47-1.686-0.026-3.592,1.206-4.777c1.242-1.208,3.181-1.359,4.632-0.684
						c0.731,0.334,1.369,0.901,1.717,1.616c0.369,0.705,0.458,1.515,0.364,2.268c-0.204,1.516-1.106,2.849-2.308,3.613
						c-1.203,0.775-2.594,1.06-3.895,1.084c-1.311,0.03-2.557-0.213-3.694-0.569c-2.287-0.716-4.103-2.007-5.428-3.347
						c-1.345-1.34-2.208-2.754-2.772-3.955c-0.581-1.202-0.808-2.22-0.981-2.895c-0.118-0.69-0.165-1.053-0.165-1.053
						s0.085,0.358,0.219,1.041c0.19,0.668,0.433,1.675,1.024,2.861c0.575,1.185,1.444,2.578,2.784,3.892
						c1.321,1.315,3.122,2.578,5.378,3.27c1.121,0.345,2.349,0.578,3.632,0.543c1.274-0.029,2.623-0.314,3.776-1.063
						c1.144-0.732,2.004-2.015,2.192-3.453c0.228-1.433-0.515-3.021-1.947-3.624c-1.367-0.634-3.198-0.483-4.345,0.643
						c-1.152,1.106-1.577,2.922-1.128,4.514c0.448,1.624,1.856,2.835,3.409,3.57c1.574,0.745,3.328,1.166,5.104,1.411
						c1.782,0.23,3.573,0.22,5.307-0.012c1.74-0.216,3.39-0.746,5.037-1.207c1.64-0.457,3.329-0.824,4.999-0.645
						c1.665,0.171,3.212,0.905,4.395,1.968c2.448,2.128,3.08,5.606,2.155,8.262c-0.426,1.354-1.349,2.495-2.495,3.155
						c-0.576,0.32-1.222,0.529-1.868,0.499c-0.64-0.033-1.264-0.271-1.716-0.691c-0.917-0.85-1.152-2.135-0.962-3.192
						c0.188-1.091,0.893-1.954,1.671-2.493c1.602-1.097,3.369-1.152,4.667-1.003c1.327,0.158,2.31,0.5,2.973,0.713
						C418.701,231.975,419.042,232.113,419.042,232.113z"/>
				</g>
			</g>
		</g>
	</g>
	<g>
		<g>
			<g>
				<g>
					<g>
						<g>
							<g>
								<g>
									<g>
										<path fill="#E7515B" d="M393.981,492.796l-6.444-8.268l15.411-12.171l9.556,11.997l-0.907,0.816
											c-4.066,3.594-20.928,17.99-24.451,19.373C383.216,506.086,393.981,492.796,393.981,492.796z"/>
									</g>
								</g>
							</g>
						</g>
					</g>
				</g>
				<g opacity="0.4">
					<g>
						<g>
							<g>
								<g>
									<path fill="#FFFFFF" d="M388.901,499.518c0,0-3.544,4.948-2.374,5.252c1.169,0.304,18.756-13.603,25.977-20.415
										l-0.297-0.325l-20.376,16.396C391.832,500.425,389.828,498.847,388.901,499.518z"/>
								</g>
							</g>
						</g>
					</g>
				</g>
				<g>
					<g>
						<g>
							<g>
								<g>
									<g>
										<path fill="#263238" d="M412.442,483.829c0.005,0.006-0.078,0.088-0.242,0.238c-0.217,0.194-0.456,0.407-0.724,0.647
											c-0.735,0.634-1.638,1.414-2.704,2.334c-2.297,1.955-5.507,4.613-9.115,7.471c-3.61,2.858-6.933,5.373-9.363,7.162
											c-1.14,0.827-2.106,1.528-2.892,2.097c-0.296,0.206-0.557,0.389-0.796,0.557c-0.183,0.125-0.282,0.188-0.287,0.181
											c-0.005-0.007,0.084-0.082,0.258-0.22c0.231-0.178,0.484-0.373,0.77-0.593c0.773-0.586,1.724-1.307,2.845-2.157
											c2.402-1.822,5.708-4.357,9.316-7.214c3.606-2.857,6.831-5.493,9.155-7.414c1.085-0.897,2.004-1.657,2.752-2.276
											c0.28-0.228,0.527-0.429,0.753-0.613C412.342,483.892,412.436,483.823,412.442,483.829z"/>
									</g>
								</g>
							</g>
						</g>
					</g>
				</g>
				<g>
					<g>
						<g>
							<g>
								<g>
									<g>
										<path fill="#263238" d="M392.025,500.661c-0.051,0.052-0.624-0.582-1.58-0.923c-0.95-0.358-1.796-0.244-1.802-0.317
											c-0.026-0.055,0.864-0.287,1.884,0.094C391.551,499.884,392.08,500.636,392.025,500.661z"/>
									</g>
								</g>
							</g>
						</g>
					</g>
				</g>
				<g>
					<g>
						<g>
							<g>
								<g>
									<g>
										
											<ellipse transform="matrix(0.944 0.3299 -0.3299 0.944 185.1525 -102.2402)" fill="#263238" cx="393.833" cy="494.442" rx="0.968" ry="0.119"/>
									</g>
								</g>
							</g>
						</g>
					</g>
				</g>
				<g>
					<g>
						<g>
							<g>
								<g>
									<g>
										
											<ellipse transform="matrix(0.998 0.0628 -0.0628 0.998 31.7497 -23.8152)" fill="#263238" cx="394.65" cy="493.064" rx="0.824" ry="0.119"/>
									</g>
								</g>
							</g>
						</g>
					</g>
				</g>
				<g>
					<g>
						<g>
							<g>
								<g>
									<g>
										
											<ellipse transform="matrix(0.7774 -0.629 0.629 0.7774 -221.4987 357.4772)" fill="#263238" cx="394.314" cy="491.684" rx="1.026" ry="0.119"/>
									</g>
								</g>
							</g>
						</g>
					</g>
				</g>
				<g>
					<g>
						<g>
							<g>
								<g>
									<g>
										<path fill="#263238" d="M394.571,489.799c0.054,0.032-0.199,0.519-0.691,0.97c-0.49,0.454-0.996,0.665-1.024,0.609
											c-0.033-0.06,0.398-0.352,0.862-0.784C394.187,490.166,394.514,489.761,394.571,489.799z"/>
									</g>
								</g>
							</g>
						</g>
					</g>
				</g>
				<g>
					<g>
						<g>
							<g>
								<g>
									<g>
										<path fill="#263238" d="M393.162,493.831c0.018,0.02-0.326,0.367-0.995,0.777c-0.334,0.204-0.752,0.417-1.237,0.601
											c-0.247,0.084-0.49,0.192-0.8,0.228c-0.15,0.012-0.331,0.006-0.488-0.114c-0.158-0.116-0.211-0.345-0.163-0.514
											c0.558-1.238,1.927-1.455,2.664-1.244c0.391,0.097,0.671,0.27,0.845,0.405c0.173,0.138,0.247,0.237,0.237,0.247
											c-0.025,0.04-0.375-0.337-1.118-0.488c-0.365-0.073-0.824-0.063-1.28,0.119c-0.431,0.173-0.951,0.538-1.116,1.013
											c-0.065,0.241,0.142,0.377,0.399,0.343c0.246-0.024,0.507-0.127,0.744-0.202c0.476-0.167,0.892-0.359,1.229-0.541
											C392.759,494.098,393.138,493.8,393.162,493.831z"/>
									</g>
								</g>
							</g>
						</g>
					</g>
				</g>
				<g>
					<g>
						<g>
							<g>
								<g>
									<g>
										<path fill="#263238" d="M392.944,494.083c-0.006,0.022-0.352-0.115-0.658-0.597c-0.149-0.238-0.273-0.56-0.301-0.937
											c0.001-0.358-0.013-0.838,0.425-1.156c0.253-0.152,0.571,0.021,0.666,0.216c0.119,0.188,0.159,0.398,0.181,0.575
											c0.048,0.364,0.04,0.695,0.006,0.968c-0.071,0.549-0.224,0.858-0.25,0.849c-0.036-0.011,0.057-0.334,0.082-0.863
											c0.012-0.264,0.002-0.579-0.055-0.922c-0.03-0.317-0.233-0.766-0.517-0.615c-0.267,0.172-0.325,0.618-0.32,0.936
											c0.014,0.337,0.11,0.636,0.229,0.865C392.676,493.865,392.971,494.049,392.944,494.083z"/>
									</g>
								</g>
							</g>
						</g>
					</g>
				</g>
				<g>
					<g>
						<g>
							<g>
								<g>
									<g>
										<path fill="#263238" d="M408.795,479.863c0.024,0.037-0.474,0.307-1.106,0.939c-0.629,0.622-1.364,1.663-1.674,2.987
											c-0.307,1.324-0.108,2.584,0.182,3.419c0.287,0.846,0.615,1.308,0.577,1.331c-0.012,0.008-0.105-0.098-0.246-0.31
											c-0.142-0.212-0.321-0.537-0.489-0.963c-0.339-0.843-0.576-2.15-0.256-3.531c0.322-1.38,1.113-2.447,1.789-3.054
											c0.339-0.308,0.644-0.521,0.864-0.648C408.657,479.905,408.787,479.85,408.795,479.863z"/>
									</g>
								</g>
							</g>
						</g>
					</g>
				</g>
				<g>
					<g>
						<g>
							<g>
								<g>
									<g>
										
											<ellipse transform="matrix(-0.6301 -0.7765 0.7765 -0.6301 288.6327 1093.1808)" fill="#263238" cx="404.672" cy="477.849" rx="4.035" ry="0.119"/>
									</g>
								</g>
							</g>
						</g>
					</g>
				</g>
				<g>
					<g>
						<g>
							<g>
								<g>
									<g>
										<path fill="#263238" d="M403.695,488.677c0.045,0.043-0.829,1.001-2.072,2.001c-1.241,1.004-2.363,1.654-2.396,1.601
											c-0.038-0.058,1.017-0.792,2.246-1.786C402.705,489.503,403.646,488.628,403.695,488.677z"/>
									</g>
								</g>
							</g>
						</g>
					</g>
				</g>
				<g>
					<g>
						<g>
							<g>
								<g>
									<g>
										<path fill="#263238" d="M406.71,486.285c0.067,0.008,0.086,0.278,0.166,0.59c0.075,0.314,0.185,0.561,0.13,0.6
											c-0.05,0.039-0.272-0.181-0.361-0.542C406.555,486.572,406.648,486.274,406.71,486.285z"/>
									</g>
								</g>
							</g>
						</g>
					</g>
				</g>
				<g>
					<g>
						<g>
							<g>
								<g>
									<g>
										
											<ellipse transform="matrix(0.1092 -0.994 0.994 0.1092 -119.3362 835.8148)" fill="#263238" cx="406.671" cy="484.491" rx="0.524" ry="0.119"/>
									</g>
								</g>
							</g>
						</g>
					</g>
				</g>
				<g>
					<g>
						<g>
							<g>
								<g>
									<g>
										<path fill="#263238" d="M407.845,482.036c0.031,0.061-0.176,0.221-0.339,0.479c-0.169,0.255-0.231,0.508-0.299,0.505
											c-0.064,0.005-0.107-0.317,0.1-0.634C407.511,482.067,407.823,481.976,407.845,482.036z"/>
									</g>
								</g>
							</g>
						</g>
					</g>
				</g>
				<g>
					<g>
						<g>
							<g>
								<g>
									<g>
										
											<ellipse transform="matrix(0.5072 -0.8619 0.8619 0.5072 -213.2498 589.2555)" fill="#263238" cx="408.602" cy="481.087" rx="0.316" ry="0.119"/>
									</g>
								</g>
							</g>
						</g>
					</g>
				</g>
			</g>
		</g>
		<g opacity="0.3">
			<g>
				<g>
					<polygon points="408.448,479.467 392.857,491.378 391.415,489.504 407.799,478.395 					"/>
				</g>
			</g>
		</g>
	</g>
	<g>
		<g>
			<g>
				<g>
					<g>
						<g>
							<g>
								<g>
									<g>
										<path fill="#E7515B" d="M323.112,501.098l0.029-10.483l19.637-0.072l0.12,15.337l-1.217,0.083
											c-5.418,0.321-27.569,1.249-31.195,0.164C306.441,504.917,323.112,501.098,323.112,501.098z"/>
									</g>
								</g>
							</g>
						</g>
					</g>
				</g>
				<g opacity="0.4">
					<g>
						<g>
							<g>
								<g>
									<path fill="#FFFFFF" d="M314.967,503.255c0,0-5.842,1.708-5.109,2.669c0.733,0.96,23.153,0.865,33.039-0.043l-0.033-0.439
										l-26.151,0.334C316.714,505.776,316.111,503.298,314.967,503.255z"/>
								</g>
							</g>
						</g>
					</g>
				</g>
				<g>
					<g>
						<g>
							<g>
								<g>
									<g>
										<path fill="#263238" d="M343.173,505.428c0,0.008-0.116,0.021-0.337,0.038c-0.291,0.019-0.61,0.039-0.969,0.063
											c-0.97,0.046-2.162,0.102-3.568,0.169c-3.014,0.121-7.18,0.234-11.783,0.257c-4.604,0.022-8.772-0.048-11.787-0.139
											c-1.407-0.053-2.6-0.097-3.57-0.133c-0.36-0.02-0.678-0.037-0.97-0.053c-0.222-0.015-0.338-0.026-0.337-0.035
											c0-0.008,0.117-0.013,0.339-0.013c0.292,0.002,0.611,0.005,0.971,0.008c0.97,0.016,2.163,0.035,3.57,0.057
											c3.015,0.048,7.18,0.092,11.782,0.069c4.6-0.024,8.765-0.109,11.779-0.188c1.408-0.037,2.6-0.068,3.57-0.093
											c0.361-0.007,0.68-0.013,0.971-0.018C343.056,505.417,343.173,505.42,343.173,505.428z"/>
									</g>
								</g>
							</g>
						</g>
					</g>
				</g>
				<g>
					<g>
						<g>
							<g>
								<g>
									<g>
										<path fill="#263238" d="M316.72,506.081c-0.072,0.009-0.132-0.843-0.674-1.701c-0.527-0.868-1.263-1.3-1.223-1.361
											c0.014-0.059,0.857,0.307,1.425,1.236C316.827,505.177,316.779,506.095,316.72,506.081z"/>
									</g>
								</g>
							</g>
						</g>
					</g>
				</g>
				<g>
					<g>
						<g>
							<g>
								<g>
									<g>
										
											<ellipse transform="matrix(0.5394 0.842 -0.842 0.5394 571.2489 -39.771)" fill="#263238" cx="321.98" cy="502.302" rx="0.968" ry="0.119"/>
									</g>
								</g>
							</g>
						</g>
					</g>
				</g>
				<g>
					<g>
						<g>
							<g>
								<g>
									<g>
										
											<ellipse transform="matrix(0.7468 0.6651 -0.6651 0.7468 415.5966 -88.0858)" fill="#263238" cx="323.473" cy="501.722" rx="0.824" ry="0.119"/>
									</g>
								</g>
							</g>
						</g>
					</g>
				</g>
				<g>
					<g>
						<g>
							<g>
								<g>
									<g>
										
											<ellipse transform="matrix(0.9999 -0.0155 0.0155 0.9999 -7.7085 5.0769)" fill="#263238" cx="324.06" cy="500.428" rx="1.026" ry="0.119"/>
									</g>
								</g>
							</g>
						</g>
					</g>
				</g>
				<g>
					<g>
						<g>
							<g>
								<g>
									<g>
										<path fill="#263238" d="M325.425,499.103c0.022,0.059-0.476,0.286-1.142,0.337c-0.666,0.055-1.194-0.091-1.181-0.152
											c0.011-0.068,0.53-0.032,1.162-0.085C324.897,499.155,325.404,499.038,325.425,499.103z"/>
									</g>
								</g>
							</g>
						</g>
					</g>
				</g>
				<g>
					<g>
						<g>
							<g>
								<g>
									<g>
										<path fill="#263238" d="M321.829,501.407c0.001,0.027-0.483,0.088-1.262-0.003c-0.389-0.045-0.849-0.135-1.345-0.29
											c-0.246-0.087-0.504-0.151-0.77-0.314c-0.125-0.083-0.264-0.199-0.314-0.391c-0.053-0.189,0.047-0.402,0.189-0.505
											c1.203-0.63,2.414,0.043,2.864,0.665c0.248,0.317,0.362,0.627,0.415,0.84c0.051,0.216,0.048,0.339,0.034,0.341
											c-0.044,0.016-0.087-0.496-0.579-1.074c-0.243-0.283-0.609-0.558-1.081-0.696c-0.446-0.13-1.08-0.163-1.503,0.109
											c-0.2,0.149-0.121,0.385,0.103,0.517c0.208,0.133,0.477,0.213,0.711,0.3c0.478,0.162,0.923,0.267,1.301,0.333
											C321.347,501.369,321.829,501.368,321.829,501.407z"/>
									</g>
								</g>
							</g>
						</g>
					</g>
				</g>
				<g>
					<g>
						<g>
							<g>
								<g>
									<g>
										<path fill="#263238" d="M321.502,501.471c-0.018,0.014-0.205-0.308-0.149-0.876c0.029-0.279,0.13-0.61,0.341-0.923
											c0.222-0.281,0.507-0.668,1.048-0.648c0.293,0.036,0.437,0.369,0.391,0.581c-0.022,0.221-0.121,0.411-0.212,0.565
											c-0.186,0.316-0.397,0.572-0.593,0.766c-0.394,0.388-0.706,0.538-0.72,0.514c-0.022-0.031,0.251-0.227,0.597-0.628
											c0.172-0.2,0.359-0.455,0.525-0.759c0.172-0.268,0.289-0.747-0.028-0.803c-0.316-0.029-0.637,0.287-0.829,0.539
											c-0.197,0.274-0.306,0.568-0.353,0.822C321.425,501.134,321.544,501.461,321.502,501.471z"/>
									</g>
								</g>
							</g>
						</g>
					</g>
				</g>
				<g>
					<g>
						<g>
							<g>
								<g>
									<g>
										<path fill="#263238" d="M342.749,500.057c-0.004,0.044-0.563-0.051-1.45,0.057c-0.879,0.102-2.1,0.467-3.16,1.318
											c-1.059,0.853-1.678,1.967-1.966,2.804c-0.296,0.843-0.323,1.409-0.367,1.403c-0.014-0.001-0.022-0.142-0.002-0.396
											c0.019-0.254,0.078-0.621,0.21-1.06c0.254-0.872,0.873-2.047,1.977-2.936c1.105-0.887,2.385-1.239,3.292-1.3
											c0.457-0.034,0.828-0.013,1.08,0.023C342.615,500.005,342.751,500.043,342.749,500.057z"/>
									</g>
								</g>
							</g>
						</g>
					</g>
				</g>
				<g>
					<g>
						<g>
							<g>
								<g>
									<g>
										
											<ellipse transform="matrix(-0.0169 -0.9999 0.9999 -0.0169 -149.3398 845.0263)" fill="#263238" cx="340.748" cy="495.929" rx="4.035" ry="0.119"/>
									</g>
								</g>
							</g>
						</g>
					</g>
				</g>
				<g>
					<g>
						<g>
							<g>
								<g>
									<g>
										<path fill="#263238" d="M333.298,503.848c0.009,0.062-1.27,0.277-2.865,0.297c-1.596,0.024-2.88-0.156-2.873-0.218
											c0.006-0.069,1.289,0.004,2.869-0.02C332.01,503.888,333.29,503.78,333.298,503.848z"/>
									</g>
								</g>
							</g>
						</g>
					</g>
				</g>
				<g>
					<g>
						<g>
							<g>
								<g>
									<g>
										<path fill="#263238" d="M337.147,503.826c0.048,0.048-0.104,0.272-0.233,0.567c-0.134,0.293-0.2,0.556-0.268,0.552
											c-0.064,0-0.103-0.31,0.05-0.649C336.847,503.956,337.104,503.779,337.147,503.826z"/>
									</g>
								</g>
							</g>
						</g>
					</g>
				</g>
				<g>
					<g>
						<g>
							<g>
								<g>
									<g>
										
											<ellipse transform="matrix(0.6993 -0.7149 0.7149 0.6993 -257.4243 392.8707)" fill="#263238" cx="338.223" cy="502.39" rx="0.524" ry="0.119"/>
									</g>
								</g>
							</g>
						</g>
					</g>
				</g>
				<g>
					<g>
						<g>
							<g>
								<g>
									<g>
										<path fill="#263238" d="M340.661,501.181c-0.013,0.067-0.274,0.065-0.562,0.168c-0.29,0.096-0.495,0.257-0.547,0.213
											c-0.053-0.036,0.111-0.316,0.47-0.438C340.379,501,340.681,501.121,340.661,501.181z"/>
									</g>
								</g>
							</g>
						</g>
					</g>
				</g>
				<g>
					<g>
						<g>
							<g>
								<g>
									<g>
										
											<ellipse transform="matrix(0.9308 -0.3655 0.3655 0.9308 -159.4389 159.6163)" fill="#263238" cx="341.843" cy="500.902" rx="0.316" ry="0.119"/>
									</g>
								</g>
							</g>
						</g>
					</g>
				</g>
			</g>
		</g>
		<g opacity="0.3">
			<g>
				<g>
					<polygon points="342.898,499.268 323.102,499.288 323.123,496.924 342.827,496.794 					"/>
				</g>
			</g>
		</g>
	</g>
	<g>
		<g>
			<g>
				<g>
					<path fill="#B78876" d="M371.584,320.156l-7.863,23.679c-2.124,6.395-7.711,7.489-14.449,7.489h-43.741v-9.813l39.961-5.706
						l9.523-24.328L371.584,320.156z"/>
				</g>
			</g>
		</g>
		<g>
			<g>
				<g>
					<g>
						<path fill="#B78876" d="M300.723,339.472l-3.47-1.643c0,0-3.74-7.23-4.601-6.941c-0.862,0.289-1.109,2.418,0.393,5.739
							l-4.611-1.317c0,0-9.996,4.619-9.554,5.241c0.442,0.622,1.261,2.096,3.438,0.982c2.177-1.113,5.03-2.42,5.03-2.42l5.386,1.538
							l-6.945,0.881l-6.532,5.944c0,0,2.145,1.604,3.995-0.099l16.965,3.645l5.314,0.301v-9.813L300.723,339.472z"/>
					</g>
				</g>
			</g>
			<g>
				<g>
					<g>
						<g>
							<path fill="#AA6550" d="M283.252,347.377c0.072,0.047,0.388-0.454,0.999-1.12c0.308-0.327,0.722-0.668,1.235-0.954
								c0.494-0.276,1.135-0.395,1.832-0.479c2.827-0.335,5.109-0.723,5.091-0.869c-0.018-0.145-2.323,0.006-5.157,0.342
								c-0.71,0.086-1.433,0.227-2.012,0.582c-0.553,0.34-0.98,0.748-1.275,1.133C283.389,346.791,283.202,347.347,283.252,347.377z
								"/>
						</g>
					</g>
				</g>
			</g>
			<g>
				<g>
					<g>
						<g>
							<path fill="#AA6550" d="M285.906,348.059c0.064,0,0.117-0.351,0.593-0.453c0.484-0.088,1.257-0.18,2.061-0.263
								c1.63-0.165,2.969-0.152,2.983-0.303c0.017-0.141-1.346-0.395-3.034-0.225c-0.849,0.091-1.572,0.228-2.135,0.438
								c-0.291,0.119-0.478,0.357-0.515,0.534C285.814,347.968,285.875,348.064,285.906,348.059z"/>
						</g>
					</g>
				</g>
			</g>
		</g>
	</g>
	<g>
		<g>
			<g>
				<g>
					<g>
						<g>
							<g>
								<g>
									<g>
										<path fill="#E7515B" d="M375.29,314.993l-3.364,11.396l-21.349-9.665c0.767-2.385,4.298-13.013,11.058-29.877
											c3.766-9.396,12.144-16.177,22.13-17.838c6.987-1.162,14.588-2.069,20.442-2.004c11.971,0.132,29.595,7.615,31.963,19.351
											c1.808,8.958,0.064,24.773,0.064,43.99l-1.562,36.716l-61.348,2.081L375.29,314.993z"/>
									</g>
								</g>
							</g>
						</g>
					</g>
				</g>
			</g>
			<g opacity="0.3">
				<g>
					<g>
						<g>
							<path d="M436.17,321.847c-7.465,1.527-15.13-0.013-22.737-0.464c-4.612-0.274-9.728-0.772-13.377,2.063
								c-2.893,2.248-4.057,6.027-4.892,9.594c-3.182,13.596-3.761,22.71-4.476,36.655l36.928,2.239L436.17,321.847z"/>
						</g>
					</g>
				</g>
			</g>
		</g>
		<g>
			<g>
				<g>
					<g>
						<path fill="#263238" d="M373.717,275.143c-0.008,0.054,0.614,0.091,1.632,0.49c1.001,0.411,2.379,1.286,3.533,2.86
							c1.171,1.556,1.959,3.812,2.111,6.392c0.18,2.58-0.202,5.438-0.645,8.41c-0.948,5.948-2.395,11.224-3.428,15.038
							c-0.505,1.841-0.923,3.364-1.24,4.518c-0.287,1.069-0.429,1.665-0.394,1.676c0.035,0.011,0.244-0.565,0.592-1.616
							c0.346-1.051,0.833-2.577,1.403-4.473c1.126-3.792,2.637-9.071,3.592-15.059c0.444-2.988,0.819-5.875,0.609-8.528
							c-0.18-2.644-1.042-4.997-2.299-6.582c-1.238-1.606-2.706-2.466-3.76-2.828c-0.535-0.174-0.963-0.258-1.256-0.286
							C373.872,275.129,373.719,275.125,373.717,275.143z"/>
					</g>
				</g>
			</g>
		</g>
		<g>
			<g>
				<g>
					<g>
						<path fill="#263238" d="M351.244,313.815c-0.033,0.063,1.111,0.732,3.008,1.725c1.896,0.993,4.549,2.301,7.527,3.645
							c2.979,1.343,5.716,2.466,7.716,3.229c2,0.764,3.258,1.178,3.284,1.112c0.028-0.071-1.182-0.608-3.142-1.46
							c-1.96-0.851-4.667-2.026-7.639-3.365c-2.97-1.34-5.643-2.591-7.578-3.497C352.483,314.298,351.279,313.748,351.244,313.815z"
							/>
					</g>
				</g>
			</g>
		</g>
	</g>
	<g>
		<g>
			<g>
				<g>
					<path fill="#263238" d="M341.464,371.933c-10.452,5.701-14.421,18.718-8.928,29.281l53.396,91.678l24.635-14.88l-41.464-82.772
						l30.052-19.617"/>
				</g>
			</g>
		</g>
		<g>
			<g>
				<g>
					<g>
						<path fill="#263238" d="M406.478,367.387l-73.3,2.595c-11.899,0.421-21.273,10.286-21.088,22.191l3.043,104.691l30.827-0.069
							l-1.028-98.984l61.546-1.619V367.387z"/>
					</g>
				</g>
			</g>
			<g>
				<g>
					<g>
						<path fill="#455B65" d="M344.932,401.389c0.024-0.001,0.053,0.333,0.088,0.968c0.03,0.702,0.07,1.626,0.12,2.778
							c0.092,2.413,0.185,5.906,0.276,10.222c0.184,8.632,0.308,20.559,0.374,33.731c0.067,13.142,0.128,25.034,0.173,33.734
							c0.024,4.259,0.043,7.732,0.057,10.223c-0.004,1.153-0.007,2.077-0.009,2.78c-0.01,0.636-0.026,0.97-0.05,0.97
							c-0.024,0.001-0.053-0.333-0.088-0.967c-0.03-0.702-0.07-1.625-0.12-2.778c-0.092-2.413-0.185-5.905-0.276-10.221
							c-0.184-8.632-0.308-20.561-0.374-33.736c-0.067-13.137-0.128-25.029-0.173-33.728c-0.024-4.259-0.043-7.733-0.057-10.223
							c0.004-1.154,0.007-2.078,0.009-2.78C344.892,401.724,344.908,401.39,344.932,401.389z"/>
					</g>
				</g>
			</g>
		</g>
	</g>
</g>
<g>
	<g>
		<g>
			<path fill="#5E7076" d="M438.231,300.949h-22.176c-8.927,0-16.164,7.237-16.164,16.164v77.369h-44.306
				c-6.182,0-11.193,5.011-11.193,11.193h101.162c0-0.022-0.002-0.042-0.002-0.064c4.917-0.21,8.842-4.251,8.842-9.219v-79.279
				C454.395,308.186,447.158,300.949,438.231,300.949z"/>
		</g>
	</g>
	<g>
		<g>
			<g>
				<path fill="#263238" d="M406.338,303.502c0.19,0,0.343,22.737,0.343,50.778c0,28.051-0.154,50.783-0.343,50.783
					c-0.189,0-0.343-22.732-0.343-50.783C405.995,326.239,406.149,303.502,406.338,303.502z"/>
			</g>
		</g>
	</g>
	<g>
		<g>
			<path fill="#5E7076" d="M403.536,486.882v-81.164h-7.21v81.164c-4.402,8.677-14.75,14.548-27.355,19.355h64.274
				C420.192,500.934,408.412,496.863,403.536,486.882z"/>
		</g>
	</g>
</g>
</svg>
