<?xml version="1.0" encoding="utf-8"?>
<!-- Generator: Adobe Illustrator 17.0.0, SVG Export Plug-In . SVG Version: 6.00 Build 0)  -->
<!DOCTYPE svg PUBLIC "-//W3C//DTD SVG 1.1//EN" "http://www.w3.org/Graphics/SVG/1.1/DTD/svg11.dtd">
<svg version="1.1" id="Layer_1" xmlns="http://www.w3.org/2000/svg" xmlns:xlink="http://www.w3.org/1999/xlink" x="0px" y="0px"
	 width="617px" height="539px" viewBox="0 0 617 539" enable-background="new 0 0 617 539" xml:space="preserve">
<g>
	<g>
		<g>
			<g>
				<g>
					<path fill="#E7515B" d="M241.044,344.223l-34.579-38.717l-0.35,47.063l10.408,30.186l-103.434,17.941l-4.386-81.612
						l-7.446-62.678c-0.912-7.68,3.468-15.009,10.664-17.843l28.465-11.209l40.091,7.354l16.128,6.13
						c6.771,2.574,12.807,6.771,17.575,12.225l48.548,55.518"/>
				</g>
			</g>
			<g>
				<g>
					<g>
						<path fill="#263238" d="M207.064,350.566c0.242-0.002,0.304-16.306,0.14-36.411c-0.165-20.112-0.494-36.409-0.736-36.407
							c-0.242,0.002-0.304,16.303-0.14,36.415C206.493,334.267,206.823,350.568,207.064,350.566z"/>
					</g>
				</g>
			</g>
		</g>
		<g>
			<path fill="#E7515B" d="M203.275,362.529l-62.499-25.159c-5.041-2.029-8.493-6.743-8.906-12.161l-4.574-59.921
				c0,0,0.541-25.484-15.376-26.725l-9.056,3.566c-11.703,6.215-14.603,23.256-13.01,36.411c2.264,18.694,3.207,45.148,5.74,61.372
				c2.072,13.271,9.674,24.945,22.664,28.365l76.979,16.665L203.275,362.529z"/>
		</g>
		<g>
			<g>
				<path fill="#263238" d="M128.193,274.428c0.029-0.002,0.096,0.47,0.197,1.372c0.099,0.976,0.233,2.292,0.402,3.948
					c0.32,3.512,0.769,8.456,1.322,14.531c0.53,6.162,1.157,13.462,1.853,21.559c0.171,2.029,0.345,4.109,0.524,6.232
					c0.186,2.125,0.315,4.3,0.798,6.412c0.458,2.12,1.476,4.104,3.106,5.615c1.621,1.517,3.65,2.626,5.767,3.588
					c17.234,7.457,33.117,13.615,44.646,17.933c5.723,2.108,10.38,3.824,13.688,5.043c1.561,0.576,2.801,1.033,3.722,1.372
					c0.848,0.321,1.289,0.503,1.28,0.531c-0.009,0.027-0.469-0.101-1.335-0.371c-0.933-0.303-2.191-0.711-3.775-1.225
					c-3.271-1.084-7.986-2.708-13.785-4.795c-11.597-4.182-27.505-10.248-44.79-17.727c-2.149-0.978-4.26-2.122-5.991-3.745
					c-1.748-1.613-2.868-3.821-3.332-6.033c-0.5-2.217-0.617-4.409-0.796-6.527c-0.169-2.125-0.334-4.205-0.496-6.236
					c-0.629-8.105-1.196-15.411-1.675-21.579c-0.442-6.085-0.801-11.037-1.057-14.554c-0.103-1.661-0.184-2.981-0.245-3.96
					C128.175,274.907,128.164,274.43,128.193,274.428z"/>
			</g>
		</g>
		<g>
			<g>
				<path fill="#263238" d="M92.385,307.003c0.029-0.001,0.069,0.276,0.124,0.804c0.056,0.625,0.124,1.388,0.207,2.313
					c0.186,2.135,0.436,5.009,0.741,8.503c0.342,3.586,0.778,7.854,1.4,12.572c0.643,4.709,1.401,9.904,2.822,15.179
					c0.673,2.663,1.618,5.124,3.05,7.237c1.433,2.13,3.024,4.043,4.669,5.736c3.305,3.379,6.832,5.858,10.001,7.503
					c6.395,3.324,11.043,3.372,10.977,3.593c-0.002,0.029-0.281,0.022-0.813-0.019c-0.532-0.037-1.318-0.098-2.313-0.298
					c-1.992-0.352-4.858-1.134-8.12-2.75c-3.257-1.605-6.885-4.077-10.281-7.489c-1.691-1.71-3.326-3.65-4.798-5.819
					c-1.495-2.176-2.51-4.807-3.177-7.473c-1.442-5.355-2.176-10.568-2.78-15.303c-0.583-4.74-0.958-9.022-1.225-12.621
					c-0.263-3.599-0.403-6.516-0.477-8.533c-0.02-0.929-0.037-1.696-0.05-2.324C92.34,307.284,92.357,307.004,92.385,307.003z"/>
			</g>
		</g>
		<g>
			<g>
				<path fill="#263238" d="M119.11,348.933c-0.085-0.024,0.181-1.361,1.138-3.331c0.946-1.966,2.698-4.508,5.247-6.694
					c2.559-2.177,5.344-3.509,7.433-4.136c2.096-0.637,3.457-0.69,3.468-0.602c0.025,0.14-1.287,0.4-3.273,1.161
					c-1.986,0.753-4.617,2.116-7.085,4.213c-2.457,2.108-4.215,4.494-5.269,6.337C119.707,347.725,119.244,348.98,119.11,348.933z"
					/>
			</g>
		</g>
		<g opacity="0.3">
			<g>
				<path d="M185.315,355.386c-6.683-3.775-13.222-6.675-20.209-9.851c-6.988-3.176-13.832-7.252-18.406-13.416
					c-8.625-11.625-7.643-28.404-16.471-39.876c0.577,7.714,1.153,15.428,1.729,23.143c0.528,7.07-0.555,14.061,3.999,18.866
					c3.836,4.047,11.317,7.151,16.612,8.898C163.212,346.661,174.672,351.875,185.315,355.386"/>
			</g>
		</g>
	</g>
	<g>
		<g>
			<g>
				<path fill="#E7515B" d="M293.914,443.455c0,0,52.294,14.473,54.392,15.212c3.15,1.109,2.621,12.651-2.281,12.471
					c-2.319-0.085-40.167,1.41-44.949,1.11c-4.782-0.299-19.21-5.984-19.21-5.984L293.914,443.455z"/>
			</g>
		</g>
		<g>
			<g>
				<g>
					<path fill="#263238" d="M315.698,463.408c0.263,0.036,0.616-2.73,2.305-5.614c1.647-2.91,3.861-4.604,3.697-4.814
						c-0.091-0.202-2.689,1.272-4.456,4.377C315.447,460.444,315.478,463.431,315.698,463.408z"/>
				</g>
			</g>
		</g>
		<g>
			<g>
				<g>
					<path fill="#263238" d="M310.246,460.936c0.256,0.045,0.786-2.428,2.178-5.159c1.366-2.746,3.036-4.644,2.848-4.823
						c-0.144-0.171-2.187,1.538-3.629,4.429C310.179,458.262,310.022,460.922,310.246,460.936z"/>
				</g>
			</g>
		</g>
		<g>
			<g>
				<g>
					<path fill="#263238" d="M305.132,459.566c0.264-0.016,0.063-2.628,1.223-5.525c1.112-2.916,3.031-4.699,2.848-4.89
						c-0.105-0.199-2.45,1.418-3.663,4.572C304.293,456.862,304.92,459.641,305.132,459.566z"/>
				</g>
			</g>
		</g>
		<g>
			<g>
				<g>
					<path fill="#263238" d="M306.06,452.812c0.093,0.023,0.557-1.437,0.561-3.891c-0.004-1.222-0.144-2.685-0.53-4.264
						c-0.192-0.789-0.45-1.605-0.778-2.427c-0.169-0.415-0.362-0.893-0.838-1.282c-0.488-0.438-1.375-0.347-1.796,0.089
						c-0.479,0.418-0.631,1.007-0.697,1.479c-0.053,0.481-0.079,0.928-0.068,1.381c0.013,0.9,0.129,1.763,0.323,2.56
						c0.387,1.597,1.01,2.936,1.609,3.998c1.219,2.122,2.275,3.207,2.349,3.148c0.12-0.083-0.757-1.302-1.801-3.435
						c-0.514-1.067-1.05-2.377-1.371-3.888c-0.161-0.754-0.251-1.558-0.252-2.389c0.023-0.803,0.012-1.808,0.482-2.194
						c0.249-0.206,0.474-0.221,0.692-0.058c0.231,0.176,0.424,0.534,0.573,0.914c0.324,0.781,0.587,1.556,0.792,2.307
						c0.411,1.503,0.61,2.902,0.692,4.083C306.155,451.311,305.917,452.791,306.06,452.812z"/>
				</g>
			</g>
		</g>
		<g>
			<g>
				<g>
					<path fill="#263238" d="M305.994,452.28c0.024-0.096-1.238-0.53-3.373-0.544c-1.062-0.002-2.338,0.11-3.71,0.455
						c-0.677,0.183-1.405,0.358-2.137,0.787c-0.716,0.364-1.466,1.358-1.182,2.39c0.224,0.973,1.057,1.653,1.884,1.867
						c0.833,0.233,1.639,0.149,2.346-0.006c1.435-0.33,2.551-1.036,3.397-1.671c1.676-1.315,2.494-2.321,2.432-2.394
						c-0.092-0.111-1.082,0.749-2.786,1.887c-0.857,0.548-1.93,1.14-3.208,1.389c-0.636,0.121-1.321,0.159-1.94-0.027
						c-0.615-0.169-1.127-0.639-1.273-1.243c-0.15-0.585,0.205-1.119,0.777-1.459c0.56-0.347,1.254-0.547,1.897-0.74
						c1.294-0.37,2.503-0.54,3.524-0.615C304.689,452.211,305.973,452.42,305.994,452.28z"/>
				</g>
			</g>
		</g>
		<g>
			<g>
				<g>
					<path fill="#263238" d="M323.733,463.968c0.259-0.029,0.003-2.265,1.031-4.717c0.979-2.473,2.725-3.892,2.56-4.094
						c-0.086-0.213-2.273,1.026-3.371,3.763C322.825,461.645,323.522,464.06,323.733,463.968z"/>
				</g>
			</g>
		</g>
		<g>
			<g>
				<g>
					<path fill="#263238" d="M287.245,466.382c-0.023,0.056,0.696,0.391,2.023,0.951c1.344,0.507,3.31,1.218,5.819,1.804
						c5.001,1.26,12.132,1.975,19.965,1.892c7.837-0.086,14.898-0.443,20.02-0.648c2.424-0.128,4.456-0.236,6.06-0.321
						c1.43-0.095,2.22-0.177,2.218-0.237c-0.002-0.061-0.795-0.094-2.229-0.104c-1.606,0.011-3.641,0.026-6.068,0.043
						c-5.297,0.104-12.282,0.24-20.006,0.391c-7.798,0.082-14.843-0.529-19.824-1.62
						C290.224,467.506,287.305,466.22,287.245,466.382z"/>
				</g>
			</g>
		</g>
		<g>
			<g>
				<g>
					<path fill="#263238" d="M285.698,467.574c0.071,0.121,1.502-0.715,3.918-1.775c2.388-1.025,5.966-2.252,9.895-1.645
						c3.941,0.603,6.734,3.25,8.553,5.088c1.833,1.903,2.908,3.167,3.014,3.078c0.079-0.065-0.813-1.454-2.559-3.498
						c-0.882-1.01-2.002-2.182-3.468-3.242c-1.449-1.065-3.314-1.971-5.403-2.29c-4.215-0.645-7.93,0.763-10.294,1.948
						C286.956,466.466,285.645,467.488,285.698,467.574z"/>
				</g>
			</g>
		</g>
	</g>
	<g>
		<g>
			<g>
				<path fill="#E7515B" d="M238.406,429.017c0,0-49.484,32.4-51.259,33.74c-2.665,2.014,0.392,11.602,5.008,9.942
					c2.184-0.785,43.707-12.336,48.173-14.074c4.465-1.737,16.485-11.536,16.485-11.536L238.406,429.017z"/>
			</g>
		</g>
		<g>
			<g>
				<g>
					<path fill="#263238" d="M223.711,454.644c0.217-0.046-0.661-2.901-3.311-5.296c-2.626-2.422-5.549-3.037-5.575-2.817
						c-0.092,0.249,2.532,1.191,4.985,3.463C222.295,452.23,223.471,454.758,223.711,454.644z"/>
				</g>
			</g>
		</g>
		<g>
			<g>
				<g>
					<path fill="#263238" d="M228.155,450.633c0.209-0.081-0.749-2.568-3.017-4.867c-2.252-2.316-4.718-3.325-4.803-3.118
						c-0.125,0.228,2.043,1.528,4.178,3.73C226.669,448.558,227.924,450.753,228.155,450.633z"/>
				</g>
			</g>
		</g>
		<g>
			<g>
				<g>
					<path fill="#263238" d="M232.611,447.774c0.225,0.007-0.022-2.83-2.163-5.443c-2.114-2.637-4.839-3.465-4.879-3.243
						c-0.116,0.237,2.254,1.353,4.199,3.794C231.753,445.289,232.355,447.839,232.611,447.774z"/>
				</g>
			</g>
		</g>
		<g>
			<g>
				<g>
					<path fill="#263238" d="M229.676,441.621c0.13-0.063-0.547-1.401-1.12-3.703c-0.281-1.15-0.517-2.544-0.581-4.101
						c-0.033-0.778-0.018-1.596,0.054-2.439c0.027-0.407,0.102-0.806,0.269-1.045c0.158-0.221,0.377-0.276,0.677-0.155
						c0.565,0.225,0.859,1.186,1.125,1.945c0.252,0.792,0.41,1.585,0.486,2.353c0.153,1.537,0.04,2.948-0.126,4.12
						c-0.347,2.349-0.812,3.776-0.672,3.819c0.089,0.033,0.765-1.321,1.282-3.713c0.249-1.194,0.436-2.659,0.319-4.298
						c-0.057-0.818-0.209-1.676-0.47-2.537c-0.127-0.436-0.288-0.854-0.484-1.296c-0.206-0.43-0.529-0.945-1.113-1.197
						c-0.533-0.288-1.406-0.104-1.738,0.461c-0.335,0.515-0.373,1.029-0.409,1.476c-0.063,0.883-0.062,1.739-0.005,2.549
						c0.112,1.621,0.423,3.058,0.79,4.223C228.709,440.421,229.594,441.671,229.676,441.621z"/>
				</g>
			</g>
		</g>
		<g>
			<g>
				<g>
					<path fill="#263238" d="M229.576,441.094c0.064,0.127,1.223-0.462,3.216-0.947c0.995-0.238,2.199-0.443,3.544-0.484
						c0.672-0.012,1.393-0.032,2.032,0.128c0.648,0.15,1.149,0.552,1.183,1.155c0.044,0.62-0.301,1.223-0.836,1.571
						c-0.533,0.366-1.197,0.537-1.84,0.615c-1.293,0.151-2.495-0.087-3.478-0.349c-1.968-0.566-3.173-1.085-3.227-0.951
						c-0.038,0.088,1.048,0.799,3.044,1.542c0.999,0.347,2.277,0.681,3.744,0.56c0.721-0.066,1.514-0.232,2.237-0.706
						c0.723-0.454,1.31-1.356,1.228-2.351c-0.043-1.07-1.059-1.789-1.851-1.918c-0.828-0.187-1.574-0.133-2.275-0.101
						c-1.413,0.088-2.662,0.369-3.673,0.694C230.595,440.214,229.524,441.01,229.576,441.094z"/>
				</g>
			</g>
		</g>
		<g>
			<g>
				<g>
					<path fill="#263238" d="M198.461,470.891c0.057,0.077,0.833-0.501,1.211-1.918c0.414-1.383,0.154-3.509-0.927-5.37
						c-0.516-0.939-1.11-1.753-1.658-2.471c-0.54-0.719-1.101-1.369-1.68-1.803c-0.572-0.446-1.17-0.647-1.581-0.662
						c-0.414-0.018-0.625,0.084-0.618,0.134c0.001,0.136,0.884,0.07,1.8,1c0.465,0.442,0.926,1.063,1.428,1.805
						c0.507,0.736,1.06,1.537,1.542,2.416c1.002,1.745,1.301,3.55,1.088,4.825C198.885,470.13,198.344,470.806,198.461,470.891z"/>
				</g>
			</g>
		</g>
		<g>
			<g>
				<g>
					<path fill="#263238" d="M216.225,457.618c0.229,0.024,0.16-2.489-1.743-4.741c-1.877-2.275-4.337-2.791-4.355-2.562
						c-0.095,0.242,1.999,1.064,3.683,3.123C215.535,455.461,215.97,457.668,216.225,457.618z"/>
				</g>
			</g>
		</g>
		<g>
			<g>
				<g>
					<path fill="#263238" d="M251.724,448.836c-0.043-0.052-0.801,0.506-2.175,1.493c-1.392,0.963-3.437,2.312-6.101,3.738
						c-2.662,1.429-5.946,2.912-9.691,4.314c-3.747,1.397-7.949,2.715-12.394,4.004c-8.902,2.563-16.962,4.907-22.777,6.656
						c-2.789,0.856-5.103,1.567-6.876,2.111c-1.618,0.517-2.505,0.831-2.489,0.889c0.017,0.058,0.935-0.145,2.582-0.561
						c1.793-0.475,4.133-1.096,6.953-1.844c5.861-1.598,13.941-3.845,22.852-6.411c4.453-1.291,8.674-2.639,12.435-4.09
						c3.759-1.455,7.053-3.012,9.704-4.526c2.654-1.511,4.667-2.953,6.005-4.007C251.074,449.524,251.758,448.877,251.724,448.836z"
						/>
				</g>
			</g>
		</g>
		<g>
			<g>
				<g>
					<path fill="#263238" d="M253.559,449.502c0.025-0.098-1.534-0.674-4.193-1.115c-2.612-0.411-6.579-0.625-10.4,1.271
						c-1.893,0.939-3.395,2.368-4.452,3.823c-1.074,1.456-1.785,2.911-2.319,4.142c-1.043,2.477-1.471,4.072-1.376,4.11
						c0.128,0.053,0.768-1.478,1.936-3.848c1.175-2.304,3.033-5.674,6.604-7.445c3.559-1.772,7.342-1.689,9.928-1.438
						C251.911,449.276,253.528,449.639,253.559,449.502z"/>
				</g>
			</g>
		</g>
	</g>
	<g>
		<g>
			<g>
				<path fill="#263238" d="M341.242,350c0,0,14.845,5.301,14.907,21.947c0.119,31.885-64.424,67.031-64.424,67.031l-85.891-56.91
					l-5.384-2.178C200.451,379.889,316.396,336.335,341.242,350z"/>
			</g>
		</g>
		<g>
			<g>
				<g>
					<path fill="#455B65" d="M249.343,410.811c0.037,0.048,0.831-0.495,2.237-1.517c1.408-1.02,3.416-2.535,5.875-4.436
						c4.918-3.801,11.608-9.188,18.806-15.366c7.197-6.183,13.535-11.982,18.036-16.269c2.251-2.142,4.052-3.899,5.273-5.136
						c1.223-1.235,1.88-1.938,1.838-1.982c-0.042-0.044-0.778,0.576-2.073,1.734c-1.403,1.267-3.241,2.927-5.459,4.929
						c-4.604,4.166-10.998,9.884-18.186,16.059c-7.188,6.169-13.806,11.624-18.621,15.545c-2.315,1.889-4.234,3.456-5.698,4.651
						C250.03,410.13,249.306,410.763,249.343,410.811z"/>
				</g>
			</g>
		</g>
		<g>
			<g>
				<g>
					<path fill="#455B65" d="M316.994,361.917c0.032-0.214-3.799-0.589-8.277,0.751c-4.489,1.306-7.502,3.701-7.359,3.864
						c0.143,0.227,3.274-1.768,7.607-3.024C313.285,362.211,316.998,362.186,316.994,361.917z"/>
				</g>
			</g>
		</g>
		<g>
			<g>
				<g>
					<path fill="#455B65" d="M309.596,356.892c-0.077-0.207-2.83,1.004-5.092,3.83c-2.287,2.807-2.891,5.753-2.672,5.785
						c0.25,0.087,1.189-2.589,3.353-5.235C307.315,358.6,309.733,357.119,309.596,356.892z"/>
				</g>
			</g>
		</g>
		<g>
			<g>
				<g>
					<path fill="#263238" d="M345.964,457.85c0.046-0.1-1.025-0.307-2.214,0.672c-1.169,0.934-2.163,2.804-2.483,4.985
						c-0.323,2.197,0.166,4.215,0.783,5.497c0.608,1.305,1.276,1.917,1.351,1.855c0.118-0.081-0.352-0.806-0.777-2.086
						c-0.437-1.264-0.787-3.129-0.491-5.143c0.294-2.003,1.116-3.735,2.031-4.649C345.077,458.027,345.982,457.99,345.964,457.85z"
						/>
				</g>
			</g>
		</g>
	</g>
	<g>
		<g>
			<polygon fill="#455B65" points="321.486,297.91 290.896,375.457 159.176,377.603 156.738,370.477 202.9,368.802 225.086,300.012 
							"/>
		</g>
		<g>
			<path fill="#EBEBEB" d="M259.973,331.482c1.69-1.145,4.814-0.686,6.334,0.676c1.52,1.363,2.013,3.722,1.24,5.612
				c-0.772,1.89-2.72,3.215-4.758,3.324c-2.166,0.116-4.425-1.24-5.03-3.322C257.153,335.689,257.825,332.579,259.973,331.482"/>
		</g>
	</g>
	<g>
		<g>
			<g>
				<path fill="#263238" d="M299.858,442.85c0,0-121.353-79.6-126.323-81.256c-4.969-1.656-16.978-9.524-28.986-6.212
					c-12.009,3.313-22.775,14.079-28.158,29.815c-3.075,8.989-4.529,24.329-5.21,35.83c-0.815,13.754,3.443,27.466,12.44,37.902
					c4.093,4.748,9.142,8.879,15.131,10.742c1.264,0.393,2.575,0.733,3.922,1.025c22.944,4.975,46.523-5.325,59.414-24.947
					l2.831-4.309c0,0,79.385,29.165,80.628,28.751L299.858,442.85z"/>
			</g>
		</g>
		<g>
			<g>
				<g>
					<path fill="#455B65" d="M149.724,420.94c0,0,0.22,0.112,0.666,0.294c0.48,0.19,1.139,0.452,1.986,0.789
						c1.791,0.69,4.374,1.684,7.694,2.962c6.749,2.543,16.487,6.211,28.592,10.771c12.146,4.531,26.693,9.919,43.015,15.859
						c16.325,5.933,34.414,12.447,53.732,18.988l0.351,0.119l0.172-0.329c3.033-5.792,6.233-11.904,9.481-18.106
						c1.655-3.163,3.298-6.302,4.832-9.233l0.186-0.356l-0.336-0.213c-36.44-23.132-69.041-43.827-92.568-58.762
						c-11.747-7.41-21.228-13.39-27.806-17.539c-3.257-2.033-5.794-3.616-7.552-4.713c-0.843-0.515-1.497-0.916-1.972-1.205
						c-0.446-0.267-0.686-0.386-0.686-0.386s0.209,0.167,0.641,0.459c0.464,0.307,1.103,0.731,1.927,1.276
						c1.738,1.128,4.246,2.756,7.467,4.847c6.543,4.203,15.974,10.261,27.659,17.768c23.489,14.993,56.036,35.768,92.415,58.989
						l-0.15-0.569c-1.534,2.931-3.178,6.07-4.834,9.233c-3.246,6.203-6.444,12.316-9.475,18.109l0.522-0.21
						c-19.309-6.523-37.407-13.006-53.746-18.891c-16.312-5.937-30.885-11.24-43.077-15.677
						c-12.144-4.455-21.912-8.038-28.682-10.522c-3.343-1.216-5.944-2.163-7.747-2.819c-0.86-0.304-1.528-0.541-2.015-0.713
						C149.964,421.001,149.724,420.94,149.724,420.94z"/>
				</g>
			</g>
		</g>
	</g>
	<g>
		<g>
			<path fill="#263238" d="M162.318,138.27c2.068-5.594,6.642-8.023,12.439-9.427c5.797-1.403,12.246,0.258,16.643,4.287
				c2.941,2.695,5.097,6.418,8.73,8.066c5.982,2.712,13.647-1.251,19.317,2.063c3.356,1.962,5.004,6.427,3.727,10.099
				s-5.341,6.15-9.19,5.605c3.898,1.841,4.625,7.708,1.942,11.081c-2.684,3.374-7.646,4.286-11.794,3.113
				c-4.148-1.174-7.593-4.069-10.523-7.23c-2.931-3.161-5.495-6.669-8.668-9.588c-3.172-2.918-7.13-5.269-11.438-5.429
				c-5.832-0.217-11.212,3.702-14.274,8.67c-3.062,4.968-4.203,10.858-5.057,16.631c-0.853,5.773-1.496,11.663-3.723,17.057
				c-0.261,0.633-0.635,1.335-1.306,1.476c-0.969,0.203-1.678-0.87-2.067-1.781c-4.386-10.279-6.726-21.427-6.845-32.602
				c-0.069-6.49,0.658-12.565,4.688-17.653C148.95,137.622,158.247,134.453,162.318,138.27"/>
		</g>
		<g>
			<g>
				<g>
					<g>
						<g>
							<g>
								<g>
									<g>
										<g>
											<g>
												<g>
													<g>
														<g>
															<g>
																<path fill="#FBBD9D" d="M148.633,164.173l-8.92,64.829c-1.517,11.024,6.5,21.075,17.586,22.046l0,0
																	c10.346,0.906,19.582-6.479,20.987-16.769c0.666-4.881,1.232-8.949,1.334-9.447c0,0,16.717,0.718,20.156-15.452
																	c1.662-7.814,3.775-24.188,5.514-39.024c1.869-15.932-8.832-30.624-24.563-33.767l-1.564-0.313
																	C162.102,133.892,150.545,147.051,148.633,164.173z"/>
															</g>
														</g>
													</g>
												</g>
											</g>
										</g>
									</g>
								</g>
								<g>
									<g>
										<g>
											<g>
												<g>
													<g>
														<g>
															<g>
																<path fill="#EC996F" d="M179.694,224.603c0,0-10.411-1.214-19.933-10.229c0,0,2.664,12.664,19.132,14.436
																	L179.694,224.603z"/>
															</g>
														</g>
													</g>
												</g>
											</g>
										</g>
									</g>
								</g>
							</g>
						</g>
					</g>
					<g>
						<g>
							<g>
								<g>
									<g>
										<g>
											<g>
												<g>
													<g>
														<g>
															<g>
																<g>
																	<g>
																		<g>
																			<path fill="#263238" d="M198.399,180.27c-0.201,1.231-1.409,2.076-2.699,1.89
																				c-1.287-0.186-2.17-1.333-1.969-2.564c0.201-1.231,1.409-2.077,2.697-1.892
																				C197.717,177.89,198.6,179.039,198.399,180.27z"/>
																		</g>
																	</g>
																</g>
															</g>
														</g>
													</g>
												</g>
											</g>
											<g>
												<g>
													<g>
														<g>
															<g>
																<g>
																	<g>
																		<g>
																			<g>
																				<path fill="#263238" d="M200.219,177.616c-0.347,0.244-1.841-1.404-4.334-1.895
																					c-2.482-0.526-4.567,0.39-4.776,0.031c-0.106-0.162,0.295-0.648,1.207-1.069
																					c0.899-0.421,2.348-0.715,3.898-0.398c1.55,0.319,2.741,1.15,3.374,1.885
																					C200.237,176.912,200.387,177.509,200.219,177.616z"/>
																			</g>
																		</g>
																	</g>
																</g>
															</g>
														</g>
													</g>
												</g>
											</g>
										</g>
										<g>
											<g>
												<g>
													<g>
														<g>
															<g>
																<g>
																	<g>
																		<g>
																			<path fill="#263238" d="M173.798,176.235c-0.201,1.231-1.409,2.076-2.699,1.889
																				c-1.287-0.186-2.17-1.332-1.969-2.564c0.201-1.231,1.41-2.077,2.697-1.891
																				C173.116,173.855,173.999,175.004,173.798,176.235z"/>
																		</g>
																	</g>
																</g>
															</g>
														</g>
													</g>
												</g>
											</g>
											<g>
												<g>
													<g>
														<g>
															<g>
																<g>
																	<g>
																		<g>
																			<g>
																				<path fill="#263238" d="M175.64,173.188c-0.348,0.245-1.845-1.404-4.335-1.895
																					c-2.482-0.526-4.567,0.39-4.776,0.031c-0.105-0.162,0.293-0.648,1.208-1.068
																					c0.899-0.421,2.347-0.715,3.898-0.399c1.55,0.319,2.741,1.151,3.375,1.885
																					C175.655,172.483,175.807,173.081,175.64,173.188z"/>
																			</g>
																		</g>
																	</g>
																</g>
															</g>
														</g>
													</g>
												</g>
											</g>
										</g>
										<g>
											<g>
												<g>
													<g>
														<g>
															<g>
																<g>
																	<g>
																		<g>
																			<path fill="#263238" d="M180.989,193.469c0.017-0.144,1.619-0.102,4.192,0.078
																				c0.649,0.061,1.277,0.055,1.471-0.357c0.242-0.43,0.113-1.169-0.048-1.97c-0.291-1.659-0.594-3.397-0.913-5.22
																				c-1.235-7.418-1.992-13.467-1.693-13.514c0.299-0.047,1.543,5.928,2.777,13.346
																				c0.289,1.826,0.567,3.567,0.828,5.233c0.096,0.771,0.346,1.674-0.169,2.563
																				c-0.266,0.441-0.802,0.693-1.232,0.721c-0.433,0.043-0.792-0.022-1.11-0.066
																				C182.539,193.914,180.97,193.613,180.989,193.469z"/>
																		</g>
																	</g>
																</g>
															</g>
														</g>
													</g>
												</g>
											</g>
										</g>
										<g>
											<g>
												<g>
													<g>
														<g>
															<g>
																<g>
																	<g>
																		<g>
																			<path fill="#263238" d="M173.313,193.728c0.41,0.057-0.125,2.762,1.806,5.144
																				c1.926,2.387,4.869,2.66,4.814,3.042c0.004,0.177-0.747,0.397-1.97,0.187c-1.201-0.197-2.868-0.929-4.049-2.386
																				c-1.177-1.459-1.47-3.151-1.341-4.279C172.696,194.284,173.131,193.675,173.313,193.728z"/>
																		</g>
																	</g>
																</g>
															</g>
														</g>
													</g>
												</g>
											</g>
										</g>
									</g>
								</g>
							</g>
							<g>
								<g>
									<g>
										<g>
											<g>
												<g>
													<g>
														<g>
															<path fill="#263238" d="M178.233,163.554c-0.381,0.628-2.804-0.19-5.797-0.421c-2.989-0.292-5.516,0.093-5.783-0.592
																c-0.115-0.325,0.423-0.881,1.507-1.346c1.075-0.466,2.707-0.787,4.5-0.632c1.793,0.159,3.344,0.758,4.321,1.404
																C177.969,162.614,178.403,163.254,178.233,163.554z"/>
														</g>
													</g>
												</g>
											</g>
										</g>
									</g>
								</g>
							</g>
							<g>
								<g>
									<g>
										<g>
											<g>
												<g>
													<g>
														<g>
															<path fill="#263238" d="M200.743,170.224c-0.551,0.478-2.15-0.452-4.208-0.892c-2.042-0.512-3.887-0.381-4.171-1.054
																c-0.119-0.322,0.269-0.834,1.14-1.217c0.859-0.383,2.205-0.568,3.614-0.242c1.409,0.328,2.535,1.087,3.137,1.81
																C200.869,169.356,200.992,169.986,200.743,170.224z"/>
														</g>
													</g>
												</g>
											</g>
										</g>
									</g>
								</g>
							</g>
						</g>
					</g>
				</g>
			</g>
		</g>
		<g>
			<g>
				<g>
					<g>
						<g>
							<g>
								<g>
									<g>
										<g>
											<path fill="#FBBD9D" d="M147.559,176.44c-0.252-0.175-10.48-5.52-12.34,5.633c-1.86,11.153,9.721,10.72,9.794,10.404
												C145.085,192.161,147.559,176.44,147.559,176.44z"/>
										</g>
									</g>
								</g>
							</g>
						</g>
					</g>
				</g>
			</g>
			<g>
				<g>
					<g>
						<g>
							<g>
								<g>
									<g>
										<g>
											<g>
												<path fill="#EC996F" d="M142.31,187.684c-0.043-0.044-0.217,0.104-0.571,0.199c-0.345,0.093-0.912,0.102-1.457-0.212
													c-1.106-0.629-1.786-2.665-1.505-4.684c0.141-1.02,0.515-1.951,1.008-2.691c0.477-0.759,1.099-1.241,1.71-1.248
													c0.613-0.038,0.974,0.387,1.058,0.724c0.097,0.337-0.01,0.548,0.045,0.577c0.027,0.033,0.271-0.147,0.258-0.623
													c-0.009-0.229-0.096-0.514-0.322-0.772c-0.231-0.262-0.606-0.439-1.027-0.463c-0.87-0.084-1.776,0.578-2.318,1.391
													c-0.59,0.809-1.034,1.851-1.192,2.996c-0.303,2.259,0.496,4.554,2.031,5.289c0.75,0.336,1.444,0.208,1.826,0.001
													C142.245,187.95,142.345,187.71,142.31,187.684z"/>
											</g>
										</g>
									</g>
								</g>
							</g>
						</g>
					</g>
				</g>
			</g>
		</g>
		<g>
			<path fill="#263238" d="M209.396,167.676c-7.52,0.474-15.181-2.936-19.862-8.841c-3.275-4.132-5.357-9.546-9.995-12.054
				c-3.122-1.689-6.961-1.709-10.344-0.635c-3.383,1.074-6.365,3.152-9.035,5.491c1.486,8.864-2.455,17.639-6.297,25.765
				c-0.424,0.898-0.91,1.86-1.801,2.299c-1.513,0.746-3.318-0.434-4.222-1.858c-1.447-2.28-1.616-5.127-1.563-7.827
				c0.122-6.15,1.201-12.333,3.699-17.955c2.497-5.622,6.466-10.665,11.66-13.962c6.49-4.12,14.668-5.296,22.182-3.673
				c7.514,1.622,14.338,5.928,19.446,11.673c2.37,2.665,4.432,5.726,5.239,9.2"/>
		</g>
	</g>
</g>
<g>
	<g>
		<g>
			<g>
				<g>
					<g>
						<g>
							<g>
								<g>
									<g>
										<g>
											<g>
												<path fill="#455B65" d="M417.936,201.171c-14.223-14.62-21.901-33.903-21.62-54.297
													c0.281-20.394,8.487-39.459,23.106-53.682l0,0c30.182-29.361,78.622-28.694,107.981,1.486
													c14.223,14.62,21.901,33.902,21.62,54.298c-0.281,20.394-8.487,39.459-23.106,53.68
													c-11.87,11.548-26.56,18.449-41.808,20.739C460.59,226.928,435.75,219.48,417.936,201.171z M422.988,96.858
													c-13.641,13.27-21.298,31.057-21.559,50.087c-0.262,19.028,6.902,37.021,20.172,50.66
													c13.27,13.641,31.059,21.298,50.087,21.559c19.03,0.264,37.021-6.9,50.662-20.172
													c13.641-13.27,21.299-31.057,21.559-50.087c0.262-19.028-6.902-37.021-20.172-50.661
													c-16.622-17.084-39.794-24.032-61.741-20.736C447.771,79.645,434.06,86.085,422.988,96.858z"/>
											</g>
											<g>
												<path fill="#455B65" d="M473.771,67.923c21.403,0.294,41.388,8.883,56.273,24.187
													c14.909,15.324,22.958,35.54,22.664,56.919c-0.296,21.378-8.897,41.363-24.221,56.272
													c-12.057,11.728-27.213,19.242-43.831,21.74c-25.508,3.834-51.439-4.877-69.362-23.299
													c-14.91-15.326-22.959-35.539-22.664-56.919c0.294-21.377,8.896-41.363,24.221-56.272
													c8.475-8.245,18.454-14.388,29.31-18.179C454.907,69.317,464.222,67.79,473.771,67.923z M519.78,196.349
													c12.936-12.584,20.197-29.453,20.443-47.496c0.249-18.042-6.545-35.102-19.128-48.04
													c-15.125-15.546-37.013-22.895-58.551-19.66l0,0c-14.026,2.111-26.814,8.452-36.985,18.347
													c-12.936,12.584-20.195,29.452-20.442,47.496c-0.25,18.045,6.543,35.103,19.127,48.038
													c12.584,12.935,29.451,20.195,47.497,20.444c8.04,0.111,15.883-1.175,23.255-3.75
													C504.167,208.524,512.608,203.327,519.78,196.349z"/>
											</g>
										</g>
									</g>
								</g>
							</g>
						</g>
					</g>
					<g>
						<g>
							<g>
								<g>
									<g>
										<g>
											<g>
												<path fill="#455B65" d="M321.91,279.6l1.188,1.347c2.543,2.884,6.223,3.796,8.22,2.036l90.374-79.65
													c0.446-0.393,0.347-1.233-0.22-1.877l-8.341-9.464c-0.567-0.644-1.389-0.847-1.834-0.454l-90.375,79.651
													C318.924,272.949,319.367,276.715,321.91,279.6z"/>
											</g>
										</g>
									</g>
								</g>
							</g>
						</g>
					</g>
				</g>
			</g>
		</g>
		<g>
			<g>
				<path fill="#FFFFFF" d="M505.973,163.719c0.096-0.247-17.814-7.461-39.999-16.11c-22.193-8.653-40.255-15.464-40.352-15.217
					c-0.096,0.247,17.81,7.459,40.003,16.112C487.81,157.153,505.877,163.966,505.973,163.719z"/>
			</g>
		</g>
		<g>
			<g>
				<path fill="#FFFFFF" d="M523.618,157.557c0.097-0.247-15.018-6.41-33.757-13.765c-18.745-7.357-34.014-13.12-34.111-12.873
					c-0.097,0.247,15.015,6.409,33.76,13.766C508.249,152.04,523.521,157.803,523.618,157.557z"/>
			</g>
		</g>
		<g>
			<g>
				<path fill="#263238" d="M541.063,124.039c0,0,0.081,0.393,0.284,1.143c0.217,0.78,0.525,1.883,0.925,3.319
					c0.207,0.731,0.438,1.545,0.692,2.44c0.214,0.908,0.357,1.922,0.564,3.008c0.196,1.09,0.408,2.261,0.633,3.513
					c0.275,1.246,0.255,2.615,0.408,4.04c0.641,5.703,0.348,12.808-1.24,20.786c-1.629,7.961-4.895,16.824-10.577,25.363
					c-0.717,1.061-1.444,2.134-2.178,3.22c-0.797,1.039-1.67,2.04-2.515,3.079c-0.881,1.008-1.657,2.132-2.649,3.078
					c-0.97,0.966-1.951,1.942-2.941,2.928c-0.497,0.491-0.997,0.984-1.499,1.479c-0.546,0.447-1.096,0.895-1.648,1.346
					c-1.103,0.902-2.217,1.813-3.341,2.732c-1.15,0.884-2.415,1.636-3.633,2.472c-1.253,0.783-2.423,1.729-3.791,2.369
					c-2.673,1.381-5.312,2.953-8.252,3.997c-1.449,0.562-2.876,1.222-4.373,1.718c-1.516,0.443-3.043,0.889-4.581,1.339
					c-0.772,0.211-1.534,0.482-2.323,0.646l-2.389,0.443c-1.601,0.278-3.202,0.638-4.833,0.854
					c-3.286,0.231-6.607,0.708-9.993,0.505c-3.39,0.089-6.784-0.416-10.225-0.8c-1.707-0.277-3.4-0.703-5.115-1.05
					c-0.851-0.202-1.726-0.323-2.564-0.594l-2.524-0.8c-3.425-0.931-6.669-2.459-9.997-3.86c-3.169-1.731-6.436-3.368-9.41-5.551
					l-2.293-1.545l-2.149-1.758l-2.152-1.773c-0.734-0.575-1.437-1.189-2.075-1.875c-1.322-1.324-2.649-2.652-3.981-3.986
					c-1.196-1.457-2.396-2.92-3.601-4.388c-4.597-6.047-8.32-12.874-10.993-20.211c-2.478-7.408-3.819-15.07-3.987-22.667
					c0.028-1.9,0.057-3.792,0.085-5.678c0.212-1.874,0.423-3.74,0.634-5.599l0.165-1.392l0.291-1.368l0.58-2.728l0.587-2.714
					l0.833-2.637c0.969-3.56,2.505-6.876,3.908-10.204c1.732-3.169,3.32-6.385,5.421-9.247l1.478-2.198
					c0.486-0.734,1.097-1.373,1.637-2.061c1.127-1.34,2.186-2.727,3.35-4.007c2.454-2.443,4.796-4.952,7.505-6.993
					c2.524-2.267,5.42-3.962,8.136-5.827c1.412-0.846,2.889-1.561,4.315-2.341l2.146-1.141c0.72-0.363,1.484-0.625,2.22-0.94
					c1.484-0.606,2.957-1.208,4.419-1.805c1.481-0.543,3.009-0.916,4.493-1.378c2.951-1.013,5.996-1.425,8.947-2.009
					c1.469-0.351,2.975-0.339,4.442-0.506c1.474-0.104,2.932-0.303,4.383-0.327c1.452,0.019,2.891,0.039,4.316,0.057
					c0.712,0.009,1.422,0.019,2.127,0.028c0.701,0.075,1.4,0.15,2.094,0.225c1.389,0.155,2.764,0.308,4.125,0.46
					c1.366,0.123,2.672,0.519,3.99,0.76c1.309,0.287,2.615,0.527,3.885,0.844c1.251,0.393,2.487,0.78,3.709,1.164
					c9.762,3.146,17.835,8.049,24.066,13.265c6.208,5.255,10.86,10.633,13.908,15.494c0.768,1.211,1.636,2.269,2.195,3.416
					c0.603,1.12,1.167,2.168,1.691,3.143c0.514,0.978,1.033,1.861,1.431,2.705c0.359,0.859,0.685,1.639,0.977,2.34
					c0.581,1.372,1.027,2.426,1.342,3.172C540.882,123.681,541.063,124.039,541.063,124.039s-0.119-0.379-0.397-1.105
					c-0.295-0.756-0.713-1.824-1.256-3.214c-0.281-0.709-0.594-1.498-0.938-2.366c-0.385-0.853-0.892-1.746-1.395-2.735
					c-0.515-0.986-1.068-2.045-1.659-3.178c-0.55-1.159-1.409-2.231-2.169-3.455c-3.017-4.918-7.654-10.367-13.876-15.7
					c-6.244-5.294-14.36-10.281-24.2-13.499c-1.232-0.392-2.479-0.789-3.74-1.19c-1.281-0.326-2.599-0.573-3.919-0.868
					c-1.329-0.249-2.648-0.652-4.027-0.782c-1.374-0.158-2.762-0.318-4.165-0.48c-0.702-0.077-1.407-0.155-2.115-0.233
					c-0.713-0.012-1.429-0.024-2.149-0.036c-1.44-0.024-2.894-0.047-4.362-0.072c-1.466,0.02-2.94,0.215-4.431,0.316
					c-1.484,0.164-3.007,0.15-4.493,0.499c-2.986,0.58-6.066,0.992-9.053,2.007c-1.502,0.462-3.048,0.838-4.547,1.383
					c-1.48,0.6-2.972,1.205-4.474,1.814c-0.745,0.318-1.519,0.582-2.248,0.947l-2.174,1.149c-1.444,0.785-2.94,1.507-4.371,2.36
					c-2.753,1.88-5.687,3.593-8.247,5.882c-2.745,2.063-5.122,4.597-7.61,7.069c-1.18,1.294-2.256,2.697-3.398,4.052
					c-0.548,0.696-1.166,1.343-1.66,2.086l-1.5,2.223c-2.13,2.896-3.744,6.15-5.5,9.359c-1.427,3.368-2.984,6.727-3.97,10.332
					l-0.845,2.671l-0.598,2.749l-0.59,2.764l-0.296,1.386l-0.168,1.41c-0.214,1.884-0.429,3.775-0.645,5.674
					c-0.03,1.911-0.06,3.828-0.09,5.754c0.166,7.698,1.524,15.464,4.036,22.969c2.706,7.434,6.481,14.353,11.143,20.478
					c1.222,1.487,2.439,2.969,3.652,4.444c1.35,1.351,2.696,2.697,4.035,4.037c0.648,0.694,1.36,1.315,2.104,1.898l2.182,1.795
					l2.179,1.778l2.324,1.564c3.015,2.207,6.324,3.865,9.537,5.613c3.371,1.417,6.66,2.958,10.129,3.898l2.557,0.806
					c0.849,0.273,1.735,0.395,2.597,0.598c1.737,0.349,3.452,0.777,5.181,1.055c3.485,0.386,6.922,0.889,10.354,0.794
					c3.428,0.197,6.79-0.288,10.115-0.531c1.651-0.222,3.27-0.589,4.89-0.874l2.416-0.454c0.799-0.168,1.568-0.443,2.349-0.658
					c1.555-0.459,3.099-0.914,4.63-1.365c1.513-0.506,2.956-1.175,4.419-1.748c2.969-1.065,5.636-2.66,8.333-4.065
					c1.38-0.652,2.563-1.611,3.826-2.406c1.23-0.849,2.504-1.614,3.665-2.511c1.133-0.933,2.257-1.856,3.369-2.771
					c0.556-0.458,1.109-0.913,1.66-1.366c0.506-0.502,1.009-1.002,1.51-1.499c0.997-1,1.984-1.989,2.96-2.968
					c0.999-0.959,1.779-2.096,2.665-3.119c0.85-1.053,1.726-2.067,2.527-3.119c0.737-1.099,1.466-2.186,2.186-3.259
					c5.698-8.643,8.945-17.599,10.536-25.629c1.55-8.048,1.786-15.199,1.086-20.927c-0.168-1.432-0.163-2.806-0.454-4.055
					c-0.242-1.254-0.469-2.429-0.68-3.52c-0.222-1.087-0.382-2.102-0.611-3.009c-0.271-0.894-0.518-1.706-0.739-2.436
					c-0.44-1.427-0.779-2.523-1.018-3.298C541.207,124.41,541.063,124.039,541.063,124.039z"/>
			</g>
		</g>
		<g>
			<g>
				<path fill="#263238" d="M503.137,96.547c-0.038,0.067,0.889,0.643,2.528,1.729c1.64,1.081,3.959,2.734,6.633,5.001
					c5.345,4.49,11.98,11.831,16.546,21.52c4.571,9.69,6.012,19.481,6.075,26.461c0.048,3.505-0.153,6.345-0.363,8.298
					c-0.205,1.954-0.351,3.036-0.275,3.049c0.032,0.006,0.107-0.257,0.221-0.765c0.102-0.509,0.289-1.257,0.425-2.236
					c0.325-1.95,0.632-4.806,0.671-8.35c0.112-7.053-1.239-17.021-5.885-26.868c-4.638-9.846-11.467-17.231-16.979-21.632
					c-2.758-2.225-5.157-3.805-6.868-4.796c-0.842-0.518-1.537-0.85-1.995-1.095C503.404,96.628,503.153,96.518,503.137,96.547z"/>
			</g>
		</g>
		<g>
			<g>
				
					<ellipse transform="matrix(0.9833 0.1821 -0.1821 0.9833 24.9027 -88.7341)" fill="#263238" cx="495.635" cy="91.236" rx="1.739" ry="0.48"/>
			</g>
		</g>
		<g>
			<g>
				<path fill="#FFFFFF" d="M412.268,136.159c-0.033-0.002-0.079,0.33-0.137,0.965c-0.044,0.635-0.16,1.573-0.175,2.785
					c-0.1,2.422-0.035,5.944,0.484,10.256c0.986,8.585,4.33,20.491,11.864,31.505c7.533,11.02,17.418,18.455,25.06,22.488
					c3.831,2.048,7.089,3.385,9.382,4.171c1.134,0.426,2.05,0.657,2.658,0.847c0.613,0.176,0.939,0.253,0.949,0.222
					c0.025-0.077-1.237-0.525-3.475-1.419c-2.24-0.888-5.433-2.311-9.186-4.416c-7.49-4.149-17.166-11.569-24.595-22.436
					c-7.428-10.861-10.833-22.568-11.983-31.053c-0.6-4.261-0.768-7.752-0.783-10.163
					C412.308,137.501,412.348,136.163,412.268,136.159z"/>
			</g>
		</g>
		<g>
			<g>
				
					<ellipse transform="matrix(0.9682 -0.2502 0.2502 0.9682 -36.9335 126.2714)" fill="#FFFFFF" cx="478.255" cy="208.423" rx="4.323" ry="0.48"/>
			</g>
		</g>
	</g>
	<g>
		<g>
			<g>
				<g>
					<g>
						<g>
							<g>
								<g>
									<g>
										<path fill="#607C88" d="M451.666,181.733l44.801,0.726c3.096,0.05,5.646-2.419,5.696-5.515l1.001-62.014
											c0.05-3.096-2.419-5.647-5.515-5.697l-28.413-0.46l-22.36,22.314l-0.726,44.95
											C446.1,179.132,448.57,181.683,451.666,181.733z"/>
									</g>
								</g>
							</g>
						</g>
					</g>
				</g>
			</g>
			<g>
				<g>
					<g>
						<g>
							<g>
								<g>
									<g>
										<path fill="#E0E0E0" d="M469.237,108.773l-0.282,17.453c-0.046,2.879-2.418,5.176-5.297,5.13l-16.781-0.269
											L469.237,108.773z"/>
									</g>
								</g>
							</g>
						</g>
					</g>
				</g>
			</g>
		</g>
		<g>
			<g>
				<g>
					<g>
						<g>
							<g>
								
									<ellipse transform="matrix(-0.9999 -0.0162 0.0162 -0.9999 964.0724 259.294)" fill="#FFFFFF" cx="483.086" cy="125.743" rx="10.365" ry="0.406"/>
							</g>
						</g>
					</g>
				</g>
			</g>
		</g>
		<g>
			<g>
				<g>
					<g>
						<g>
							<g>
								
									<ellipse transform="matrix(-0.9999 -0.0162 0.0162 -0.9999 950.2103 278.701)" fill="#FFFFFF" cx="476.234" cy="135.502" rx="17.059" ry="0.406"/>
							</g>
						</g>
					</g>
				</g>
			</g>
		</g>
		<g>
			<g>
				<g>
					<g>
						<g>
							<g>
								
									<ellipse transform="matrix(-0.9999 -0.0162 0.0162 -0.9999 946.7386 295.1048)" fill="#FFFFFF" cx="474.565" cy="143.717" rx="18.595" ry="0.406"/>
							</g>
						</g>
					</g>
				</g>
			</g>
		</g>
		<g>
			<g>
				<g>
					<g>
						<g>
							<g>
								
									<ellipse transform="matrix(-0.9999 -0.0162 0.0162 -0.9999 946.3619 310.6497)" fill="#FFFFFF" cx="474.439" cy="151.492" rx="18.595" ry="0.406"/>
							</g>
						</g>
					</g>
				</g>
			</g>
		</g>
		<g>
			<g>
				<g>
					<g>
						<g>
							<g>
								
									<ellipse transform="matrix(-0.9999 -0.0162 0.0162 -0.9999 945.9846 326.196)" fill="#FFFFFF" cx="474.314" cy="159.266" rx="18.595" ry="0.406"/>
							</g>
						</g>
					</g>
				</g>
			</g>
		</g>
		<g>
			<g>
				<g>
					<g>
						<g>
							<g>
								
									<ellipse transform="matrix(-0.9999 -0.0162 0.0162 -0.9999 945.6075 341.7416)" fill="#FFFFFF" cx="474.188" cy="167.041" rx="18.595" ry="0.406"/>
							</g>
						</g>
					</g>
				</g>
			</g>
		</g>
	</g>
</g>
<g>
	<g>
		<g>
			<g>
				<g>
					<g>
						<g>
							<g>
								<g>
									<path fill="#607C88" d="M277.3,177.039l37.425-14.253c2.586-0.985,3.884-3.88,2.899-6.466l-19.728-51.801
										c-0.985-2.586-3.88-3.884-6.466-2.9l-23.735,9.039l-11.161,25.934l14.3,37.547
										C271.819,176.725,274.714,178.023,277.3,177.039z"/>
								</g>
							</g>
						</g>
					</g>
				</g>
			</g>
		</g>
		<g>
			<g>
				<g>
					<g>
						<g>
							<g>
								<g>
									<path fill="#E0E0E0" d="M267.695,110.658l5.552,14.579c0.916,2.405-0.291,5.098-2.696,6.014l-14.017,5.341L267.695,110.658
										z"/>
								</g>
							</g>
						</g>
					</g>
				</g>
			</g>
		</g>
	</g>
	<g>
		<g>
			<g>
				<g>
					<g>
						<g>
							
								<ellipse transform="matrix(-0.9345 0.3559 -0.3559 -0.9345 593.7454 131.0659)" fill="#FFFFFF" cx="284.816" cy="120.15" rx="9.264" ry="0.363"/>
						</g>
					</g>
				</g>
			</g>
		</g>
	</g>
	<g>
		<g>
			<g>
				<g>
					<g>
						<g>
							
								<ellipse transform="matrix(-0.9345 0.3559 -0.3559 -0.9345 592.6936 152.0039)" fill="#FFFFFF" cx="282.364" cy="130.522" rx="15.247" ry="0.363"/>
						</g>
					</g>
				</g>
			</g>
		</g>
	</g>
	<g>
		<g>
			<g>
				<g>
					<g>
						<g>
							
								<ellipse transform="matrix(-0.9345 0.3559 -0.3559 -0.9345 597.906 165.7894)" fill="#FFFFFF" cx="283.703" cy="137.894" rx="16.62" ry="0.363"/>
						</g>
					</g>
				</g>
			</g>
		</g>
	</g>
	<g>
		<g>
			<g>
				<g>
					<g>
						<g>
							
								<ellipse transform="matrix(-0.9345 0.3559 -0.3559 -0.9345 605.0019 177.4715)" fill="#FFFFFF" cx="286.176" cy="144.388" rx="16.62" ry="0.363"/>
						</g>
					</g>
				</g>
			</g>
		</g>
	</g>
	<g>
		<g>
			<g>
				<g>
					<g>
						<g>
							
								<ellipse transform="matrix(-0.9345 0.3559 -0.3559 -0.9345 612.0975 189.1548)" fill="#FFFFFF" cx="288.649" cy="150.882" rx="16.62" ry="0.363"/>
						</g>
					</g>
				</g>
			</g>
		</g>
	</g>
	<g>
		<g>
			<g>
				<g>
					<g>
						<g>
							
								<ellipse transform="matrix(-0.9345 0.3559 -0.3559 -0.9345 619.1933 200.8374)" fill="#FFFFFF" cx="291.122" cy="157.376" rx="16.62" ry="0.363"/>
						</g>
					</g>
				</g>
			</g>
		</g>
	</g>
</g>
<g opacity="0.5">
	<g>
		<path fill="#EBEBEB" d="M352.686,314.068c0,0-10.056,5.44,4.585,26.444c14.641,21.004,24.169,31.088,24.169,31.088
			s2.768,4.963-1.535,6.386c-4.303,1.424-14.238,1.213-15.461,6.887c-1.268,5.885,3.531,10.609,12.422,14.109
			c8.891,3.499,28.09,11.881,29.823,12.646c1.702,0.751,3.611,2.974,0.835,4.414c-2.776,1.439-24.328,6.736-21.203,16.812
			c3.126,10.077,29.497,15.755,32.368,16.431c2.871,0.676,3.682,1.742,3.666,3.269c-0.016,1.527-7.428,2.624-13.496,4.382
			c-6.068,1.758-12.796,4.859-10.506,10.522c2.29,5.662,18.864,15.938,55.471,14.499l16.919-1.777l7.205-15.494
			c13.398-34.098,9.145-53.129,4.551-57.154c-4.594-4.025-9.736,1.309-13.392,6.461c-3.655,5.153-7.129,11.792-8.577,11.304
			c-1.447-0.487-2.187-1.604-1.881-4.537c0.306-2.934,3.616-29.706-4.872-35.971c-8.488-6.265-20.578,12.346-22.85,14.494
			c-2.272,2.148-3.745-0.387-3.894-2.24c-0.152-1.888-1.753-22.775-2.134-32.323c-0.381-9.547-3.264-15.633-9.238-16.371
			c-5.76-0.712-8.829,8.74-11.589,12.335c-2.759,3.595-6.536-0.651-6.536-0.651s-6.39-12.314-21.41-33.048
			c-15.02-20.734-23.638-12.791-23.638-12.791"/>
	</g>
	<g>
		<g>
			<path fill="#E0E0E0" d="M472.163,484.022c-10.971-15.271-30.015-42.74-46.487-66.239c-16.467-23.491-31.395-44.745-42.288-60.071
				c-5.445-7.644-9.855-13.835-12.919-18.136c-1.514-2.128-2.694-3.787-3.51-4.934c-0.387-0.554-0.686-0.983-0.902-1.291
				c-0.201-0.293-0.293-0.451-0.293-0.451s0.121,0.137,0.336,0.419c0.225,0.301,0.539,0.72,0.944,1.26
				c0.834,1.133,2.041,2.773,3.59,4.876c3.113,4.238,7.573,10.402,13.056,18.039c10.971,15.271,25.949,36.493,42.416,59.984
				c16.472,23.499,35.466,51,46.359,66.325"/>
		</g>
	</g>
	<g>
		<g>
			<path fill="#E0E0E0" d="M378.331,385.728c0.008-0.036,0.442,0.025,1.22,0.165c0.779,0.137,1.899,0.368,3.281,0.666
				c2.762,0.602,6.556,1.531,10.723,2.631c4.106,1.1,7.818,2.095,10.659,2.857c1.282,0.335,2.364,0.618,3.233,0.845
				c0.764,0.196,1.184,0.322,1.177,0.357c-0.007,0.036-0.441-0.022-1.221-0.156c-0.779-0.139-1.9-0.37-3.279-0.683
				c-2.757-0.63-6.537-1.608-10.704-2.708c-4.112-1.07-7.83-2.038-10.675-2.779c-1.285-0.329-2.368-0.606-3.24-0.829
				C378.742,385.892,378.323,385.764,378.331,385.728z"/>
		</g>
	</g>
	<g>
		<g>
			
				<ellipse transform="matrix(-0.2092 0.9779 -0.9779 -0.2092 866.0132 48.5079)" fill="#E0E0E0" cx="413.393" cy="374.413" rx="17.999" ry="0.264"/>
		</g>
	</g>
	<g>
		<g>
			<path fill="#E0E0E0" d="M433.292,429.235c-0.031-0.018,0.163-0.422,0.541-1.134c0.434-0.806,0.976-1.811,1.619-3.005
				c1.363-2.539,3.231-6.053,5.15-10.006c1.928-3.95,3.549-7.586,4.701-10.227c0.544-1.243,1.001-2.29,1.368-3.128
				c0.327-0.737,0.524-1.139,0.558-1.125c0.034,0.013-0.098,0.44-0.367,1.202c-0.269,0.761-0.678,1.855-1.214,3.195
				c-1.066,2.682-2.637,6.353-4.571,10.314c-1.924,3.965-3.85,7.461-5.299,9.958c-0.73,1.245-1.331,2.247-1.768,2.926
				C433.577,428.885,433.323,429.253,433.292,429.235z"/>
		</g>
	</g>
	<g>
		<g>
			<path fill="#E0E0E0" d="M403.733,429.779c-0.001-0.036,0.409-0.084,1.153-0.139c0.857-0.05,1.91-0.11,3.152-0.182
				c2.662-0.131,6.34-0.275,10.403-0.402c4.065-0.127,7.745-0.213,10.41-0.248c1.244-0.006,2.298-0.011,3.157-0.015
				c0.746,0.008,1.159,0.03,1.16,0.067c0.001,0.036-0.41,0.084-1.153,0.139c-0.857,0.049-1.91,0.11-3.151,0.182
				c-2.662,0.131-6.34,0.275-10.405,0.402c-4.063,0.127-7.743,0.212-10.408,0.248c-1.244,0.006-2.298,0.011-3.157,0.015
				C404.147,429.838,403.734,429.816,403.733,429.779z"/>
		</g>
	</g>
	<g>
		<g>
			<path fill="#E0E0E0" d="M420.449,465.293c-0.002-0.036,0.525-0.093,1.478-0.163c1.052-0.065,2.409-0.148,4.038-0.249
				c3.41-0.187,8.123-0.409,13.329-0.621c5.208-0.213,9.924-0.375,13.338-0.467c1.632-0.033,2.991-0.06,4.044-0.081
				c0.955-0.007,1.484,0.006,1.486,0.042c0.001,0.036-0.525,0.093-1.477,0.163c-1.052,0.065-2.409,0.148-4.038,0.249
				c-3.41,0.187-8.123,0.409-13.332,0.621c-5.206,0.213-9.921,0.375-13.336,0.467c-1.632,0.033-2.99,0.06-4.044,0.081
				C420.98,465.342,420.451,465.329,420.449,465.293z"/>
		</g>
	</g>
	<g>
		<g>
			<path fill="#E0E0E0" d="M457.25,463.537c-0.032-0.017,0.2-0.534,0.649-1.454c0.494-1.002,1.139-2.309,1.916-3.885
				c1.613-3.281,3.825-7.822,6.124-12.903c2.308-5.079,4.275-9.731,5.676-13.109c0.674-1.622,1.234-2.968,1.662-4
				c0.396-0.943,0.632-1.459,0.666-1.446c0.034,0.013-0.136,0.553-0.474,1.52c-0.338,0.966-0.848,2.357-1.508,4.065
				c-1.313,3.417-3.23,8.1-5.542,13.188c-2.303,5.09-4.572,9.613-6.272,12.854c-0.855,1.619-1.559,2.921-2.066,3.811
				C457.576,463.069,457.282,463.554,457.25,463.537z"/>
		</g>
	</g>
</g>
<g opacity="0.5">
	<g>
		<path fill="#EBEBEB" d="M591.031,313.104c0,0,10.056,5.44-4.585,26.444c-14.641,21.004-24.169,31.088-24.169,31.088
			s-2.768,4.963,1.535,6.386c4.303,1.424,14.238,1.213,15.461,6.887c1.268,5.885-3.531,10.609-12.422,14.109
			c-8.891,3.499-28.09,11.881-29.823,12.646c-1.702,0.751-3.611,2.974-0.835,4.414c2.776,1.439,24.328,6.736,21.203,16.812
			c-3.126,10.077-29.497,15.755-32.368,16.431c-2.871,0.676-3.682,1.742-3.666,3.269c0.016,1.527,7.428,2.624,13.496,4.382
			c6.068,1.758,12.796,4.859,10.506,10.522c-2.29,5.662-18.864,15.938-55.471,14.499l-16.919-1.777l-7.205-15.494
			c-13.398-34.098-9.145-53.129-4.551-57.154c4.594-4.025,9.736,1.309,13.392,6.461c3.655,5.153,7.129,11.792,8.577,11.304
			c1.447-0.487,2.187-1.604,1.881-4.537c-0.306-2.934-3.616-29.706,4.872-35.971c8.488-6.265,20.578,12.346,22.85,14.494
			c2.272,2.148,3.745-0.387,3.894-2.24c0.152-1.888,1.753-22.775,2.134-32.323c0.381-9.548,3.264-15.633,9.238-16.371
			c5.76-0.712,8.829,8.74,11.589,12.335c2.759,3.595,6.536-0.651,6.536-0.651s6.39-12.314,21.41-33.048
			c15.02-20.734,23.638-12.791,23.638-12.791"/>
	</g>
	<g>
		<g>
			<path fill="#E0E0E0" d="M471.553,483.057c10.971-15.271,30.015-42.74,46.487-66.239c16.467-23.491,31.395-44.745,42.288-60.071
				c5.445-7.644,9.855-13.835,12.919-18.136c1.514-2.128,2.694-3.787,3.51-4.934c0.387-0.554,0.686-0.983,0.902-1.291
				c0.201-0.293,0.292-0.451,0.292-0.451s-0.121,0.137-0.336,0.419c-0.225,0.301-0.539,0.72-0.944,1.26
				c-0.834,1.133-2.041,2.773-3.59,4.876c-3.113,4.238-7.573,10.402-13.056,18.039c-10.971,15.271-25.949,36.493-42.416,59.984
				c-16.472,23.499-35.466,51-46.359,66.325"/>
		</g>
	</g>
	<g>
		<g>
			<path fill="#E0E0E0" d="M565.385,384.763c-0.008-0.036-0.442,0.025-1.22,0.165c-0.779,0.137-1.899,0.368-3.281,0.666
				c-2.762,0.602-6.556,1.531-10.723,2.631c-4.106,1.1-7.818,2.095-10.659,2.857c-1.282,0.335-2.364,0.618-3.234,0.845
				c-0.764,0.196-1.184,0.322-1.177,0.357c0.007,0.036,0.441-0.022,1.221-0.156c0.779-0.139,1.9-0.37,3.279-0.683
				c2.757-0.63,6.537-1.608,10.704-2.708c4.112-1.07,7.83-2.038,10.675-2.779c1.285-0.329,2.368-0.606,3.24-0.829
				C564.974,384.928,565.393,384.799,565.385,384.763z"/>
		</g>
	</g>
	<g>
		<g>
			
				<ellipse transform="matrix(0.2092 0.9779 -0.9779 0.2092 784.5479 -223.2721)" fill="#E0E0E0" cx="530.323" cy="373.449" rx="17.999" ry="0.264"/>
		</g>
	</g>
	<g>
		<g>
			<path fill="#E0E0E0" d="M510.424,428.27c0.031-0.018-0.163-0.422-0.541-1.134c-0.434-0.806-0.976-1.811-1.619-3.005
				c-1.363-2.539-3.231-6.053-5.15-10.006c-1.928-3.95-3.549-7.586-4.701-10.227c-0.544-1.243-1.001-2.29-1.368-3.128
				c-0.327-0.737-0.524-1.139-0.558-1.125c-0.034,0.013,0.098,0.44,0.367,1.202c0.269,0.761,0.678,1.855,1.214,3.195
				c1.066,2.682,2.637,6.353,4.571,10.314c1.924,3.965,3.85,7.461,5.299,9.958c0.73,1.245,1.331,2.247,1.768,2.926
				C510.139,427.921,510.393,428.289,510.424,428.27z"/>
		</g>
	</g>
	<g>
		<g>
			<path fill="#E0E0E0" d="M539.983,428.815c0.001-0.036-0.409-0.084-1.153-0.139c-0.857-0.05-1.91-0.11-3.151-0.182
				c-2.662-0.131-6.34-0.275-10.403-0.402c-4.065-0.127-7.745-0.213-10.41-0.248c-1.244-0.006-2.298-0.011-3.157-0.015
				c-0.746,0.008-1.159,0.03-1.16,0.067c-0.001,0.036,0.41,0.084,1.153,0.139c0.857,0.049,1.91,0.11,3.151,0.182
				c2.662,0.131,6.34,0.275,10.405,0.402c4.063,0.127,7.743,0.212,10.408,0.248c1.244,0.006,2.298,0.011,3.157,0.014
				C539.57,428.874,539.982,428.852,539.983,428.815z"/>
		</g>
	</g>
	<g>
		<g>
			<path fill="#E0E0E0" d="M523.267,464.328c0.002-0.036-0.525-0.093-1.478-0.163c-1.052-0.065-2.409-0.148-4.038-0.249
				c-3.41-0.187-8.123-0.409-13.329-0.621c-5.208-0.213-9.924-0.375-13.338-0.467c-1.632-0.033-2.991-0.06-4.044-0.081
				c-0.955-0.007-1.484,0.006-1.486,0.042c-0.001,0.036,0.525,0.093,1.477,0.163c1.052,0.065,2.409,0.148,4.038,0.249
				c3.41,0.187,8.124,0.409,13.332,0.621c5.206,0.213,9.921,0.375,13.336,0.467c1.631,0.033,2.99,0.06,4.044,0.081
				C522.736,464.378,523.265,464.365,523.267,464.328z"/>
		</g>
	</g>
	<g>
		<g>
			<path fill="#E0E0E0" d="M486.466,462.573c0.032-0.017-0.2-0.534-0.649-1.454c-0.494-1.002-1.139-2.309-1.916-3.885
				c-1.613-3.281-3.825-7.822-6.124-12.903c-2.308-5.079-4.275-9.731-5.676-13.109c-0.674-1.622-1.234-2.968-1.662-4
				c-0.397-0.943-0.632-1.459-0.666-1.446c-0.034,0.013,0.136,0.553,0.474,1.52c0.338,0.966,0.848,2.357,1.508,4.064
				c1.313,3.417,3.23,8.1,5.542,13.188c2.303,5.09,4.572,9.613,6.272,12.854c0.855,1.619,1.559,2.921,2.066,3.811
				C486.14,462.105,486.434,462.59,486.466,462.573z"/>
		</g>
	</g>
</g>
<g>
	<g>
		<g>
			<g>
				<g>
					<g>
						<g>
							<g>
								<g>
									<path fill="#607C88" d="M490.403,354.982l-48.062-25.838c-3.321-1.785-4.566-5.925-2.781-9.246l35.762-66.523
										c1.785-3.321,5.925-4.566,9.246-2.781l30.481,16.386l10.521,37.003l-25.922,48.218
										C497.864,355.523,493.724,356.768,490.403,354.982z"/>
								</g>
							</g>
						</g>
					</g>
				</g>
			</g>
		</g>
		<g>
			<g>
				<g>
					<g>
						<g>
							<g>
								<g>
									<path fill="#E0E0E0" d="M515.05,266.981l-10.065,18.723c-1.661,3.089-0.503,6.939,2.585,8.6l18.001,9.681L515.05,266.981z"
										/>
								</g>
							</g>
						</g>
					</g>
				</g>
			</g>
		</g>
	</g>
	<g>
		<g>
			<g>
				<g>
					<g>
						<g>
							
								<ellipse transform="matrix(0.8808 0.4735 -0.4735 0.8808 189.509 -199.1403)" fill="#FFFFFF" cx="490.248" cy="276.796" rx="12.623" ry="0.494"/>
						</g>
					</g>
				</g>
			</g>
		</g>
	</g>
	<g>
		<g>
			<g>
				<g>
					<g>
						<g>
							
								<ellipse transform="matrix(0.8808 0.4735 -0.4735 0.8808 196.5266 -198.1234)" fill="#FFFFFF" cx="491.737" cy="291.241" rx="20.774" ry="0.494"/>
						</g>
					</g>
				</g>
			</g>
		</g>
	</g>
	<g>
		<g>
			<g>
				<g>
					<g>
						<g>
							
								<ellipse transform="matrix(0.8808 0.4735 -0.4735 0.8808 200.7597 -195.4932)" fill="#FFFFFF" cx="488.633" cy="300.966" rx="22.645" ry="0.495"/>
						</g>
					</g>
				</g>
			</g>
		</g>
	</g>
	<g>
		<g>
			<g>
				<g>
					<g>
						<g>
							
								<ellipse transform="matrix(0.8808 0.4735 -0.4735 0.8808 204.1751 -192.3766)" fill="#FFFFFF" cx="484.15" cy="309.306" rx="22.645" ry="0.495"/>
						</g>
					</g>
				</g>
			</g>
		</g>
	</g>
	<g>
		<g>
			<g>
				<g>
					<g>
						<g>
							
								<ellipse transform="matrix(0.8808 0.4735 -0.4735 0.8808 207.5891 -189.2593)" fill="#FFFFFF" cx="479.667" cy="317.646" rx="22.645" ry="0.495"/>
						</g>
					</g>
				</g>
			</g>
		</g>
	</g>
	<g>
		<g>
			<g>
				<g>
					<g>
						<g>
							
								<ellipse transform="matrix(0.8808 0.4735 -0.4735 0.8808 211.0035 -186.1422)" fill="#FFFFFF" cx="475.183" cy="325.985" rx="22.645" ry="0.495"/>
						</g>
					</g>
				</g>
			</g>
		</g>
	</g>
</g>
</svg>
