<?xml version="1.0" encoding="utf-8"?>
<!-- Generator: Adobe Illustrator 17.0.0, SVG Export Plug-In . SVG Version: 6.00 Build 0)  -->
<!DOCTYPE svg PUBLIC "-//W3C//DTD SVG 1.1//EN" "http://www.w3.org/Graphics/SVG/1.1/DTD/svg11.dtd">
<svg version="1.1" id="Layer_1" xmlns="http://www.w3.org/2000/svg" xmlns:xlink="http://www.w3.org/1999/xlink" x="0px" y="0px"
	 width="617px" height="539px" viewBox="0 0 617 539" enable-background="new 0 0 617 539" xml:space="preserve">
<g>
	<g>
		<path fill="#E7515B" d="M324.699,48.074c-1.078-16.685-15.478-29.337-32.164-28.259c-16.685,1.078-29.337,15.478-28.259,32.164
			c0.781,12.08,8.547,22.042,19.105,26.214c0.231,3.58,0.492,7.622,0.492,7.622l26.479-1.711c0,0-0.116-4.288-0.304-8.11
			C319.453,70.345,325.455,59.775,324.699,48.074z"/>
		<g>
			<path fill="#263238" d="M300.769,84.596c0,0-0.004-0.127,0.006-0.375c0.013-0.262,0.03-0.627,0.053-1.098
				c0.055-0.965,0.134-2.387,0.284-4.217c0.151-1.829,0.365-4.067,0.777-6.645c0.425-2.572,1.041-5.5,2.198-8.585
				c0.58-1.541,1.264-3.125,2.192-4.681c0.48-0.763,1.092-1.516,1.945-1.989c0.851-0.477,1.951-0.548,2.875-0.092
				c0.457,0.227,0.859,0.631,1.034,1.134c0.193,0.494,0.178,1.07-0.026,1.559c-0.405,0.986-1.253,1.709-2.204,2.162
				c-1.95,0.827-4.261,0.8-6.31-0.039c-2.056-0.837-3.768-2.594-4.591-4.765c-0.397-1.079-0.653-2.274-0.404-3.474
				c0.209-1.19,1.281-2.312,2.609-2.277c0.658,0.006,1.28,0.415,1.607,0.966c0.339,0.548,0.46,1.214,0.363,1.847
				c-0.21,1.279-1.058,2.281-1.93,3.139c-1.802,1.697-4.339,2.738-6.91,2.498c-2.554-0.241-4.931-1.765-6.123-3.978
				c-0.62-1.085-0.839-2.438-0.441-3.646c0.201-0.597,0.627-1.168,1.238-1.422c0.6-0.277,1.304-0.21,1.871,0.051
				c0.574,0.257,1.056,0.711,1.361,1.243c0.315,0.531,0.484,1.124,0.573,1.711c0.162,1.178,0.07,2.366-0.236,3.483
				c-0.595,2.238-2.04,4.187-3.931,5.342c-1.882,1.166-4.129,1.588-6.196,1.264c-1.021-0.157-2.077-0.493-2.813-1.267
				c-0.72-0.755-0.99-2.007-0.356-2.899c0.316-0.43,0.818-0.681,1.315-0.751c0.5-0.068,1.006,0.001,1.459,0.187
				c0.926,0.385,1.527,1.181,1.983,1.954c0.865,1.589,1.578,3.142,2.293,4.623c2.809,5.933,4.848,10.84,6.22,14.242
				c0.686,1.702,1.197,3.031,1.541,3.934c0.164,0.442,0.291,0.784,0.382,1.03c0.084,0.233,0.118,0.356,0.118,0.356
				s-0.058-0.114-0.154-0.342c-0.099-0.243-0.238-0.581-0.417-1.017c-0.373-0.908-0.913-2.222-1.605-3.907
				c-1.413-3.384-3.487-8.272-6.324-14.183c-0.718-1.468-1.45-3.038-2.303-4.59c-0.442-0.748-1.026-1.489-1.848-1.823
				c-0.797-0.33-1.88-0.258-2.414,0.47c-0.524,0.723-0.304,1.839,0.338,2.499c0.657,0.69,1.645,1.015,2.632,1.162
				c1.989,0.307,4.158-0.105,5.965-1.232c1.813-1.112,3.199-2.988,3.769-5.142c0.292-1.072,0.378-2.219,0.223-3.336
				c-0.152-1.099-0.689-2.224-1.727-2.676c-0.498-0.226-1.083-0.277-1.575-0.048c-0.501,0.208-0.857,0.676-1.038,1.207
				c-0.354,1.084-0.168,2.329,0.419,3.351c1.125,2.093,3.404,3.557,5.832,3.783c2.446,0.231,4.889-0.766,6.621-2.397
				c0.844-0.824,1.641-1.794,1.82-2.925c0.086-0.552-0.022-1.133-0.31-1.599c-0.281-0.468-0.774-0.788-1.309-0.795
				c-0.533-0.018-1.071,0.216-1.471,0.582c-0.406,0.362-0.657,0.871-0.774,1.409c-0.231,1.086,0.003,2.236,0.384,3.27
				c0.785,2.081,2.426,3.771,4.391,4.575c1.955,0.812,4.203,0.834,6.04,0.059c0.892-0.417,1.689-1.109,2.045-1.98
				c0.383-0.867-0.025-1.918-0.852-2.303c-0.809-0.407-1.824-0.353-2.59,0.078c-0.789,0.432-1.377,1.14-1.847,1.881
				c-0.914,1.516-1.608,3.098-2.189,4.621c-1.165,3.056-1.796,5.966-2.239,8.526c-0.431,2.566-0.665,4.799-0.838,6.623
				c-0.152,1.815-0.271,3.231-0.353,4.209c-0.039,0.47-0.069,0.834-0.09,1.095C300.79,84.47,300.769,84.596,300.769,84.596z"/>
		</g>
		<path fill="#263238" d="M308.631,89.137l-22.735,1.469c-0.942,0.061-1.756-0.654-1.816-1.596l0,0
			c-0.061-0.942,0.654-1.756,1.596-1.817l22.735-1.469c0.942-0.061,1.756,0.654,1.817,1.596l0,0
			C310.288,88.262,309.573,89.076,308.631,89.137z"/>
		<path fill="#263238" d="M308.727,90.626l-22.735,1.469c-0.942,0.061-1.657,0.874-1.596,1.816c0.061,0.942,0.874,1.657,1.816,1.596
			l2.495-0.161l3.718,6.088c0.425,0.696,1.202,1.099,2.016,1.047l8.124-0.525c0.823-0.053,1.546-0.562,1.874-1.319l2.811-6.489
			l1.697-0.11c0.942-0.061,1.657-0.874,1.596-1.816C310.483,91.28,309.67,90.566,308.727,90.626z"/>
	</g>
	<g opacity="0.2">
		<path fill="#FFFFFF" d="M273.834,32.03c1.911-2.007,3.954-3.461,5.79-4.413c1.837-0.956,3.434-1.465,4.569-1.654
			c1.136-0.193,1.793-0.124,1.864,0.113c0.167,0.54-2.071,1.501-5.024,3.761c-2.943,2.216-6.567,5.994-8.569,11.13
			c-1.987,5.144-1.859,10.378-1.18,13.999c0.656,3.66,1.66,5.878,1.173,6.165c-0.212,0.127-0.744-0.266-1.453-1.174
			c-0.71-0.905-1.547-2.357-2.258-4.302c-0.714-1.941-1.243-4.393-1.3-7.163c-0.062-2.765,0.395-5.847,1.55-8.871"/>
	</g>
	<g opacity="0.2">
		<path fill="#FFFFFF" d="M293.408,26.91c-1.916,0.106-3.64-0.308-3.901-1.31c-0.117-0.497,0.203-1.056,0.867-1.519
			c0.66-0.463,1.668-0.815,2.813-0.884c1.145-0.067,2.187,0.163,2.898,0.544c0.715,0.381,1.099,0.898,1.041,1.405"/>
	</g>
	<g>
		<path fill="#455B65" d="M304.051,101.204c-0.023,0.058-0.612-0.166-1.593-0.38c-0.979-0.216-2.366-0.376-3.888-0.237
			c-1.522,0.146-2.855,0.561-3.777,0.955c-0.924,0.392-1.461,0.722-1.495,0.669c-0.023-0.032,0.466-0.444,1.385-0.908
			c0.914-0.465,2.281-0.936,3.852-1.086c1.571-0.144,3.002,0.064,3.986,0.352C303.511,100.854,304.068,101.168,304.051,101.204z"/>
	</g>
	<g>
		
			<ellipse transform="matrix(0.9979 -0.0645 0.0645 0.9979 -5.493 19.4192)" fill="#455B65" cx="298.125" cy="94.816" rx="9.199" ry="0.186"/>
	</g>
	<g>
		<path fill="#455B65" d="M306.056,97.011c0.006,0.05-0.844,0.196-2.224,0.372c-1.38,0.177-3.292,0.38-5.409,0.547
			c-2.117,0.167-4.038,0.266-5.429,0.307c-1.391,0.042-2.252,0.031-2.255-0.019c-0.002-0.052,0.855-0.134,2.24-0.243
			c1.497-0.115,3.357-0.258,5.414-0.415c2.056-0.166,3.914-0.317,5.411-0.438C305.191,97.013,306.05,96.959,306.056,97.011z"/>
	</g>
</g>
<g>
	<path fill="#E7515B" d="M126.985,251.133c-12.921-8.954-20.635-23.663-20.635-39.346c0-15.683,7.714-30.392,20.635-39.346
		c1.9-1.316,2.372-3.923,1.056-5.823c-1.316-1.9-3.923-2.375-5.823-1.056c-15.177,10.516-24.238,27.796-24.238,46.225
		c0,18.427,9.061,35.708,24.238,46.225c0.727,0.504,1.558,0.746,2.38,0.746c1.326,0,2.63-0.629,3.443-1.802
		C129.357,255.057,128.885,252.449,126.985,251.133z"/>
	<path fill="#E7515B" d="M186.166,165.563c-1.903-1.319-4.507-0.844-5.823,1.056c-1.316,1.9-0.844,4.507,1.056,5.823
		c12.921,8.953,20.635,23.662,20.635,39.346c0,15.683-7.714,30.392-20.635,39.346c-1.9,1.316-2.372,3.923-1.056,5.823
		c0.812,1.173,2.117,1.802,3.443,1.802c0.822,0,1.653-0.241,2.38-0.746c15.177-10.517,24.238-27.797,24.238-46.225
		C210.404,193.359,201.343,176.079,186.166,165.563z"/>
	<path fill="#E7515B" d="M159.986,243.555c-10.449,1.896-21.146-1.444-28.632-8.93c-7.485-7.486-10.825-18.19-8.93-28.633
		c0.412-2.275-1.097-4.452-3.371-4.865c-2.271-0.407-4.451,1.097-4.865,3.371c-2.383,13.144,1.821,26.618,11.248,36.044
		c7.688,7.689,18.067,11.904,28.764,11.904c2.419,0,4.855-0.216,7.279-0.656c2.274-0.413,3.783-2.591,3.371-4.865
		C164.439,244.651,162.252,243.14,159.986,243.555z"/>
	<path fill="#E7515B" d="M148.396,180.02c10.444-1.897,21.147,1.445,28.634,8.93c7.485,7.487,10.823,18.19,8.929,28.633
		c-0.412,2.274,1.097,4.452,3.371,4.865c0.253,0.046,0.503,0.068,0.752,0.068c1.984,0,3.745-1.418,4.113-3.439
		c2.385-13.143-1.819-26.618-11.247-36.044c-9.427-9.43-22.906-13.634-36.045-11.248c-2.274,0.413-3.783,2.591-3.371,4.865
		C143.942,178.923,146.121,180.425,148.396,180.02z"/>
	<path fill="#E7515B" d="M154.191,140.058c-39.552,0-71.729,32.178-71.729,71.73c0,39.552,32.177,71.729,71.729,71.729
		c39.552,0,71.729-32.177,71.729-71.729C225.921,172.236,193.743,140.058,154.191,140.058z M154.191,275.147
		c-34.937,0-63.36-28.423-63.36-63.36s28.423-63.36,63.36-63.36c34.937,0,63.36,28.423,63.36,63.36S189.128,275.147,154.191,275.147
		z"/>
	<path fill="#E7515B" d="M154.191,185.582c-1.386,0-2.511,1.124-2.511,2.511v16.527c-2.97,1.042-5.112,3.841-5.112,7.166
		c0,4.211,3.413,7.624,7.624,7.624c1.186,0,2.295-0.294,3.296-0.777l22.326,22.325c0.491,0.49,1.133,0.736,1.775,0.736
		c0.643,0,1.285-0.245,1.775-0.736c0.981-0.981,0.981-2.571,0-3.551l-22.326-22.325c0.484-1.001,0.778-2.11,0.778-3.296
		c0-3.326-2.143-6.125-5.113-7.166v-16.527C156.702,186.706,155.578,185.582,154.191,185.582z"/>
</g>
<g opacity="0.5">
	<g>
		<g>
			<path fill="#E7515B" d="M474.653,367.489c2.135-16.118-9.196-29.415-23.356-37.406c-14.16-7.991-30.586-10.665-46.225-15.109
				c-14.75-4.191-29.42-10.305-40.345-21.065c-10.925-10.76-17.479-26.935-13.551-41.757c0.986-3.722,2.748-7.46,5.944-9.607
				c3.196-2.147,8.075-2.092,10.459,0.931c5.077,6.439-4.816,17.971,1.379,23.342c1.422,1.233,3.378,1.687,4.85,2.86
				c3.917,3.123,2.649,9.197,3.202,14.177c1.094,9.849,10.329,16.688,19.399,20.678c12.148,5.345,25.309,7.857,38.197,11.025
				c12.888,3.168,25.883,7.159,36.62,14.96c10.737,7.801,20.051,20.013,19.978,33.284c-0.021,3.709-0.493,8.269-2.82,11.156
				c-2.327,2.887-5.292,3.487-8.648,1.908C476.379,375.287,474.031,372.844,474.653,367.489"/>
			<g opacity="0.8">
				<path fill="#FFFFFF" d="M474.653,367.489c2.135-16.118-9.196-29.415-23.356-37.406c-14.16-7.991-30.586-10.665-46.225-15.109
					c-14.75-4.191-29.42-10.305-40.345-21.065c-10.925-10.76-17.479-26.935-13.551-41.757c0.986-3.722,2.748-7.46,5.944-9.607
					c3.196-2.147,8.075-2.092,10.459,0.931c5.077,6.439-4.816,17.971,1.379,23.342c1.422,1.233,3.378,1.687,4.85,2.86
					c3.917,3.123,2.649,9.197,3.202,14.177c1.094,9.849,10.329,16.688,19.399,20.678c12.148,5.345,25.309,7.857,38.197,11.025
					c12.888,3.168,25.883,7.159,36.62,14.96c10.737,7.801,20.051,20.013,19.978,33.284c-0.021,3.709-0.493,8.269-2.82,11.156
					c-2.327,2.887-5.292,3.487-8.648,1.908C476.379,375.287,474.031,372.844,474.653,367.489"/>
			</g>
		</g>
		<g>
			<path fill="#E7515B" d="M406.15,239.366c-0.51-5.97,3.937-11.168,8.995-13.955c5.058-2.787,10.851-3.919,16.066-6.391
				c12.947-6.138,21.18-20.583,21.788-35.4c0.608-14.817-5.814-29.625-15.863-40.508c-4.083-4.422-9.106-9.055-9.166-15.088
				c-0.063-6.295,6.043-11.256,12.142-11.176c6.099,0.08,11.719,4.162,15.37,9.298c3.651,5.136,5.671,11.256,7.637,17.265
				c-1.401-2.512,1.476-5.624,4.248-5.356c2.772,0.268,4.96,2.58,6.671,4.883c7.347,9.892,10.984,22.6,9.97,34.843
				c-1.014,12.242-6.667,23.894-15.499,31.945c-9.865,8.992-22.921,13.211-35.574,17.204c-8.805,2.778-17.61,5.557-26.416,8.335"/>
			<g opacity="0.8">
				<path fill="#FFFFFF" d="M406.15,239.366c-0.51-5.97,3.937-11.168,8.995-13.955c5.058-2.787,10.851-3.919,16.066-6.391
					c12.947-6.138,21.18-20.583,21.788-35.4c0.608-14.817-5.814-29.625-15.863-40.508c-4.083-4.422-9.106-9.055-9.166-15.088
					c-0.063-6.295,6.043-11.256,12.142-11.176c6.099,0.08,11.719,4.162,15.37,9.298c3.651,5.136,5.671,11.256,7.637,17.265
					c-1.401-2.512,1.476-5.624,4.248-5.356c2.772,0.268,4.96,2.58,6.671,4.883c7.347,9.892,10.984,22.6,9.97,34.843
					c-1.014,12.242-6.667,23.894-15.499,31.945c-9.865,8.992-22.921,13.211-35.574,17.204c-8.805,2.778-17.61,5.557-26.416,8.335"/>
			</g>
		</g>
		<g>
			<path fill="#E7515B" d="M398.801,113.918c-2.624,1.104-4.064,4.428-3.075,7.098c0.99,2.67,4.248,4.252,6.958,3.379
				c2.71-0.873,4.432-4.06,3.678-6.805c-0.755-2.746-3.864-4.604-6.64-3.969"/>
			<g opacity="0.8">
				<path fill="#FFFFFF" d="M398.801,113.918c-2.624,1.104-4.064,4.428-3.075,7.098c0.99,2.67,4.248,4.252,6.958,3.379
					c2.71-0.873,4.432-4.06,3.678-6.805c-0.755-2.746-3.864-4.604-6.64-3.969"/>
			</g>
		</g>
	</g>
	<g>
		<path fill="#E7515B" d="M421.903,510.452c-3.238-6.714-0.415-15.081,4.743-20.461c5.158-5.38,12.204-8.45,19.025-11.455
			c15.054-6.631,30.993-14.534,38.648-29.094c2.582-4.91,4.053-10.314,5.505-15.668c2.811-10.364,5.444-22.133-0.206-31.264
			c-1.625-2.626-4.07-4.962-7.111-5.502c-3.462-0.615-7.023,1.292-9.157,4.087c-2.134,2.795-3.049,6.335-3.49,9.824
			c-0.84,6.637-0.144,13.388-0.842,20.041c-0.698,6.653-3.132,13.61-8.62,17.436c-6.664,4.646-16.175,3.603-22.648,8.513
			c-5.227,3.964-7.215,10.838-11.303,15.969c-3.436,4.312-8.243,7.259-12.647,10.575c-4.404,3.316-8.663,7.363-10.16,12.669
			c-1.554,5.512,0.389,11.851,4.766,15.544c4.377,3.693,10.952,4.542,16.124,2.083"/>
		<g opacity="0.8">
			<path fill="#FFFFFF" d="M421.903,510.452c-3.238-6.714-0.415-15.081,4.743-20.461c5.158-5.38,12.204-8.45,19.025-11.455
				c15.054-6.631,30.993-14.534,38.648-29.094c2.582-4.91,4.053-10.314,5.505-15.668c2.811-10.364,5.444-22.133-0.206-31.264
				c-1.625-2.626-4.07-4.962-7.111-5.502c-3.462-0.615-7.023,1.292-9.157,4.087c-2.134,2.795-3.049,6.335-3.49,9.824
				c-0.84,6.637-0.144,13.388-0.842,20.041c-0.698,6.653-3.132,13.61-8.62,17.436c-6.664,4.646-16.175,3.603-22.648,8.513
				c-5.227,3.964-7.215,10.838-11.303,15.969c-3.436,4.312-8.243,7.259-12.647,10.575c-4.404,3.316-8.663,7.363-10.16,12.669
				c-1.554,5.512,0.389,11.851,4.766,15.544c4.377,3.693,10.952,4.542,16.124,2.083"/>
		</g>
	</g>
</g>
<g opacity="0.5">
	<g>
		<path fill="#EBEBEB" d="M173.453,317.537c0,0-10.056,5.44,4.585,26.444c14.641,21.004,24.169,31.088,24.169,31.088
			s2.768,4.963-1.535,6.386c-4.303,1.424-14.238,1.213-15.461,6.887c-1.268,5.885,3.531,10.61,12.422,14.109
			c8.891,3.499,28.09,11.881,29.823,12.646c1.702,0.751,3.611,2.974,0.835,4.414s-24.328,6.736-21.203,16.812
			c3.126,10.077,29.497,15.755,32.368,16.431c2.871,0.676,3.682,1.742,3.666,3.269c-0.016,1.527-7.428,2.624-13.496,4.382
			c-6.068,1.758-12.796,4.859-10.506,10.522c2.29,5.662,18.864,15.938,55.471,14.499l16.919-1.777l7.205-15.494
			c13.398-34.098,9.145-53.129,4.551-57.154c-4.594-4.025-9.736,1.309-13.392,6.461c-3.655,5.153-7.129,11.792-8.577,11.304
			c-1.447-0.487-2.187-1.604-1.881-4.537c0.306-2.934,3.616-29.706-4.872-35.971c-8.488-6.265-20.578,12.346-22.85,14.494
			c-2.272,2.148-3.745-0.387-3.894-2.24c-0.152-1.888-1.753-22.775-2.134-32.323c-0.381-9.548-3.264-15.633-9.238-16.371
			c-5.76-0.712-8.829,8.74-11.589,12.336c-2.759,3.595-6.536-0.651-6.536-0.651s-6.39-12.314-21.41-33.048
			c-15.02-20.734-23.638-12.791-23.638-12.791"/>
	</g>
	<g>
		<g>
			<path fill="#E0E0E0" d="M292.93,487.491c-10.971-15.271-30.015-42.74-46.487-66.239c-16.467-23.491-31.395-44.745-42.288-60.071
				c-5.445-7.644-9.855-13.835-12.919-18.136c-1.514-2.128-2.694-3.787-3.51-4.934c-0.387-0.554-0.686-0.983-0.902-1.291
				c-0.201-0.293-0.293-0.451-0.293-0.451s0.121,0.137,0.336,0.419c0.225,0.301,0.539,0.72,0.944,1.26
				c0.834,1.133,2.041,2.773,3.59,4.876c3.113,4.238,7.573,10.402,13.056,18.039c10.971,15.271,25.949,36.493,42.416,59.984
				c16.472,23.499,35.466,51,46.359,66.325"/>
		</g>
	</g>
	<g>
		<g>
			<path fill="#E0E0E0" d="M199.098,389.197c0.008-0.036,0.442,0.025,1.22,0.165c0.779,0.137,1.899,0.368,3.281,0.666
				c2.762,0.602,6.556,1.531,10.723,2.631c4.106,1.1,7.818,2.095,10.659,2.857c1.282,0.335,2.364,0.618,3.233,0.845
				c0.764,0.196,1.184,0.322,1.177,0.357c-0.007,0.036-0.441-0.022-1.221-0.156c-0.779-0.139-1.9-0.37-3.279-0.683
				c-2.757-0.63-6.537-1.608-10.704-2.708c-4.112-1.07-7.83-2.038-10.675-2.779c-1.285-0.329-2.368-0.606-3.24-0.829
				C199.509,389.361,199.09,389.232,199.098,389.197z"/>
		</g>
	</g>
	<g>
		<g>
			
				<ellipse transform="matrix(-0.2092 0.9779 -0.9779 -0.2092 652.6719 227.9684)" fill="#E0E0E0" cx="234.16" cy="377.882" rx="17.999" ry="0.264"/>
		</g>
	</g>
	<g>
		<g>
			<path fill="#E0E0E0" d="M254.059,432.703c-0.031-0.018,0.163-0.422,0.541-1.134c0.434-0.806,0.976-1.811,1.619-3.005
				c1.363-2.539,3.231-6.053,5.15-10.006c1.928-3.95,3.549-7.586,4.701-10.227c0.544-1.243,1.001-2.289,1.368-3.128
				c0.327-0.737,0.524-1.139,0.558-1.125c0.034,0.013-0.098,0.44-0.367,1.202c-0.269,0.761-0.678,1.855-1.214,3.195
				c-1.066,2.682-2.637,6.353-4.571,10.314c-1.924,3.964-3.85,7.461-5.299,9.958c-0.73,1.245-1.331,2.247-1.768,2.926
				C254.344,432.354,254.09,432.722,254.059,432.703z"/>
		</g>
	</g>
	<g>
		<g>
			<path fill="#E0E0E0" d="M224.5,433.248c-0.001-0.036,0.409-0.084,1.153-0.139c0.857-0.05,1.91-0.11,3.152-0.182
				c2.662-0.131,6.34-0.275,10.403-0.402c4.065-0.127,7.745-0.213,10.41-0.248c1.244-0.006,2.298-0.011,3.157-0.015
				c0.746,0.008,1.159,0.03,1.16,0.067c0.001,0.036-0.41,0.084-1.153,0.139c-0.857,0.049-1.91,0.11-3.151,0.182
				c-2.662,0.131-6.34,0.275-10.405,0.402c-4.063,0.127-7.743,0.212-10.408,0.248c-1.244,0.006-2.298,0.011-3.157,0.014
				C224.914,433.307,224.501,433.285,224.5,433.248z"/>
		</g>
	</g>
	<g>
		<g>
			<path fill="#E0E0E0" d="M241.217,468.761c-0.002-0.036,0.525-0.093,1.478-0.163c1.052-0.065,2.409-0.148,4.038-0.249
				c3.41-0.187,8.123-0.409,13.329-0.621c5.208-0.213,9.924-0.375,13.338-0.467c1.632-0.033,2.991-0.06,4.044-0.081
				c0.955-0.007,1.484,0.006,1.486,0.042c0.001,0.036-0.525,0.093-1.477,0.163c-1.052,0.065-2.409,0.148-4.038,0.249
				c-3.41,0.187-8.124,0.409-13.332,0.621c-5.206,0.213-9.921,0.375-13.336,0.467c-1.631,0.033-2.99,0.06-4.044,0.081
				C241.747,468.811,241.218,468.798,241.217,468.761z"/>
		</g>
	</g>
	<g>
		<g>
			<path fill="#E0E0E0" d="M278.017,467.006c-0.032-0.017,0.2-0.534,0.649-1.454c0.494-1.002,1.139-2.309,1.916-3.885
				c1.613-3.281,3.825-7.822,6.124-12.903c2.308-5.079,4.275-9.731,5.676-13.109c0.674-1.622,1.234-2.968,1.662-4
				c0.396-0.943,0.632-1.459,0.666-1.446c0.034,0.013-0.136,0.553-0.474,1.52c-0.338,0.966-0.848,2.357-1.508,4.065
				c-1.313,3.417-3.23,8.1-5.542,13.188c-2.303,5.09-4.572,9.613-6.272,12.854c-0.855,1.619-1.559,2.921-2.066,3.811
				C278.344,466.538,278.049,467.023,278.017,467.006z"/>
		</g>
	</g>
</g>
<g>
	<g>
		<polygon fill="#263238" points="341.878,441.268 411.215,444.234 412.89,448.273 367.446,522.037 285.407,519.645 		"/>
		<polygon fill="#E0E0E0" points="282.294,512.454 364.828,517.168 407.934,450.271 377.665,452.731 301.052,479.71 		"/>
		<g>
			<path fill="#EBEBEB" d="M270.703,507.493l75.788,1.196c-3.148-9.695,4.277-23.352,14.465-27.945
				c6.754-3.045,19.461-6.989,26.017-10.352c12.459-6.392,23.717-18.495,22.734-28.881l-31.127-0.992l-39.728-1.535
				c-3.322,9.855-10.428,16.312-21.23,20.195c-9.667,3.475-20.67,3.467-30.1,7.417C272.345,472.953,265.052,493.548,270.703,507.493
				"/>
			<g>
				<path fill="#263238" d="M270.703,507.493c0,0-0.072-0.162-0.19-0.489c-0.123-0.345-0.295-0.83-0.519-1.462
					c-0.264-0.635-0.418-1.472-0.645-2.454c-0.272-0.975-0.363-2.141-0.523-3.45c-0.192-2.623-0.165-5.901,0.601-9.636
					c0.771-3.719,2.237-7.91,4.861-12.028c0.68-1.011,1.335-2.08,2.182-3.047c0.41-0.492,0.796-1.016,1.241-1.498
					c0.461-0.467,0.928-0.94,1.4-1.418c0.454-0.498,0.977-0.932,1.515-1.361c0.536-0.429,1.056-0.893,1.623-1.306
					c1.189-0.746,2.34-1.618,3.69-2.201c5.252-2.648,11.526-3.765,18.058-4.948c3.276-0.595,6.648-1.22,10.035-2.151
					c3.372-0.956,6.768-2.234,9.991-4.021c1.62-0.876,3.184-1.898,4.664-3.058c1.49-1.147,2.887-2.451,4.138-3.908
					c2.548-2.88,4.465-6.382,5.758-10.164l0.069-0.202l0.212,0.008c10.551,0.402,21.625,0.824,33.103,1.262
					c11.477,0.452,23.364,0.763,35.532,1.171c0.747,0.024,1.493,0.047,2.22,0.071l0.274,0.009l0.023,0.27
					c0.209,2.401-0.229,4.789-1.002,7.005c-0.353,1.128-0.893,2.171-1.388,3.229c-0.585,1.01-1.132,2.04-1.812,2.98
					c-2.585,3.859-5.895,7.089-9.39,9.926c-3.524,2.816-7.348,5.156-11.33,7c-3.998,1.797-8.046,3.263-12.011,4.729
					c-3.963,1.467-7.883,2.856-11.605,4.476c-1.825,0.85-3.579,1.82-5.098,3.095c-0.806,0.575-1.478,1.303-2.214,1.947
					c-0.649,0.732-1.37,1.396-1.946,2.177c-2.447,3.003-4.286,6.406-5.3,9.961c-1.073,3.531-1.193,7.267-0.188,10.604l0.101,0.336
					l-0.345-0.006c-22.956-0.407-41.895-0.743-55.118-0.978c-6.589-0.134-11.75-0.238-15.285-0.31
					c-1.745-0.044-3.085-0.077-4.009-0.1C271.169,507.527,270.703,507.493,270.703,507.493c0,0,0.467-0.019,1.373-0.017
					c0.925,0.006,2.265,0.015,4.01,0.026c3.535,0.04,8.697,0.098,15.287,0.173c13.223,0.183,32.164,0.445,55.122,0.762l-0.243,0.33
					c-1.053-3.458-0.928-7.299,0.159-10.906c1.029-3.634,2.894-7.099,5.381-10.162c0.586-0.796,1.319-1.475,1.98-2.222
					c0.749-0.66,1.434-1.402,2.257-1.992c1.547-1.302,3.355-2.308,5.216-3.177c3.753-1.639,7.671-3.033,11.633-4.504
					c3.961-1.47,8.003-2.939,11.965-4.724c3.931-1.824,7.716-4.144,11.199-6.931c3.454-2.808,6.724-6.004,9.26-9.795
					c0.669-0.924,1.202-1.933,1.776-2.921c0.482-1.033,1.011-2.053,1.352-3.147c0.751-2.153,1.169-4.454,0.97-6.744l0.297,0.279
					c-0.726-0.023-1.472-0.047-2.22-0.071c-12.168-0.408-24.056-0.724-35.534-1.183c-11.478-0.45-22.552-0.883-33.103-1.297
					l0.281-0.193c-1.319,3.843-3.281,7.412-5.883,10.344c-1.278,1.482-2.703,2.808-4.221,3.972
					c-1.507,1.178-3.098,2.212-4.741,3.096c-3.271,1.804-6.702,3.086-10.111,4.043c-3.418,0.931-6.806,1.548-10.085,2.135
					c-6.537,1.163-12.776,2.26-17.958,4.85c-1.331,0.567-2.467,1.423-3.642,2.153c-0.561,0.404-1.075,0.861-1.606,1.281
					c-0.533,0.42-1.051,0.846-1.501,1.336c-0.468,0.47-0.931,0.935-1.389,1.394c-0.442,0.474-0.825,0.991-1.233,1.476
					c-0.842,0.952-1.494,2.007-2.173,3.004c-2.619,4.063-4.098,8.212-4.89,11.898c-0.787,3.702-0.842,6.956-0.68,9.566
					c0.145,1.302,0.22,2.463,0.476,3.436c0.211,0.98,0.349,1.817,0.599,2.455c0.205,0.637,0.362,1.126,0.474,1.473
					C270.661,507.32,270.703,507.493,270.703,507.493z"/>
			</g>
		</g>
		<g>
			<path fill="#263238" d="M360.143,440.214c-0.055-0.017,0.099-0.487,0.171-1.355c0.066-0.861,0.009-2.153-0.595-3.579
				c-0.584-1.409-1.745-2.972-3.582-3.839c-1.81-0.872-4.201-1.054-6.386-0.229c-2.201,0.808-3.788,2.601-4.614,4.441
				c-0.86,1.853-0.976,3.762-0.729,5.279c0.248,1.532,0.828,2.681,1.295,3.411c0.47,0.737,0.82,1.085,0.781,1.123
				c-0.02,0.023-0.431-0.269-0.978-0.985c-0.542-0.71-1.21-1.875-1.528-3.471c-0.316-1.58-0.243-3.611,0.64-5.588
				c0.844-1.962,2.532-3.91,4.915-4.786c2.353-0.887,4.914-0.673,6.853,0.296c1.975,0.97,3.177,2.683,3.738,4.188
				c0.584,1.527,0.572,2.886,0.429,3.769c-0.074,0.444-0.164,0.783-0.253,1.002C360.216,440.109,360.163,440.221,360.143,440.214z"
				/>
		</g>
		<g>
			<path fill="#263238" d="M372.021,440.214c-0.055-0.017,0.099-0.487,0.171-1.355c0.066-0.861,0.009-2.153-0.595-3.579
				c-0.584-1.409-1.746-2.972-3.583-3.839c-1.809-0.872-4.2-1.054-6.386-0.229c-2.201,0.808-3.788,2.601-4.613,4.441
				c-0.86,1.853-0.976,3.762-0.73,5.279c0.249,1.532,0.828,2.681,1.295,3.411c0.47,0.737,0.82,1.085,0.781,1.123
				c-0.02,0.023-0.431-0.269-0.978-0.985c-0.542-0.71-1.21-1.875-1.527-3.471c-0.316-1.58-0.243-3.611,0.64-5.588
				c0.844-1.962,2.532-3.91,4.915-4.786c2.353-0.887,4.914-0.673,6.853,0.296c1.975,0.97,3.177,2.683,3.738,4.188
				c0.584,1.527,0.572,2.886,0.429,3.769c-0.074,0.444-0.164,0.783-0.253,1.002C372.094,440.109,372.041,440.221,372.021,440.214z"
				/>
		</g>
		<g>
			<path fill="#263238" d="M381.043,440.83c-0.056-0.014,0.072-0.492,0.094-1.363c0.018-0.864-0.113-2.15-0.797-3.54
				c-0.663-1.374-1.911-2.869-3.794-3.63c-1.856-0.768-4.253-0.814-6.389,0.133c-2.152,0.931-3.635,2.811-4.355,4.694
				c-0.754,1.899-0.762,3.812-0.43,5.312c0.335,1.515,0.978,2.63,1.486,3.333c0.511,0.709,0.88,1.037,0.843,1.077
				c-0.019,0.024-0.446-0.244-1.032-0.929c-0.582-0.678-1.314-1.804-1.721-3.379c-0.405-1.56-0.447-3.591,0.323-5.616
				c0.731-2.007,2.307-4.047,4.636-5.056c2.299-1.018,4.868-0.951,6.859-0.093c2.027,0.856,3.324,2.499,3.969,3.97
				c0.67,1.492,0.734,2.849,0.641,3.738c-0.049,0.447-0.119,0.79-0.196,1.014C381.11,440.722,381.063,440.836,381.043,440.83z"/>
		</g>
		<g>
			<path fill="#263238" d="M390.715,441.381c-0.057-0.011,0.045-0.495,0.022-1.366c-0.028-0.863-0.226-2.141-0.983-3.493
				c-0.735-1.337-2.06-2.763-3.981-3.424c-1.894-0.668-4.29-0.588-6.373,0.471c-2.1,1.044-3.48,3-4.1,4.918
				c-0.652,1.936-0.559,3.846-0.148,5.327c0.414,1.495,1.116,2.574,1.66,3.249c0.548,0.681,0.934,0.989,0.899,1.031
				c-0.018,0.025-0.458-0.22-1.08-0.873c-0.617-0.646-1.408-1.732-1.898-3.283c-0.487-1.536-0.636-3.562,0.025-5.625
				c0.624-2.043,2.089-4.163,4.362-5.294c2.242-1.139,4.811-1.207,6.844-0.456c2.07,0.748,3.451,2.319,4.174,3.754
				c0.748,1.454,0.884,2.806,0.838,3.699c-0.025,0.449-0.077,0.796-0.142,1.023C390.776,441.269,390.735,441.386,390.715,441.381z"
				/>
		</g>
		<g>
			<path fill="#263238" d="M400.406,441.153c-0.057-0.009,0.032-0.496-0.017-1.366c-0.053-0.862-0.286-2.134-1.081-3.464
				c-0.772-1.316-2.137-2.704-4.076-3.311c-1.912-0.615-4.305-0.467-6.357,0.65c-2.07,1.102-3.395,3.096-3.96,5.032
				c-0.598,1.953-0.45,3.861,0.002,5.329c0.456,1.483,1.188,2.542,1.751,3.201c0.567,0.666,0.961,0.963,0.928,1.005
				c-0.017,0.026-0.464-0.207-1.104-0.842c-0.635-0.628-1.456-1.691-1.99-3.229c-0.53-1.522-0.736-3.543-0.133-5.623
				c0.567-2.059,1.972-4.221,4.211-5.415c2.209-1.201,4.775-1.342,6.829-0.648c2.09,0.689,3.515,2.221,4.278,3.635
				c0.788,1.433,0.963,2.78,0.942,3.674c-0.012,0.45-0.055,0.798-0.113,1.027C400.464,441.04,400.427,441.157,400.406,441.153z"/>
		</g>
		<g>
			<path fill="#263238" d="M408.572,442.242c-0.057-0.011,0.051-0.494,0.038-1.365c-0.018-0.864-0.201-2.144-0.942-3.504
				c-0.719-1.345-2.027-2.788-3.94-3.471c-1.886-0.691-4.283-0.639-6.378,0.396c-2.112,1.019-3.516,2.959-4.158,4.87
				c-0.675,1.928-0.604,3.84-0.211,5.325c0.397,1.5,1.086,2.587,1.622,3.269c0.54,0.688,0.922,1,0.887,1.041
				c-0.018,0.025-0.456-0.225-1.069-0.885c-0.609-0.653-1.388-1.748-1.859-3.306c-0.469-1.542-0.594-3.57,0.091-5.624
				c0.648-2.035,2.138-4.138,4.424-5.243c2.255-1.112,4.825-1.15,6.849-0.375c2.06,0.772,3.424,2.36,4.129,3.803
				c0.731,1.463,0.851,2.817,0.795,3.709c-0.03,0.449-0.087,0.795-0.154,1.022C408.634,442.131,408.592,442.247,408.572,442.242z"/>
		</g>
	</g>
	<g>
		<g>
			<path fill="#E7515B" d="M273.743,223.42l31.227-4.63l-14.93-21.151l-8.007,0.472c-5.389,0.318-10.138,3.647-12.274,8.605v0
				c-1.135,2.633-1.45,5.546-0.906,8.361L273.743,223.42z"/>
			<path opacity="0.4" d="M273.743,223.42l31.227-4.63l-14.93-21.151l-8.007,0.472c-5.389,0.318-10.138,3.647-12.274,8.605v0
				c-1.135,2.633-1.45,5.546-0.906,8.361L273.743,223.42z"/>
		</g>
		<g>
			<g>
				<path fill="#FBBD9D" d="M407.884,258.024c0.322,0.894,0.673,1.953,1.029,3.219c0.305,1.087,0.413,2.219,0.337,3.345
					c-0.092,1.365-0.289,3.175-0.704,4.132c-0.514,1.184,0.679,2.377,1.692,1.785c1.012-0.592,2.507-3.821,2.415-7.978
					c-0.092-4.156,4.147,0.825,5.725,2.613c1.578,1.788,6.718,7.09,7.652,7.04c1.369-0.073,1.544-1.553-0.074-3.302
					c-1.637-1.77-6.097-7.334-5.113-8.122c0.969-0.776,8.876,8.435,8.876,8.435s1.372,2.242,2.539,1.37
					c2.106-1.573-7.02-10.745-7.911-11.597c-0.619-0.592,0.42-1.486,1.05-0.815c0.649,0.691,7.673,9.37,9.833,7.789
					c1.657-1.213-7.437-7.614-7.894-10.224c-0.457-2.61,6.403,5.555,7.938,4.331c0.572-0.456,0.935-0.875-3.681-4.996
					c-2.241-2-10.759-7.961-10.759-7.961l-25.63-73.387l-19.794,11.336L407.884,258.024z"/>
			</g>
			<path fill="#FBBD9D" d="M255.306,119.236l-28.642-34.181l-0.002,0.001c-0.371-1.175-0.818-2.321-1.401-3.408
				c-1.431-2.667-3.8-4.99-6.757-5.637c-1.816-0.397-3.896-0.206-5.321-1.401c-0.637-0.534-1.062-1.294-1.73-1.79
				c-0.667-0.496-1.78-0.591-2.207,0.122c-0.304,0.508-0.111,1.159,0.119,1.704c1.063,2.523,2.8,4.752,4.972,6.418
				c-2.686,0.816-6.521,2.05-6.521,2.05s-6.055-6.57-9.156-6.549c-3.101,0.021,2.506,5.866,2.506,5.866s-4.966-4.589-6.506-3.296
				c-1.54,1.294,2.406,4.7,2.406,4.7c-1.254-0.67-2.626-1.362-4.028-1.129c-1.402,0.233-2.609,1.888-1.854,3.093
				c0.289,0.462,0.785,0.745,1.261,1.011c2.541,1.416,5.082,2.833,7.623,4.249c1.276,0.711,2.616,1.441,4.076,1.486
				c3.866,0.119,6.808-2.275,10.675-2.172c0,0,21.598,45.466,23.783,47.81c2.184,2.345,49.633,5.538,49.633,5.538l27.462-23.661
				L255.306,119.236z"/>
			<g>
				<path fill="#E7515B" d="M341.332,366.892l29.249,12.739l-15.663,36.471c-3.392-1.71-2.284-23.582-2.284-23.582l-19.075-7.393
					L341.332,366.892z"/>
				<g opacity="0.6">
					<path fill="#FFFFFF" d="M355.897,380.564c0.496-0.623,1.499-0.77,2.142-0.3c0.643,0.47,0.801,1.489,0.316,2.12
						c-0.485,0.632-1.684,0.845-2.27,0.306c-0.586-0.539-0.706-1.746-0.084-2.242"/>
				</g>
				<path opacity="0.6" fill="#FFFFFF" d="M370.581,379.631l-2.998-1.169l-13.897,35.405c0,0,0.009,1.927,1.232,2.235
					L370.581,379.631z"/>
				<g>
					<path fill="#263238" d="M352.194,393.032c0.181,0.071,0.644-0.785,1.593-1.415c0.932-0.655,1.898-0.776,1.898-0.97
						c0.036-0.179-1.143-0.371-2.278,0.413C352.264,391.832,352.014,393,352.194,393.032z"/>
				</g>
				<g>
					<path fill="#263238" d="M352.134,397.536c0.155,0.115,0.789-0.527,1.802-0.808c1.005-0.311,1.885-0.114,1.953-0.295
						c0.1-0.155-0.89-0.727-2.143-0.353C352.49,396.444,351.966,397.46,352.134,397.536z"/>
				</g>
				<g>
					<path fill="#263238" d="M355.779,401.675c0.108-0.146-0.676-0.776-1.847-0.737c-1.172,0.03-1.918,0.705-1.802,0.844
						c0.103,0.163,0.859-0.152,1.821-0.169C354.913,401.573,355.686,401.845,355.779,401.675z"/>
				</g>
				<g>
					<path fill="#263238" d="M348.034,390.864c0.194-0.005,0.299-0.927,0.8-1.905c0.481-0.988,1.155-1.626,1.042-1.784
						c-0.084-0.158-1.072,0.323-1.646,1.482C347.649,389.813,347.857,390.892,348.034,390.864z"/>
				</g>
				<g>
					<path fill="#263238" d="M344.08,388.137c0.073,0.034,0.485-0.623,0.775-1.831c0.143-0.601,0.244-1.339,0.234-2.163
						c-0.006-0.412-0.038-0.844-0.106-1.288c-0.036-0.214-0.059-0.46-0.193-0.736c-0.101-0.277-0.525-0.592-0.912-0.488
						c-0.361,0.066-0.623,0.345-0.742,0.605c-0.124,0.265-0.163,0.506-0.2,0.725c-0.076,0.449-0.105,0.887-0.098,1.303
						c0.018,0.833,0.175,1.571,0.382,2.159c0.42,1.183,0.961,1.757,1.022,1.711c0.093-0.056-0.287-0.707-0.564-1.845
						c-0.137-0.568-0.235-1.259-0.218-2.023c0.01-0.382,0.049-0.781,0.127-1.187c0.065-0.43,0.203-0.76,0.417-0.785
						c0.081-0.008,0.109-0.001,0.187,0.128c0.068,0.128,0.103,0.329,0.14,0.54c0.072,0.413,0.115,0.816,0.137,1.202
						c0.042,0.772-0.003,1.473-0.082,2.056C344.229,387.39,343.982,388.099,344.08,388.137z"/>
				</g>
				<g>
					<path fill="#263238" d="M344.435,388.015c0.055-0.051-0.432-0.679-1.557-1.239c-0.559-0.276-1.278-0.514-2.107-0.61
						c-0.414-0.045-0.855-0.054-1.309-0.011c-0.452,0.059-1.047,0.112-1.423,0.769c-0.169,0.355-0.016,0.776,0.182,0.982
						c0.195,0.226,0.396,0.341,0.589,0.475c0.397,0.25,0.818,0.421,1.23,0.53c0.826,0.219,1.608,0.178,2.222,0.03
						c1.251-0.307,1.783-0.959,1.729-0.999c-0.064-0.098-0.674,0.375-1.817,0.53c-0.563,0.077-1.256,0.062-1.965-0.159
						c-0.353-0.109-0.709-0.268-1.041-0.487c-0.363-0.224-0.613-0.503-0.512-0.631c0.075-0.183,0.499-0.365,0.873-0.382
						c0.407-0.047,0.806-0.052,1.184-0.027c0.757,0.055,1.431,0.226,1.975,0.429C343.781,387.624,344.366,388.1,344.435,388.015z"/>
				</g>
			</g>
			<g>
				<path fill="#E7515B" d="M318.805,416.995l12.097,25.345l3.788,22.806c0.273,1.644,1.881,2.713,3.502,2.328l0,0
					c0.908-0.215,1.652-0.848,2.001-1.713c2.224-5.506,10.304-25.802,9.314-27.608c-1.145-2.091-10.986-27.582-10.986-27.582
					L318.805,416.995z"/>
				<path opacity="0.6" fill="#FFFFFF" d="M338.193,467.474l10.538-31.049l0.488,1.085c0.422,0.938,0.502,1.995,0.215,2.983
					c-0.767,2.642-3.046,9.893-9.162,25.234C339.916,466.619,339.134,467.278,338.193,467.474L338.193,467.474z"/>
				<g opacity="0.6">
					<path fill="#FFFFFF" d="M339.76,430.525c-0.442,0.732-0.216,1.797,0.498,2.269c0.714,0.472,1.799,0.251,2.254-0.474
						c0.455-0.724,0.222-2.011-0.54-2.4c-0.762-0.389-2.022-0.06-2.29,0.752"/>
				</g>
				<g>
					<path fill="#263238" d="M339.017,453.65c-0.113,0.136-1.294-0.946-3.142-0.983c-1.846-0.092-3.099,0.905-3.203,0.762
						c-0.05-0.053,0.184-0.398,0.746-0.752c0.555-0.355,1.459-0.66,2.478-0.626c1.019,0.037,1.9,0.405,2.429,0.797
						C338.861,453.24,339.071,453.601,339.017,453.65z"/>
				</g>
				<g>
					<path fill="#263238" d="M338.734,457.9c-0.072,0.166-1.269-0.298-2.764-0.081c-1.5,0.183-2.534,0.943-2.646,0.802
						c-0.133-0.097,0.856-1.195,2.565-1.413C337.595,456.971,338.837,457.772,338.734,457.9z"/>
				</g>
				<g>
					<path fill="#263238" d="M340.437,447.727c-0.065,0.176-1.902-0.546-4.257-0.414c-2.358,0.096-4.116,0.991-4.198,0.822
						c-0.103-0.118,1.64-1.329,4.168-1.439C338.676,446.562,340.528,447.599,340.437,447.727z"/>
				</g>
				<g>
					<path fill="#263238" d="M337.403,439.715c0.001,0.184-1.68,0.229-3.552,0.99c-1.882,0.736-3.132,1.86-3.258,1.726
						c-0.127-0.094,1.009-1.503,3.03-2.299C335.636,439.319,337.431,439.56,337.403,439.715z"/>
				</g>
				<g>
					<path fill="#263238" d="M334.04,432.185c-0.013,0.184-1.819-0.03-3.724,0.933c-1.926,0.921-2.86,2.482-3.013,2.38
						c-0.066-0.035,0.069-0.482,0.506-1.089c0.432-0.605,1.204-1.336,2.235-1.845c1.032-0.505,2.082-0.67,2.825-0.643
						C333.616,431.946,334.053,432.112,334.04,432.185z"/>
				</g>
				<g>
					<path fill="#263238" d="M329.718,431.666c-0.032,0.015-0.245-0.303-0.47-0.953c-0.222-0.646-0.453-1.64-0.371-2.884
						c0.063-0.6,0.076-1.342,0.639-2c0.279-0.33,0.839-0.502,1.295-0.3c0.449,0.194,0.734,0.572,0.925,0.974
						c0.704,1.638,0.015,3.838-1.708,4.894c-1.746,1.027-3.88,0.726-5.238-0.351c-0.323-0.292-0.633-0.688-0.629-1.21
						c-0.001-0.524,0.441-0.932,0.837-1.034c0.812-0.229,1.489-0.006,2.082,0.119c1.202,0.313,2.083,0.813,2.643,1.204
						c0.562,0.394,0.815,0.681,0.791,0.708c-0.06,0.107-1.213-0.967-3.534-1.488c-0.572-0.102-1.247-0.254-1.817-0.059
						c-0.279,0.094-0.461,0.303-0.459,0.561c-0.005,0.251,0.193,0.548,0.46,0.772c1.131,0.872,3.083,1.143,4.545,0.252
						c1.462-0.875,2.064-2.81,1.51-4.133c-0.138-0.317-0.365-0.596-0.617-0.707c-0.249-0.11-0.524-0.047-0.717,0.155
						c-0.408,0.425-0.5,1.113-0.573,1.684C329.077,430.234,329.843,431.641,329.718,431.666z"/>
				</g>
			</g>
			<g>
				<path fill="#263238" d="M359.566,369.989l-33.165-22.324l10.976-107.784l-31.415-18.346l-28.728-6.657
					c0,0-11.998,24.96-17.334,40.939c-11.348,33.983-19.313,46.162-17.493,70.795c0.576,7.796,29.366,27.299,47.548,38.134
					c0.25,2.488,0.568,4.66,0.965,6.453c6.213,28.086,25.177,65.439,25.177,65.439l28.822-13.4l-9.3-31.848l9.686,5.649
					L359.566,369.989z M288.277,300.488l3.87-17.277c-0.819,10.984-1.566,22.445-2.101,33.435
					C288.183,311.567,287.548,305.922,288.277,300.488z"/>
				<g>
					<path fill="#455B65" d="M316.097,436.637c-0.01,0.004-0.085-0.15-0.224-0.455c-0.146-0.332-0.344-0.783-0.597-1.36
						c-0.522-1.231-1.27-2.997-2.228-5.257c-1.914-4.573-4.655-11.204-7.954-19.432c-3.28-8.236-7.187-18.045-11.12-29.094
						c-0.98-2.764-1.941-5.612-2.844-8.552c-0.399-1.49-0.902-2.957-1.164-4.533c-0.075-0.389-0.164-0.779-0.228-1.17l-0.138-1.176
						c-0.088-0.786-0.176-1.576-0.264-2.369c-0.338-3.175-0.617-6.412-0.825-9.703c-0.105-1.645-0.193-3.304-0.258-4.975
						c-0.059-1.664-0.135-3.365-0.039-5.056c0.487-13.543,1.626-26.381,2.562-38.067c0.976-11.674,1.855-22.189,2.594-31.032
						c0.715-8.834,1.215-15.989,1.499-20.936c0.155-2.473,0.24-4.395,0.298-5.698c0.034-0.629,0.061-1.12,0.08-1.482
						c0.022-0.334,0.038-0.505,0.049-0.505c0.011,0,0.015,0.171,0.015,0.506c-0.005,0.363-0.011,0.855-0.019,1.485
						c-0.018,1.305-0.065,3.23-0.183,5.707c-0.21,4.954-0.644,12.117-1.304,20.957c-0.702,8.846-1.536,19.365-2.463,31.044
						c-0.904,11.682-2.026,24.533-2.512,38.033c-0.096,1.687-0.021,3.349,0.038,5.02c0.064,1.665,0.152,3.319,0.255,4.96
						c0.205,3.282,0.481,6.512,0.813,9.678c0.087,0.791,0.174,1.579,0.26,2.363l0.136,1.173c0.063,0.384,0.149,0.76,0.221,1.139
						c0.248,1.518,0.748,2.995,1.14,4.468c0.892,2.926,1.844,5.771,2.815,8.533c3.898,11.044,7.762,20.868,10.989,29.122
						c3.272,8.212,5.924,14.868,7.771,19.502c0.912,2.279,1.624,4.059,2.121,5.3c0.229,0.586,0.408,1.045,0.54,1.383
						C316.051,436.471,316.107,436.633,316.097,436.637z"/>
				</g>
				<g>
					<path fill="#455B65" d="M293.929,242.143c-0.027,0.033-0.291-0.182-0.756-0.613c-0.432-0.455-0.956-1.219-1.402-2.254
						c-0.893-2.076-1.346-5.173-1.414-8.551c-0.062-3.388,0.189-6.439,0.411-8.636c0.229-2.197,0.415-3.549,0.498-3.543
						c0.087,0.006,0.054,1.375-0.064,3.577c-0.111,2.201-0.29,5.241-0.229,8.59c0.067,3.341,0.446,6.37,1.203,8.405
						c0.378,1.014,0.821,1.774,1.18,2.259C293.747,241.833,293.956,242.11,293.929,242.143z"/>
				</g>
				<g>
					<path fill="#455B65" d="M281.526,216.49c0.062-0.013,0.361,1.13,0.247,3.016c-0.103,1.868-0.74,4.498-2.377,6.902
						c-1.639,2.405-3.854,3.959-5.555,4.738c-1.713,0.796-2.886,0.936-2.896,0.874c-0.03-0.102,1.09-0.392,2.699-1.263
						c1.602-0.856,3.676-2.399,5.242-4.697c1.564-2.297,2.243-4.791,2.453-6.596C281.56,217.648,281.421,216.5,281.526,216.49z"/>
				</g>
				<g>
					<path fill="#455B65" d="M333.062,279.154c0.011,0.001,0.008,0.112-0.006,0.329c-0.021,0.251-0.048,0.566-0.081,0.958
						c-0.089,0.887-0.213,2.118-0.369,3.679c-0.353,3.241-0.855,7.849-1.473,13.523c-1.297,11.452-3.08,27.196-5.049,44.587
						c-0.762,8.707-0.001,17.086,1.633,24.469c0.807,3.7,1.877,7.136,3.002,10.314c1.115,3.184,2.155,6.152,3.105,8.866
						c1.869,5.393,3.388,9.772,4.455,12.852c0.502,1.488,0.897,2.66,1.182,3.505c0.12,0.375,0.216,0.676,0.293,0.917
						c0.063,0.208,0.09,0.316,0.08,0.319c-0.01,0.003-0.057-0.098-0.139-0.298c-0.092-0.235-0.207-0.53-0.35-0.896
						c-0.311-0.836-0.743-1.995-1.291-3.466c-1.112-3.064-2.693-7.421-4.64-12.787c-0.972-2.707-2.036-5.666-3.176-8.841
						c-1.149-3.179-2.248-6.641-3.075-10.361c-1.676-7.428-2.461-15.872-1.694-24.646c1.94-17.44,3.867-33.17,5.229-44.58
						c0.7-5.665,1.268-10.266,1.668-13.501c0.206-1.557,0.368-2.784,0.485-3.668c0.058-0.389,0.105-0.703,0.142-0.953
						C333.028,279.263,333.051,279.154,333.062,279.154z"/>
				</g>
			</g>
			<g>
				<polyline fill="#FBBD9D" points="277.234,214.671 282.322,201.672 293.929,218.982 278.452,215.112 				"/>
				<path fill="#E7515B" d="M398.714,175.593l-13.778-30.886c-1.647-4.966-4.737-5.737-7.325-8.619l-34.514-19.466
					c-25.153-10.303-38.848,24.249-38.848,24.249l-22.863,52.148c-26.885,8.913-7.849,29.56-7.849,29.56s-7.313-12.712-0.121-17.298
					c7.531-4.802,15.88,7.849,23.901,19.867c9.47,14.188,40.243,23.403,40.243,23.403c3.6-3.803,2.593-17.077,5.411-24.201
					c0.894-2.259,22.204-51.619,22.204-51.619l8.26,20.014c0,0,10.589-12.414,15.721-14.388
					C394.289,176.383,398.714,175.593,398.714,175.593z"/>
				<g>
					<path fill="#263238" d="M337.56,197.543c0.02,0.032-0.342,0.307-1.045,0.729c-0.702,0.424-1.764,0.967-3.14,1.488
						c-2.73,1.051-6.862,1.868-11.342,1.176c-4.482-0.692-8.175-2.716-10.461-4.542c-1.155-0.912-2.004-1.75-2.545-2.365
						c-0.543-0.615-0.804-0.986-0.776-1.01c0.085-0.081,1.246,1.323,3.583,3.028c2.312,1.704,5.936,3.608,10.293,4.28
						c4.355,0.672,8.384-0.05,11.102-0.978C335.972,198.429,337.503,197.44,337.56,197.543z"/>
				</g>
				<path fill="#E7515B" d="M280.363,148.566L280.363,148.566l21.3,2.01l34.074-36.015l-20.04-0.688l-35.687,3.522
					C280.01,117.394,283.171,132.268,280.363,148.566z"/>
				<g>
					<path fill="#263238" d="M309.947,129.589c0.019,0.01-0.071,0.237-0.261,0.66c-0.224,0.481-0.507,1.089-0.855,1.838
						c-0.781,1.668-1.852,3.955-3.161,6.749c-2.648,5.708-6.163,13.658-9.972,22.473c-3.809,8.819-7.275,16.798-9.894,22.525
						c-1.307,2.864-2.387,5.172-3.162,6.754c-0.368,0.74-0.666,1.341-0.903,1.816c-0.213,0.412-0.333,0.624-0.353,0.615
						c-0.019-0.009,0.064-0.239,0.24-0.668c0.209-0.488,0.473-1.105,0.797-1.864c0.737-1.688,1.748-4.003,2.982-6.831
						c2.518-5.849,5.942-13.803,9.727-22.593c3.81-8.818,7.392-16.749,10.144-22.414c1.372-2.835,2.514-5.113,3.34-6.669
						c0.391-0.728,0.708-1.32,0.959-1.787C309.8,129.788,309.928,129.58,309.947,129.589z"/>
				</g>
				<g>
					<path fill="#263238" d="M374.955,140.063c0.06,0.105-1.261,0.793-3.064,2.327c-0.908,0.757-1.891,1.77-2.878,2.976
						c-0.959,1.229-1.905,2.665-2.701,4.279c-0.774,1.626-1.315,3.258-1.686,4.773c-0.336,1.522-0.522,2.921-0.553,4.103
						c-0.087,2.365,0.19,3.828,0.071,3.846c-0.042,0.008-0.132-0.351-0.259-1.013c-0.07-0.33-0.139-0.737-0.167-1.215
						c-0.034-0.477-0.107-1.022-0.081-1.626c-0.024-1.209,0.12-2.649,0.435-4.219c0.349-1.562,0.89-3.247,1.686-4.918
						c0.818-1.66,1.806-3.128,2.816-4.369c1.037-1.219,2.079-2.224,3.042-2.955c0.458-0.394,0.931-0.675,1.326-0.944
						c0.393-0.275,0.755-0.473,1.057-0.622C374.597,140.177,374.935,140.026,374.955,140.063z"/>
				</g>
			</g>
			<g>
				<g>
					<g>
						<g>
							<g>
								<g>
									<g>
										<g>
											<g>
												<g>
													<g>
														<g>
															<g>
																<g>
																	<path fill="#FBBD9D" d="M380.906,90.598l-19.982,37.351c-3.262,6.098-10.685,8.636-16.998,5.81l0,0
																		c-6.95-3.11-9.826-11.451-6.266-18.182c1.884-3.563,3.448-6.472,3.448-6.472s-8.688-5.63-4.625-15.018
																		c3.624-8.375,16.933-32.013,19.759-37.012l16.841,7.537C382.542,69.527,386.08,81.279,380.906,90.598z"/>
																</g>
															</g>
														</g>
													</g>
												</g>
											</g>
										</g>
										<g>
											<g>
												<g>
													<g>
														<g>
															<g>
																<g>
																	<path fill="#EC996F" d="M341.152,108.965c0,0,5.686,3.12,13.719,1.987c0,0-5.883,5.431-14.823,0.422
																		L341.152,108.965z"/>
																</g>
															</g>
														</g>
													</g>
												</g>
											</g>
										</g>
									</g>
								</g>
							</g>
							<g>
								<g>
									<g>
										<g>
											<g>
												<g>
													<g>
														<g>
															<g>
																<g>
																	<g>
																		<g>
																			<g>
																				<path fill="#263238" d="M347.57,79.102c-0.34,0.693-0.034,1.552,0.684,1.921
																					c0.716,0.367,1.572,0.106,1.912-0.587c0.34-0.693,0.034-1.553-0.682-1.92
																					C348.767,78.146,347.91,78.409,347.57,79.102z"/>
																			</g>
																		</g>
																	</g>
																</g>
															</g>
														</g>
													</g>
													<g>
														<g>
															<g>
																<g>
																	<g>
																		<g>
																			<g>
																				<g>
																					<path fill="#263238" d="M347.646,77.912c0.088,0.248,1.432-0.048,2.865,0.598
																						c1.441,0.625,2.163,1.834,2.397,1.728c0.111-0.043,0.083-0.433-0.226-0.971
																						c-0.302-0.534-0.928-1.202-1.823-1.598c-0.896-0.395-1.795-0.403-2.378-0.259
																						C347.89,77.551,347.599,77.798,347.646,77.912z"/>
																				</g>
																			</g>
																		</g>
																	</g>
																</g>
															</g>
														</g>
													</g>
												</g>
												<g>
													<g>
														<g>
															<g>
																<g>
																	<g>
																		<g>
																			<g>
																				<path fill="#263238" d="M360.992,85.704c-0.34,0.693-0.033,1.552,0.684,1.92
																					c0.716,0.368,1.572,0.106,1.912-0.587c0.34-0.693,0.034-1.553-0.682-1.921
																					C362.189,84.748,361.332,85.011,360.992,85.704z"/>
																			</g>
																		</g>
																	</g>
																</g>
															</g>
														</g>
													</g>
													<g>
														<g>
															<g>
																<g>
																	<g>
																		<g>
																			<g>
																				<g>
																					<path fill="#263238" d="M361.628,84.491c0.088,0.248,1.434-0.047,2.865,0.599
																						c1.441,0.625,2.163,1.834,2.398,1.728c0.111-0.044,0.085-0.432-0.226-0.972
																						c-0.302-0.534-0.927-1.202-1.823-1.598c-0.896-0.395-1.795-0.402-2.378-0.259
																						C361.873,84.13,361.582,84.377,361.628,84.491z"/>
																				</g>
																			</g>
																		</g>
																	</g>
																</g>
															</g>
														</g>
													</g>
												</g>
												<g>
													<g>
														<g>
															<g>
																<g>
																	<g>
																		<g>
																			<g>
																				<path fill="#263238" d="M351.66,92.8c0.043-0.078-0.78-0.632-2.142-1.463c-0.349-0.202-0.664-0.43-0.613-0.707
																					c0.032-0.303,0.362-0.63,0.73-0.976c0.741-0.732,1.518-1.5,2.332-2.305c3.282-3.298,5.832-6.077,5.698-6.208
																					c-0.134-0.131-2.903,2.436-6.185,5.735c-0.8,0.818-1.564,1.596-2.294,2.342
																					c-0.325,0.354-0.775,0.72-0.834,1.353c-0.024,0.318,0.156,0.637,0.363,0.805
																					c0.203,0.177,0.407,0.273,0.583,0.365C350.719,92.469,351.618,92.879,351.66,92.8z"/>
																			</g>
																		</g>
																	</g>
																</g>
															</g>
														</g>
													</g>
												</g>
												<g>
													<g>
														<g>
															<g>
																<g>
																	<g>
																		<g>
																			<g>
																				<path fill="#263238" d="M355.438,95.682c-0.227-0.118-0.927,1.438-2.754,1.947
																					c-1.827,0.514-3.409-0.404-3.518-0.192c-0.065,0.088,0.234,0.468,0.927,0.8
																					c0.677,0.331,1.779,0.559,2.897,0.248c1.117-0.314,1.871-1.062,2.21-1.677
																					C355.55,96.184,355.549,95.721,355.438,95.682z"/>
																			</g>
																		</g>
																	</g>
																</g>
															</g>
														</g>
													</g>
												</g>
											</g>
										</g>
									</g>
									<g>
										<g>
											<g>
												<g>
													<g>
														<g>
															<g>
																<path fill="#263238" d="M363.774,78.703c-0.033,0.454,1.482,0.91,3.074,1.866c1.612,0.924,2.749,2.024,3.128,1.774
																	c0.174-0.123,0.102-0.596-0.278-1.219c-0.375-0.62-1.083-1.367-2.043-1.932c-0.961-0.562-1.958-0.816-2.683-0.841
																	C364.244,78.323,363.796,78.49,363.774,78.703z"/>
															</g>
														</g>
													</g>
												</g>
											</g>
										</g>
									</g>
									<g>
										<g>
											<g>
												<g>
													<g>
														<g>
															<g>
																<path fill="#263238" d="M350.031,73.997c0.107,0.439,1.246,0.543,2.442,1.059c1.213,0.474,2.097,1.201,2.481,0.964
																	c0.175-0.12,0.163-0.517-0.139-1.023c-0.295-0.501-0.908-1.077-1.736-1.418c-0.828-0.339-1.668-0.361-2.231-0.212
																	C350.279,73.514,349.991,73.788,350.031,73.997z"/>
															</g>
														</g>
													</g>
												</g>
											</g>
										</g>
									</g>
								</g>
							</g>
							<g>
								<g>
									<g>
										<g>
											<g>
												<g>
													<g>
														<g>
															<path fill="#FBBD9D" d="M374.623,96.197c0.19,0.002,7.264,0.973,4.204,7.265s-8.745,1.921-8.668,1.735
																C370.235,105.011,374.623,96.197,374.623,96.197z"/>
														</g>
													</g>
												</g>
											</g>
										</g>
									</g>
								</g>
								<g>
									<g>
										<g>
											<g>
												<g>
													<g>
														<g>
															<g>
																<path fill="#EC996F" d="M373.239,103.748c0.038-0.007,0.072,0.13,0.216,0.305c0.14,0.17,0.423,0.379,0.811,0.415
																	c0.783,0.079,1.856-0.704,2.438-1.823c0.295-0.565,0.44-1.168,0.457-1.718c0.032-0.554-0.11-1.02-0.415-1.242
																	c-0.296-0.239-0.63-0.154-0.793-0.014c-0.17,0.135-0.191,0.28-0.229,0.275c-0.025,0.007-0.084-0.171,0.093-0.406
																	c0.087-0.112,0.233-0.225,0.439-0.274c0.211-0.049,0.463-0.004,0.684,0.134c0.469,0.27,0.688,0.928,0.67,1.532
																	c0.008,0.619-0.142,1.304-0.473,1.938c-0.657,1.248-1.883,2.119-2.92,1.939c-0.499-0.1-0.803-0.413-0.921-0.654
																	C373.177,103.906,373.212,103.749,373.239,103.748z"/>
															</g>
														</g>
													</g>
												</g>
											</g>
										</g>
									</g>
								</g>
							</g>
						</g>
					</g>
					<g>
						<g>
							<g>
								<path fill="#263238" d="M378.271,97.57c-0.868-0.671-2.954-0.526-3.777,0.2c-0.823,0.726-1.377,1.717-2.198,2.444
									c-0.822,0.727-2.127,1.133-2.998,0.466c-0.601-0.46-0.8-1.305-0.678-2.052c0.121-0.747,0.509-1.421,0.902-2.067
									c1.71-2.812,3.659-5.488,5.122-8.436c1.463-2.948,2.431-6.258,2-9.521s-2.485-6.439-5.588-7.538
									c-2.055-0.728-4.337-0.508-6.432-1.113c-2.483-0.718-4.584-2.648-5.51-5.062c-0.119-0.309-0.821-1.412-0.821-1.412
									c0.069-0.155,0.812-1.422,1.555-1.673c5.527-1.866,13.024,0.277,17.607,3.888c4.583,3.611,7.792,9.423,7.848,15.257
									C385.358,86.784,381.686,93.22,378.271,97.57"/>
							</g>
						</g>
					</g>
				</g>
				<g>
					<path fill="#263238" d="M378.331,96.939c1.747-2.972,4.584-5.127,6.749-7.81c2.165-2.684,3.652-6.465,2.111-9.549
						c-0.527-1.054-1.369-1.937-1.81-3.03c-0.443-1.098-0.443-2.316-0.613-3.488c-0.525-3.623-2.815-6.948-6.013-8.73
						c-2.211-1.233-4.762-1.738-7.002-2.916c-3.549-1.866-6.144-5.322-9.872-6.797c-1.237-0.489-2.685-0.726-3.868-0.117
						c-1.183,0.61-1.817,2.325-0.955,3.339c-0.153-1.19-1.696-1.843-2.789-1.348c-1.093,0.495-1.653,1.795-1.579,2.992
						c0.074,1.197,0.668,2.301,1.355,3.285c2.264,3.242,5.726,5.627,9.562,6.586l8.572-0.668l7.027,5.209l5.202,8.278l-9.432,12.254
						L378.331,96.939z"/>
				</g>
			</g>
		</g>
	</g>
</g>
<g>
	<path fill="#E7515B" d="M475.874,273.584c-0.454-7.279,2.685-14.316,8.395-18.824c5.711-4.508,13.284-5.927,20.259-3.796
		c1.025,0.313,2.11-0.264,2.424-1.289c0.314-1.025-0.263-2.111-1.289-2.424c-8.192-2.503-17.089-0.836-23.799,4.462
		c-6.71,5.297-10.398,13.564-9.865,22.113c0.025,0.41,0.176,0.782,0.413,1.081c0.381,0.483,0.985,0.777,1.646,0.736
		C475.128,275.576,475.941,274.654,475.874,273.584z"/>
	<path fill="#E7515B" d="M524.045,270.536c-0.067-1.072-0.988-1.884-2.058-1.817c-1.07,0.067-1.884,0.988-1.817,2.058
		c0.454,7.279-2.685,14.316-8.396,18.824c-5.711,4.508-13.284,5.927-20.259,3.796c-1.025-0.313-2.11,0.264-2.424,1.289
		c-0.194,0.633-0.048,1.289,0.334,1.771c0.236,0.299,0.563,0.532,0.956,0.652c8.192,2.503,17.089,0.835,23.799-4.462
		C520.891,287.353,524.578,279.086,524.045,270.536z"/>
	<path fill="#E7515B" d="M488.12,283.423c-3.694-3.26-5.553-8.115-4.979-12.993c0.574-4.878,3.512-9.171,7.859-11.482
		c0.947-0.504,1.306-1.679,0.803-2.626c-0.505-0.944-1.679-1.306-2.626-0.802c-5.471,2.91-9.169,8.315-9.892,14.457
		c-0.59,5.01,0.859,10.001,3.934,13.896c0.695,0.881,1.474,1.706,2.331,2.462c0.804,0.709,2.031,0.633,2.74-0.171
		C489.001,285.359,488.923,284.128,488.12,283.423z"/>
	<path fill="#E7515B" d="M507.924,260.939c3.693,3.258,5.552,8.116,4.979,12.993c-0.575,4.878-3.512,9.17-7.859,11.482
		c-0.946,0.504-1.306,1.679-0.802,2.626c0.056,0.105,0.12,0.203,0.191,0.293c0.57,0.723,1.593,0.956,2.434,0.509
		c5.471-2.909,9.169-8.314,9.892-14.456c0.724-6.143-1.62-12.26-6.266-16.359c-0.804-0.709-2.031-0.633-2.74,0.171
		C507.043,259.001,507.122,260.227,507.924,260.939z"/>
	<path fill="#E7515B" d="M524.141,251.562c-11.369-14.402-32.336-16.869-46.738-5.5c-14.402,11.369-16.869,32.336-5.5,46.738
		c11.369,14.402,32.336,16.869,46.738,5.5C533.043,286.931,535.51,265.964,524.141,251.562z M474.951,290.394
		c-10.043-12.722-7.863-31.242,4.858-41.284c12.722-10.043,31.242-7.864,41.285,4.858c10.043,12.722,7.863,31.242-4.858,41.285
		C503.513,305.295,484.993,303.116,474.951,290.394z"/>
	<path fill="#E7515B" d="M507.564,264.648c-0.398-0.505-1.131-0.591-1.636-0.193l-6.018,4.751c-1.233-0.782-2.868-0.758-4.079,0.198
		c-1.533,1.21-1.795,3.434-0.585,4.968c0.341,0.432,0.767,0.751,1.23,0.977l-1.711,14.547c-0.038,0.32,0.058,0.624,0.242,0.858
		c0.185,0.234,0.459,0.397,0.778,0.435c0.639,0.075,1.218-0.382,1.293-1.021l1.711-14.547c0.504-0.112,0.992-0.323,1.424-0.664
		c1.211-0.956,1.614-2.541,1.14-3.922l6.018-4.751C507.877,265.885,507.963,265.153,507.564,264.648z"/>
</g>
</svg>
