<?xml version="1.0" encoding="utf-8"?>
<!-- Generator: Adobe Illustrator 17.0.0, SVG Export Plug-In . SVG Version: 6.00 Build 0)  -->
<!DOCTYPE svg PUBLIC "-//W3C//DTD SVG 1.1//EN" "http://www.w3.org/Graphics/SVG/1.1/DTD/svg11.dtd">
<svg version="1.1" id="Layer_1" xmlns="http://www.w3.org/2000/svg" xmlns:xlink="http://www.w3.org/1999/xlink" x="0px" y="0px"
	 width="473px" height="400px" viewBox="0 0 473 400" enable-background="new 0 0 473 400" xml:space="preserve">
<rect x="369.428" y="76.675" fill="#191919" width="24.008" height="8.368"/>
<path fill="#FBBC95" d="M406.482,131.27c4.514-13.801,16.179-37.456,9.376-41.585c-8.868-5.383-34.395-8.715-34.395-8.715
	l-0.001,0.438c0,0-25.755,2.117-34.639,7.473c-6.815,4.109,4.997,28.938,9.47,42.751c1.073,3.315,1.368,18.2,0.936,31.372
	c-0.106,3.249-3.201,18.156-2.762,24.333c0.131,1.844,20.973,13.287,26.817,13.588l0-0.438c5.845-0.284,26.72-11.665,26.857-13.508
	c0.459-6.177-2.528-21.076-2.625-24.326C405.124,149.481,405.399,134.581,406.482,131.27z"/>
<path fill="#FBBC95" d="M355.766,91.891c-3.762-3.622-10.96-2.175-17.592,4.94c-6.632,7.115-10.374,12.695-12.051,14.588
	c-1.731,1.955-12.603,12.527-15.049,15.815c-2.445,3.287-2.983,7.734,0.051,10.561c2.537,2.365,9.844,0.716,15.565-3.428
	C332.411,130.223,365.872,101.619,355.766,91.891z"/>
<path fill="#444018" d="M356.086,86.733c0,0-7.317-0.343-12.019,2.49c-4.702,2.833-23.551,25.084-23.551,25.084
	s10.706,15.66,11.443,16.218c0.737,0.558,18.662-13.092,18.662-13.092S361.787,92.755,356.086,86.733z"/>
<path fill="#FBBC95" d="M392.135,76.896c-0.58-2.631-2.022-15.637-2.022-15.637l-8.621-0.013l-0.001,0.438l-8.621-0.013
	c0,0-1.48,13.002-2.069,15.631c-0.589,2.629-7.689,6.588-7.689,6.588l18.345,0.028l0-0.439l18.346,0.028
	C399.805,83.506,392.716,79.526,392.135,76.896z"/>
<path fill="#F8A37D" d="M391.559,73.225c-0.54-3.984-1.186-9.655-1.384-11.418l-0.554-0.549l-8.127-0.012l-0.001,0.438l-8.621-0.013
	c0,0-1.48,13.002-2.069,15.631c-0.589,2.629-7.689,6.588-7.689,6.588l0.866,0.001c8.191-2.17,16.335-4.334,17.431-4.647
	C383.701,78.589,391.559,73.225,391.559,73.225L391.559,73.225z"/>
<path fill="#FBBC95" d="M395.344,173.041c10.459-1.131,15.294,5.74,17.353,28.148c2.059,22.408,1.27,47.025,0.183,50.665
	c-1.087,3.64-15.906,5.271-17.573,3.389c-1.666-1.882-10.175-47.927-10.938-55.193C383.607,192.784,383.951,174.272,395.344,173.041
	z"/>
<path fill="#FBBC95" d="M404.812,270.802l2.753-0.356c4.144-0.536,7.096-4.366,6.56-8.51l-1.2-9.274
	c-0.536-4.144-4.365-7.096-8.51-6.56l-2.753,0.356c-4.144,0.536-7.096,4.366-6.56,8.51l1.199,9.273
	C396.838,268.386,400.667,271.338,404.812,270.802z"/>
<path fill="#FBBC95" d="M408.496,91.253c3.897-3.476,11.035-1.757,17.391,5.607c6.357,7.363,9.884,13.081,11.487,15.036
	c1.655,2.019,12.117,12.998,14.436,16.376c2.318,3.377,2.686,7.842-0.453,10.552c-2.626,2.267-9.864,0.341-15.423-4.018
	C430.376,130.446,398.028,100.589,408.496,91.253z"/>
<path fill="#FBBC95" d="M404.889,256.946c3.197-0.336,11.154-0.101,12.909,20.807c1.755,20.909-4.109,50.412-4.109,50.412
	l-7.556,0.794c0,0-7.743-38.237-8.539-45.645C395.783,266.461,394.79,258.006,404.889,256.946z"/>
<path fill="#444018" d="M418.086,89.957c-0.977-2.021-7.365-3.516-13.087-5.298c-5.043-1.57-9.558-3.559-9.558-3.559L381.425,89.1
	l-13.995-8.043c0,0-4.52,1.975-9.568,3.53c-5.727,1.764-12.119,3.24-13.102,5.258c-0.998,2.049,9.208,41.387,10.354,44.734
	c1.146,3.346-1.838,26.745,1.071,33.748l25.092,0.818v0.003l0.048-0.001h0.007v0l25.094-0.743
	c2.305-8.022-0.015-30.841,1.141-34.184C408.724,130.877,419.078,92.009,418.086,89.957z"/>
<path fill="#302D14" d="M406.216,167.808c0,0,5.697,18.039,7.331,28.004c1.634,9.965,1.33,54.307,1.819,59.133
	c0.489,4.826,2.371,19.614,3.589,34.177c1.218,14.564,0.416,43.567,0.416,43.567l-18.648,1.492c0,0-6.423-61.436-7.438-71.092
	c-1.014-9.656-12.318-61.122-12.318-61.122l0.364-32.818L406.216,167.808z"/>
<path fill="#191919" d="M416.756,332.913c0,0,7.128,6.768,6.996,8.765c-0.075,1.135-2.336,5.459-7.176,6.263
	c-3.68,0.611-10.072-2.141-11.023-2.14c-2.204,0.003-3.41-11.72-3.41-11.72L416.756,332.913z"/>
<path fill="#302D14" d="M377.212,161.411c-1.649-1.985-1-13.68-0.081-15.911c1.27-3.084,6.672-6.927,11.199-8.579
	c4.527-1.652,12.368-1.037,14.182-4.201c1.815-3.165-3.007-6.188-5.118-6.191c-2.111-0.003-15.678-3.944-17.789-3.646
	c-2.112,0.298-18.1,1.933-20.66-0.031c-2.561-1.964-15.254-31.402-15.254-31.402c2.845,12.394,10.693,41.001,11.423,43.13
	c1.146,3.346-1.938,26.493,0.971,33.495l25.192,1.071v0.003l0.048-0.001h0.007v0l25.094-0.743c0,0-5.463-0.775-7.724-1.463
	C396.441,166.253,381.2,166.213,377.212,161.411z"/>
<path fill="#444018" d="M404.027,205.589c1.052,6.604,2.246,50.99,2.424,53.508c0.175,2.46,6.49,70.92,6.781,74.084l6.138-0.491
	c0,0,0.802-29.004-0.416-43.567c-1.218-14.564-3.1-29.351-3.589-34.177c-0.49-4.826-0.185-49.168-1.819-59.133
	c-1.633-9.965-7.33-28.004-7.33-28.004l-14.825,1.041C391.391,168.849,402.974,198.984,404.027,205.589z"/>
<path fill="#FBBC95" d="M367.044,173.041c-10.459-1.131-15.294,5.74-17.354,28.148c-2.059,22.408-1.27,47.025-0.183,50.665
	c1.087,3.64,15.906,5.271,17.573,3.389c1.667-1.882,10.175-47.927,10.938-55.193C378.781,192.784,378.437,174.272,367.044,173.041z"
	/>
<path fill="#FBBC95" d="M357.576,270.802l-2.753-0.356c-4.144-0.536-7.096-4.366-6.56-8.51l1.2-9.273
	c0.536-4.144,4.366-7.096,8.51-6.56l2.752,0.356c4.145,0.536,7.098,4.365,6.562,8.51l-1.2,9.274
	C365.55,268.386,361.721,271.339,357.576,270.802z"/>
<path fill="#FBBC95" d="M357.499,256.946c-3.197-0.336-11.155-0.101-12.91,20.807c-1.754,20.909,4.109,50.412,4.109,50.412
	l7.556,0.794c0,0,7.743-38.237,8.539-45.645C366.605,266.461,367.598,258.006,357.499,256.946z"/>
<path fill="#302D14" d="M356.173,167.808c0,0-5.697,18.039-7.331,28.004c-1.634,9.965-1.33,54.307-1.819,59.133
	c-0.489,4.826-2.371,19.614-3.589,34.177c-1.218,14.564-0.416,43.567-0.416,43.567l18.648,1.492c0,0,6.424-61.436,7.438-71.092
	c1.014-9.656,12.076-60.566,12.076-60.566l0.146-33.375L356.173,167.808z"/>
<path fill="#191919" d="M345.633,332.913c0,0-7.129,6.768-6.997,8.765c0.075,1.135,2.336,5.459,7.177,6.263
	c3.68,0.611,10.071-2.141,11.023-2.14c2.203,0.003,3.41-11.72,3.41-11.72L345.633,332.913z"/>
<path fill="#FBBC95" d="M397.169,49.273c-0.016,11.088-8.411,22.119-15.525,22.108c-6.797-0.01-15.475-11.067-15.459-22.155
	c0.017-11.088,6.966-20.066,15.522-20.053C390.263,29.186,397.186,38.185,397.169,49.273z"/>
<path fill="#8E3C27" d="M366.182,51.449c-0.685-1.208-2.99-6.341-2.484-8.653c0.506-2.312,3.229-7.337,4.137-8.845
	s8.959-5.518,10.166-5.617c1.207-0.099,4.426-0.396,6.939,0.01c2.514,0.407,6.937,2.122,7.939,4.136
	c1.003,2.013,3.494,4.329,4.306,5.94c0.812,1.61,2.214,5.736,2.012,6.339c-0.202,0.603-1.316,5.63-1.417,6.032
	c-0.101,0.402-0.826,1.545-0.826,1.545s-4.164-10.595-4.263-11.601c-0.099-1.006-21.218-1.339-22.527-0.638
	C368.855,40.801,366.182,51.449,366.182,51.449z"/>
<path fill="#444018" d="M408.374,86.087c0,0,6.07,0.879,10.66,3.889c4.591,3.01,23.835,25.018,23.835,25.018
	s-11.294,15.24-12.051,15.77c-0.758,0.53-18.15-13.793-18.15-13.793S402.447,91.887,408.374,86.087z"/>
<path fill="#444018" d="M365.115,200.882c-1.467,6.637-2.22,11.263-2.027,14.436c0.487,7.979-2.329,46.306-2.747,47.265
	c-0.411,0.943-5.55,68.723-5.844,71.024l7.169,0.573c0,0,6.423-61.436,7.437-71.092c0.792-7.548,7.724-40.299,10.714-54.243
	l0.64-3.534l-2.296-5.525C375.61,193.652,366.543,194.423,365.115,200.882z"/>
<path fill="#191919" d="M408.026,177.567h-53.864c-1.565,0-2.846-1.281-2.846-2.846v-7.684c0-1.565,1.281-2.846,2.846-2.846h53.864
	c1.565,0,2.846,1.281,2.846,2.846v7.684C410.872,176.286,409.591,177.567,408.026,177.567z"/>
<polygon fill="#191919" points="380.387,84.589 381.455,89.103 373.376,86.053 378.038,83.856 "/>
<polygon fill="#191919" points="382.416,84.618 381.388,89.103 389.467,86.053 384.805,83.856 "/>
<polygon fill="#302D14" points="364.748,82.176 369.428,76.675 380.387,84.589 376.43,92.037 "/>
<polygon fill="#302D14" points="398.095,82.176 393.415,76.675 382.416,84.618 386.413,92.037 "/>
<path fill="#444018" d="M364.305,37.766c0,0-6.65-1.096-6.65-4.559c0-3.723,16.985-16.112,23.635-16.112v20.7L364.305,37.766z"/>
<path fill="#444018" d="M398.273,37.766c0,0,6.65-1.096,6.65-4.559c0-3.723-16.985-16.112-23.634-16.112v20.7L398.273,37.766z"/>
<rect x="364.09" y="37.228" fill="#292929" width="34.368" height="4.492"/>
<path fill="#302D14" d="M366.533,42.001c0,0,5.204,6.355,14.842,6.355c9.637,0,14.925-6.355,14.925-6.355H366.533z"/>
<rect x="364.09" y="40.219" fill="#D1D2D2" width="34.368" height="1.501"/>
<rect x="364.09" y="37.274" fill="#302D14" width="34.368" height="0.668"/>
<path fill="#D1D2D2" d="M378.261,35.62c0,2.128,2.224,3.854,3.129,3.854c1.182,0,3.129-1.726,3.129-3.854
	c0-2.129-0.751-3.854-3.129-3.854C378.983,31.765,378.261,33.491,378.261,35.62z"/>
<path fill="#FBBC95" d="M320.56,133.854c1.53-3.873,0.731-7.774-10.023-12.137c-10.754-4.363-37.135-11.276-37.135-11.276
	l-2.475,6.265c0,0,19.07,13.579,24.792,16.204C301.442,135.534,316.556,143.993,320.56,133.854z"/>
<path fill="#FBBC95" d="M451.306,128.038c3.087,2.794,4.098,6.644-3.613,15.322c-7.71,8.678-28.303,26.571-28.303,26.571
	l-4.993-4.519c0,0,11.086-20.626,15.054-25.515C433.421,135.008,443.227,120.726,451.306,128.038z"/>
<g>
	<path fill="#FBBC95" d="M402.891,173.919l-0.003-0.007c-0.279-0.708,0.096-1.509,0.835-1.779l5.768-2.111
		c0.745-0.273,1.585,0.088,1.866,0.802l0.002,0.006c0.28,0.708-0.096,1.51-0.835,1.78l-5.768,2.111
		C404.012,174.994,403.173,174.633,402.891,173.919z"/>
	<path fill="#FBBC95" d="M401.688,171.589l-0.003-0.007c-0.28-0.708,0.096-1.509,0.835-1.779l5.768-2.111
		c0.745-0.272,1.584,0.089,1.866,0.803l0.003,0.006c0.28,0.708-0.096,1.51-0.835,1.78l-5.768,2.111
		C402.809,172.664,401.969,172.303,401.688,171.589z"/>
	<path fill="#FBBC95" d="M400.66,169.254l-0.003-0.007c-0.279-0.708,0.096-1.509,0.835-1.779l5.768-2.111
		c0.745-0.273,1.585,0.088,1.866,0.803l0.002,0.006c0.28,0.708-0.096,1.509-0.835,1.78l-5.768,2.111
		C401.782,170.329,400.942,169.968,400.66,169.254z"/>
	<path fill="#FBBC95" d="M399.892,166.912l-0.002-0.007c-0.28-0.708,0.096-1.509,0.835-1.779l5.768-2.111
		c0.745-0.272,1.585,0.089,1.866,0.803l0.002,0.007c0.28,0.708-0.096,1.509-0.835,1.779l-5.768,2.111
		C401.014,167.988,400.174,167.626,399.892,166.912z"/>
	<path fill="#FBBC95" d="M420.9,161.141c0,0-10.206-0.514-12.142-0.058c-1.936,0.457-8.561,4.394-8.561,4.394
		s3.135,1.517,3.534,3.185c0.399,1.668,1.018,6.062,1.018,6.062s6.736-0.677,9.606-1.925c2.87-1.248,5.396-3.108,5.396-3.108
		L420.9,161.141z"/>
</g>
<path fill="#D1D2D2" d="M403.46,96.558c-0.016-0.364-0.303-0.656-0.667-0.678c-0.502-0.03-1.222-0.089-1.845-0.202
	c-0.81-0.147-1.794-0.532-2.244-0.719c-0.158-0.066-0.334-0.066-0.492,0c-0.45,0.187-1.434,0.572-2.244,0.719
	c-0.623,0.113-1.343,0.172-1.845,0.202c-0.364,0.022-0.65,0.314-0.666,0.678c-0.061,1.359-0.096,4.529,0.764,6.375
	c1.371,2.944,3.405,3.822,4.04,4.032c0.128,0.043,0.267,0.043,0.395,0c0.636-0.21,2.669-1.088,4.04-4.032
	C403.555,101.087,403.521,97.917,403.46,96.558z"/>
<g>
	<g>
		<rect x="94.962" y="96.816" fill="#47686D" width="6.43" height="10.683"/>
		<rect x="243.11" y="96.535" fill="#47686D" width="6.43" height="10.683"/>
	</g>
	<g>
		<path fill="#DD1F26" d="M168.322,78.168H95.458c-7.76,0-14.11,4.364-14.11,9.698c0,5.334,6.35,9.699,14.11,9.699h72.863V78.168z"
			/>
		<path fill="#4070AF" d="M249.044,78.168H176.18v19.397h72.863c7.76,0,14.11-4.364,14.11-9.699
			C263.153,82.533,256.804,78.168,249.044,78.168z"/>
	</g>
	<g>
		<path fill="#FFFFFF" d="M169.562,80.136h-49.871c-5.311,0-9.657,1.975-9.657,4.389c0,2.414,4.346,4.389,9.657,4.389h49.871V80.136
			z"/>
		<path fill="#FFFFFF" d="M224.811,80.136H174.94v8.778h49.871c5.311,0,9.657-1.975,9.657-4.389
			C234.469,82.111,230.123,80.136,224.811,80.136z"/>
	</g>
	<rect x="151.623" y="77.729" fill="#C0D3E2" width="41.257" height="20.276"/>
	<path fill="#C0D3E2" d="M249.044,92.303h-56.164v0.361h-41.257v-0.361H95.458c-6.796,0-12.508-2.748-13.823-6.373
		c-0.187,0.626-0.287,1.274-0.287,1.937c0,5.334,6.35,9.699,14.11,9.699h56.164v0.44h41.257v-0.44h56.164
		c7.76,0,14.11-4.364,14.11-9.699c0-0.663-0.1-1.311-0.287-1.937C261.551,89.554,255.839,92.303,249.044,92.303z"/>
</g>
<g>
	<linearGradient id="SVGID_1_" gradientUnits="userSpaceOnUse" x1="318.2703" y1="162.2354" x2="456.9351" y2="162.2354">
		<stop  offset="0" style="stop-color:#B6BFBF"/>
		<stop  offset="1" style="stop-color:#FFFFFF"/>
	</linearGradient>
	<polygon fill="url(#SVGID_1_)" points="318.27,192.159 369.021,132.311 456.935,132.311 456.935,192.16 	"/>
	<path fill="#C0D3E2" d="M465.296,126.013c-1.701-2.624-98.697-1.05-100.966,0c-2.268,1.05-61.905,71.944-61.905,71.944v89.39
		H457.95c4.413,0,7.998-3.915,8.026-8.787C466.172,245.215,466.755,128.263,465.296,126.013z M456.935,192.159H318.271l50.75-59.848
		h87.915V192.159z"/>
	<linearGradient id="SVGID_2_" gradientUnits="userSpaceOnUse" x1="384.3417" y1="288.5498" x2="384.3417" y2="210.5068">
		<stop  offset="0" style="stop-color:#EDEDED"/>
		<stop  offset="0.0282" style="stop-color:#EBEBEA"/>
		<stop  offset="0.2445" style="stop-color:#DFDEDE"/>
		<stop  offset="0.4636" style="stop-color:#DBDADA"/>
		<stop  offset="0.6294" style="stop-color:#ECEBEB"/>
		<stop  offset="0.8094" style="stop-color:#F9F8F8"/>
		<stop  offset="1" style="stop-color:#FFFFFF"/>
	</linearGradient>
	<path fill="url(#SVGID_2_)" d="M466.257,209.982H302.426v77.365h155.507c4.418,0,8.006-3.943,8.027-8.822L466.257,209.982z"/>
	<linearGradient id="SVGID_3_" gradientUnits="userSpaceOnUse" x1="387.6027" y1="195.1591" x2="387.6027" y2="192.179">
		<stop  offset="0" style="stop-color:#B6BFBF"/>
		<stop  offset="1" style="stop-color:#FFFFFF"/>
	</linearGradient>
	<rect x="318.27" y="192.159" fill="url(#SVGID_3_)" width="138.665" height="2.954"/>
	<linearGradient id="SVGID_4_" gradientUnits="userSpaceOnUse" x1="444.4606" y1="226.5041" x2="444.4606" y2="210.0924">
		<stop  offset="0" style="stop-color:#FFFFFF"/>
		<stop  offset="0.1906" style="stop-color:#F9F8F8"/>
		<stop  offset="0.3706" style="stop-color:#ECEBEB"/>
		<stop  offset="0.5364" style="stop-color:#DBDADA"/>
		<stop  offset="0.7555" style="stop-color:#DFDEDE"/>
		<stop  offset="0.9718" style="stop-color:#EBEBEA"/>
		<stop  offset="1" style="stop-color:#EDEDED"/>
	</linearGradient>
	<ellipse fill="url(#SVGID_4_)" cx="444.461" cy="218.117" rx="14.613" ry="8.135"/>
	<path fill="#59635D" d="M456.618,221.003h-23.84c-1.35,0-2.455-1.22-2.455-2.711l0,0c0-1.491,1.105-2.712,2.455-2.712h23.84
		c1.351,0,2.455,1.221,2.455,2.712l0,0C459.073,219.783,457.969,221.003,456.618,221.003z"/>
	<g>
		<path fill="#84857D" d="M337.46,231.891h8.322c4.969,0,8.92,1.819,8.92,7.345c0,5.348-4.093,7.728-8.92,7.728h-3.146v7.728h-5.176
			V231.891z M345.469,242.87c2.832,0,4.196-1.258,4.196-3.634c0-2.38-1.469-3.255-4.196-3.255h-2.832v6.89H345.469z"/>
		<path fill="#84857D" d="M357.535,243.188c0-7.451,4.232-11.716,10.349-11.716c6.157,0,10.353,4.302,10.353,11.716
			c0,7.447-4.196,11.924-10.353,11.924C361.767,255.111,357.535,250.635,357.535,243.188z M372.958,243.188
			c0-4.55-1.961-7.276-5.074-7.276c-3.077,0-5.071,2.726-5.071,7.276c0,4.579,1.994,7.484,5.071,7.484
			C370.997,250.672,372.958,247.766,372.958,243.188z"/>
		<path fill="#84857D" d="M382.502,231.891h5.176v18.464h8.989v4.338h-14.166V231.891z"/>
		<path fill="#84857D" d="M400.546,231.891h5.176v22.802h-5.176V231.891z"/>
		<path fill="#84857D" d="M420.829,231.472c2.832,0,5.213,1.4,6.751,2.971l-2.832,3.183c-1.156-1.05-2.238-1.713-3.846-1.713
			c-3.182,0-5.668,2.763-5.668,7.345c0,4.684,2.205,7.415,5.526,7.415c1.888,0,3.219-0.806,4.338-2.031l2.832,3.113
			c-1.888,2.205-4.407,3.357-7.239,3.357c-5.909,0-10.736-4.021-10.736-11.68C409.955,235.879,414.956,231.472,420.829,231.472z"/>
		<path fill="#84857D" d="M431.32,231.891h14.305v4.335h-9.128v4.582h7.764v4.301h-7.764v5.246h9.478v4.338H431.32V231.891z"/>
	</g>
</g>
<g>
	<path fill="#47686D" d="M46.034,178.121c0,0-3.299-0.476-4.606-3.061c-1.331-2.603-0.444-6.363-1.767-8.239
		c-1.315-1.894-10.882-7.331-21.982-1.651c-9.172,4.703-9.003,9.89-9.003,10.832c0,0.934-0.451,9.874,18.586,11.516
		c9.326,0.821,15.473-1.167,15.473-1.167L46.034,178.121z"/>
	<linearGradient id="SVGID_5_" gradientUnits="userSpaceOnUse" x1="9.4999" y1="174.6315" x2="46.0341" y2="174.6315">
		<stop  offset="0" style="stop-color:#B6BFBF"/>
		<stop  offset="1" style="stop-color:#FFFFFF"/>
	</linearGradient>
	<path fill="url(#SVGID_5_)" d="M41.428,175.061c-1.331-2.603-0.444-6.363-1.767-8.239c-1.315-1.894-10.882-7.331-21.982-1.651
		c-5.01,2.558-7.179,5.264-8.18,7.348c1.339-1.487,3.283-3.095,6.325-4.651c11.083-5.672,20.651-0.234,21.973,1.651
		c1.307,1.894,0.436,5.654,1.751,8.256c1.33,2.576,4.622,3.061,4.622,3.061l-2.307,5.775c0.533-0.139,0.871-0.259,0.871-0.259
		l3.299-8.23C46.034,178.121,42.735,177.646,41.428,175.061z"/>
	<path fill="#99B1C7" d="M297.451,178.121c0,0,3.299-0.476,4.614-3.061c1.323-2.603,0.443-6.363,1.759-8.239
		c1.315-1.894,10.874-7.331,21.974-1.651c9.172,4.703,9.002,9.89,9.002,10.832c0,0.934,0.46,9.874-18.586,11.516
		c-9.309,0.821-15.464-1.167-15.464-1.167L297.451,178.121z"/>
	
		<linearGradient id="SVGID_6_" gradientUnits="userSpaceOnUse" x1="93.3656" y1="174.6315" x2="129.8837" y2="174.6315" gradientTransform="matrix(-1 0 0 1 427.335 0)">
		<stop  offset="0" style="stop-color:#B6BFBF"/>
		<stop  offset="1" style="stop-color:#FFFFFF"/>
	</linearGradient>
	<path fill="url(#SVGID_6_)" d="M302.065,175.061c1.323-2.603,0.443-6.363,1.759-8.239c1.315-1.894,10.874-7.331,21.974-1.651
		c5.009,2.558,7.187,5.264,8.171,7.348c-1.323-1.487-3.267-3.095-6.308-4.651c-11.092-5.672-20.643-0.234-21.966,1.651
		c-1.324,1.894-0.436,5.654-1.758,8.256c-1.324,2.576-4.623,3.061-4.623,3.061l2.315,5.775c-0.549-0.139-0.88-0.259-0.88-0.259
		l-3.299-8.23C297.451,178.121,300.75,177.646,302.065,175.061z"/>
	
		<linearGradient id="SVGID_7_" gradientUnits="userSpaceOnUse" x1="164.1284" y1="258.5871" x2="221.2107" y2="233.6787" gradientTransform="matrix(-1 0 0 1 451.4961 0)">
		<stop  offset="0" style="stop-color:#B6BFBF"/>
		<stop  offset="1" style="stop-color:#FFFFFF"/>
	</linearGradient>
	<path fill="url(#SVGID_7_)" d="M292.805,178.648h-120.38v112.094h57.831c0,0,9.486-38.86,19.013-56.618
		C261.022,212.209,292.805,178.648,292.805,178.648z"/>
	<g>
		<path fill="#101916" d="M283.012,356.457c0,1.073,0.878,1.95,1.95,1.95h39.208c1.073,0,1.95-0.878,1.95-1.95v-80.926
			c0-1.073-0.878-1.95-1.95-1.95h-39.208c-1.073,0-1.95,0.878-1.95,1.95V356.457z"/>
	</g>
	<path fill="#303030" d="M172.424,100.029c17.093,0.242,32.114,0.7,42.6,1.547c13.181,1.038,41.157,2.853,51.854,11.135
		c15.052,11.662,24.708,50.955,33.847,68.289c5.671,10.78,23.603,29.488,24.597,41.825c2.314,28.365-0.485,96.714-7.463,104.191
		c-4.856,5.222-74.553,5.386-145.436,4.193V100.029z"/>
	<g>
		<path fill="#101916" d="M61.925,356.457c0,1.073-0.878,1.95-1.95,1.95H20.75c-1.073,0-1.95-0.878-1.95-1.95v-80.926
			c0-1.073,0.878-1.95,1.95-1.95h39.225c1.072,0,1.95,0.878,1.95,1.95V356.457z"/>
	</g>
	<path fill="#303030" d="M172.506,100.029c-17.102,0.242-32.114,0.7-42.609,1.547c-13.174,1.038-41.133,2.853-51.854,11.135
		c-15.053,11.662-24.7,50.955-33.84,68.289c-5.671,10.78-23.603,29.488-24.604,41.825c-2.315,28.365,0.492,96.714,7.47,104.191
		c4.873,5.222,74.562,5.386,145.437,4.193V100.029z"/>
	<path fill="#C0D3E2" d="M20.414,291.053c1.379,17.964,3.623,32.714,6.655,35.963c4.872,5.221,74.535,5.386,145.396,4.193
		c70.868,1.193,140.539,1.028,145.395-4.193c3.033-3.249,5.274-18,6.652-35.963H20.414z"/>
	<polygon fill="#191919" points="172.424,316.102 297.782,316.102 307.309,298.208 172.424,298.208 	"/>
	
		<linearGradient id="SVGID_8_" gradientUnits="userSpaceOnUse" x1="156.4071" y1="277.3136" x2="184.3181" y2="277.9193" gradientTransform="matrix(-1 0 0 1 446.7637 0)">
		<stop  offset="0" style="stop-color:#90BBB6"/>
		<stop  offset="1" style="stop-color:#FFFFFF"/>
	</linearGradient>
	<path fill="url(#SVGID_8_)" d="M325.669,227.528l-81.611,36.552l-13.77,59.237c0,0,74.295,19.028,89.799-30.258
		C322.709,284.69,325.669,227.528,325.669,227.528z"/>
	<path fill="#6C798B" d="M244.033,251.631c0,0,57.565,2.083,68.116-6.095c4.897-3.804,7.099-16.037,3.953-19.781
		c-3.921-4.676-17.473-3.251-23.297-2.93c-9.777,0.519-39.107,6.242-39.107,6.242L244.033,251.631z"/>
	
		<linearGradient id="SVGID_9_" gradientUnits="userSpaceOnUse" x1="179.2866" y1="270.6191" x2="232.7787" y2="271.7798" gradientTransform="matrix(-1 0 0 1 446.7637 0)">
		<stop  offset="0" style="stop-color:#B6BFBF"/>
		<stop  offset="1" style="stop-color:#FFFFFF"/>
	</linearGradient>
	<path fill="url(#SVGID_9_)" d="M289.465,250.775c0,0-24.426,3.899-42.544,18.068c-10.551,8.248-14.278,21.899-14.278,21.899h-2.355
		l11.503-38.86L289.465,250.775z"/>
	
		<linearGradient id="SVGID_10_" gradientUnits="userSpaceOnUse" x1="160.422" y1="258.1289" x2="215.0648" y2="234.285" gradientTransform="matrix(-1 0 0 1 446.7637 0)">
		<stop  offset="0" style="stop-color:#90BBB6"/>
		<stop  offset="1" style="stop-color:#FFFFFF"/>
	</linearGradient>
	<path fill="url(#SVGID_10_)" d="M292.837,178.648L172.44,190.476v100.266h57.848c0,0,9.454-38.86,19.013-56.618
		C261.063,212.209,292.837,178.648,292.837,178.648z"/>
	
		<linearGradient id="SVGID_11_" gradientUnits="userSpaceOnUse" x1="156.3192" y1="246.775" x2="156.7096" y2="228.889" gradientTransform="matrix(-1 0 0 1 446.7637 0)">
		<stop  offset="0" style="stop-color:#B6BFBF"/>
		<stop  offset="1" style="stop-color:#FFFFFF"/>
	</linearGradient>
	<path fill="url(#SVGID_11_)" d="M280.463,235.542c0,5.766,4.356,10.452,9.745,10.452c5.373,0,9.728-4.686,9.728-10.452
		c0-5.775-4.356-10.435-9.728-10.435C284.819,225.107,280.463,229.768,280.463,235.542z"/>
	
		<linearGradient id="SVGID_12_" gradientUnits="userSpaceOnUse" x1="179.1851" y1="249.2044" x2="179.5756" y2="231.311" gradientTransform="matrix(-1 0 0 1 446.7637 0)">
		<stop  offset="0" style="stop-color:#B6BFBF"/>
		<stop  offset="1" style="stop-color:#FFFFFF"/>
	</linearGradient>
	<path fill="url(#SVGID_12_)" d="M257.586,237.997c0,5.741,4.38,10.426,9.761,10.426c5.388,0,9.736-4.686,9.736-10.426
		c0-5.783-4.348-10.469-9.736-10.469C261.965,227.528,257.586,232.214,257.586,237.997z"/>
	
		<linearGradient id="SVGID_13_" gradientUnits="userSpaceOnUse" x1="166.3874" y1="251.9091" x2="166.9208" y2="227.4676" gradientTransform="matrix(-1 0 0 1 446.7637 0)">
		<stop  offset="0" style="stop-color:#B6BFBF"/>
		<stop  offset="1" style="stop-color:#FFFFFF"/>
	</linearGradient>
	<path fill="url(#SVGID_13_)" d="M316.118,225.755c0,0-7.245-7.08-31.848-2.118c-24.612,4.936-30.549,5.429-30.549,5.429
		l-9.664,22.564c0,0,2.968-10.098,14.278-14.87C297.234,220.327,316.118,225.755,316.118,225.755z"/>
	
		<linearGradient id="SVGID_14_" gradientUnits="userSpaceOnUse" x1="129.2073" y1="239.9617" x2="202.7059" y2="239.9617" gradientTransform="matrix(-1 0 0 1 446.7637 0)">
		<stop  offset="0" style="stop-color:#B6BFBF"/>
		<stop  offset="1" style="stop-color:#FFFFFF"/>
	</linearGradient>
	<path fill="url(#SVGID_14_)" d="M311.802,243.089c3.541-2.748,5.647-9.863,5.357-15.034c1.348,5.023-0.831,14.256-4.993,17.481
		c-10.535,8.178-68.107,6.095-68.107,6.095l1.007-2.369C253.544,249.513,302.178,250.576,311.802,243.089z"/>
	<linearGradient id="SVGID_15_" gradientUnits="userSpaceOnUse" x1="58.5202" y1="258.1654" x2="113.3561" y2="234.2373">
		<stop  offset="0" style="stop-color:#90BBB6"/>
		<stop  offset="1" style="stop-color:#FFFFFF"/>
	</linearGradient>
	<path fill="url(#SVGID_15_)" d="M52.108,178.648l120.397,10.895v101.199h-57.839c0,0-9.471-38.86-19.014-56.618
		C83.892,212.209,52.108,178.648,52.108,178.648z"/>
	<linearGradient id="SVGID_16_" gradientUnits="userSpaceOnUse" x1="54.5924" y1="277.3136" x2="82.5058" y2="277.9193">
		<stop  offset="0" style="stop-color:#90BBB6"/>
		<stop  offset="1" style="stop-color:#FFFFFF"/>
	</linearGradient>
	<path fill="url(#SVGID_16_)" d="M19.277,227.528l81.619,36.552l13.77,59.237c0,0-74.303,19.028-89.791-30.258
		C22.245,284.69,19.277,227.528,19.277,227.528z"/>
	<linearGradient id="SVGID_17_" gradientUnits="userSpaceOnUse" x1="77.4717" y1="270.619" x2="130.9715" y2="271.7799">
		<stop  offset="0" style="stop-color:#B6BFBF"/>
		<stop  offset="1" style="stop-color:#FFFFFF"/>
	</linearGradient>
	<path fill="url(#SVGID_17_)" d="M55.48,250.775c0,0,24.442,3.899,42.56,18.068c10.552,8.248,14.278,21.899,14.278,21.899h2.348
		l-11.512-38.86L55.48,250.775z"/>
	<polygon fill="#191919" points="172.506,316.102 45.01,316.102 37.621,298.208 172.506,298.208 	"/>
	<rect x="126.387" y="264.841" fill="#ECEBF2" width="92.728" height="20.238"/>
	<rect x="126.387" y="264.841" fill="#0975A7" width="8.793" height="20.238"/>
	<path fill="#47686D" d="M264.684,120.259c0,0-68.287-5.071-92.178-5.177v-0.001c-0.013,0-0.028,0.001-0.04,0.001
		c-0.013,0-0.028-0.001-0.041-0.001v0.001c-23.884,0.106-92.188,5.177-92.188,5.177l-28.128,58.389h120.315h0.081h120.299
		L264.684,120.259z"/>
	<path fill="#47686D" d="M100.896,251.631c0,0-57.572,2.083-68.124-6.095c-4.88-3.804-7.107-16.02-3.953-19.781
		c3.921-4.676,17.465-3.251,23.289-2.93c9.785,0.519,39.124,6.242,39.124,6.242L100.896,251.631z"/>
	<linearGradient id="SVGID_18_" gradientUnits="userSpaceOnUse" x1="54.5054" y1="246.7748" x2="54.8958" y2="228.8887">
		<stop  offset="0" style="stop-color:#B6BFBF"/>
		<stop  offset="1" style="stop-color:#FFFFFF"/>
	</linearGradient>
	<path fill="url(#SVGID_18_)" d="M64.491,235.542c0,5.766-4.364,10.452-9.737,10.452c-5.389,0-9.745-4.686-9.745-10.452
		c0-5.775,4.356-10.435,9.745-10.435C60.127,225.107,64.491,229.768,64.491,235.542z"/>
	<linearGradient id="SVGID_19_" gradientUnits="userSpaceOnUse" x1="77.359" y1="249.204" x2="77.7495" y2="231.3107">
		<stop  offset="0" style="stop-color:#B6BFBF"/>
		<stop  offset="1" style="stop-color:#FFFFFF"/>
	</linearGradient>
	<path fill="url(#SVGID_19_)" d="M87.344,237.997c0,5.741-4.357,10.426-9.736,10.426c-5.381,0-9.745-4.686-9.745-10.426
		c0-5.783,4.364-10.469,9.745-10.469C82.987,227.528,87.344,232.214,87.344,237.997z"/>
	<linearGradient id="SVGID_20_" gradientUnits="userSpaceOnUse" x1="64.5695" y1="251.9089" x2="65.1029" y2="227.4675">
		<stop  offset="0" style="stop-color:#B6BFBF"/>
		<stop  offset="1" style="stop-color:#FFFFFF"/>
	</linearGradient>
	<path fill="url(#SVGID_20_)" d="M28.819,225.755c0,0,7.253-7.08,31.864-2.118c24.612,4.936,30.549,5.429,30.549,5.429l9.664,22.564
		c0,0-2.969-10.098-14.278-14.87C47.72,220.327,28.819,225.755,28.819,225.755z"/>
	<linearGradient id="SVGID_21_" gradientUnits="userSpaceOnUse" x1="27.3865" y1="239.9617" x2="100.8964" y2="239.9617">
		<stop  offset="0" style="stop-color:#B6BFBF"/>
		<stop  offset="1" style="stop-color:#FFFFFF"/>
	</linearGradient>
	<path fill="url(#SVGID_21_)" d="M33.144,243.089c-3.541-2.748-5.639-9.863-5.365-15.034c-1.339,5.023,0.856,14.256,4.993,17.481
		c10.552,8.178,68.124,6.095,68.124,6.095l-1.016-2.369C91.418,249.513,42.776,250.576,33.144,243.089z"/>
	<linearGradient id="SVGID_22_" gradientUnits="userSpaceOnUse" x1="159.5332" y1="145.2674" x2="350.0326" y2="149.4009">
		<stop  offset="0" style="stop-color:#B6BFBF"/>
		<stop  offset="1" style="stop-color:#FFFFFF"/>
	</linearGradient>
	<path fill="url(#SVGID_22_)" d="M80.237,120.259c0,0,63.358-6.276,92.269-5.178c28.903,1.072,92.178,5.178,92.178,5.178
		l28.121,58.389L80.237,120.259z"/>
	<path fill="#47686D" d="M170.957,116.325c0.024,0,0.024,0,0.048,0c0.009,0,0.024,0,0.041,0c23.878,0.122,92.171,5.187,92.171,5.187
		l27.524,57.136h2.065l-28.121-58.389c0,0-68.293-5.075-92.178-5.178c-0.025,0-0.025,0-0.041,0c-0.016,0-0.032,0-0.041,0
		c-23.886,0.103-92.188,5.178-92.188,5.178l-0.572,1.176C87.674,120.847,148.668,116.447,170.957,116.325z"/>
	
		<linearGradient id="SVGID_23_" gradientUnits="userSpaceOnUse" x1="197.1241" y1="255.1742" x2="197.8244" y2="223.0891" gradientTransform="matrix(-1 0 0 1 446.7637 0)">
		<stop  offset="0" style="stop-color:#B6BFBF"/>
		<stop  offset="1" style="stop-color:#FFFFFF"/>
	</linearGradient>
	<path fill="url(#SVGID_23_)" d="M326.097,225.16c0.468,5.36-20.191,3.293-45.263,9.076c-29.75,6.882-108.304,21.215-108.304,21.215
		v-37.476c34.833,0,80.361,2.369,97.447,0c18.473-2.542,45.932-4.565,52.74,0C322.716,217.975,325.636,219.782,326.097,225.16z"/>
	<linearGradient id="SVGID_24_" gradientUnits="userSpaceOnUse" x1="95.3141" y1="255.1742" x2="96.0143" y2="223.0892">
		<stop  offset="0" style="stop-color:#B6BFBF"/>
		<stop  offset="1" style="stop-color:#FFFFFF"/>
	</linearGradient>
	<path fill="url(#SVGID_24_)" d="M18.857,225.16c-0.468,5.36,20.191,3.293,45.27,9.076c29.734,6.882,108.297,21.215,108.297,21.215
		l-0.008-37.476c-34.816,0-80.361,2.369-97.447,0c-18.456-2.542-45.916-4.565-52.74,0C22.229,217.975,19.309,219.782,18.857,225.16z
		"/>
	<path fill="#191919" d="M172.506,226.698h-0.089h-48.661c-4.133,0-7.484,3.351-7.484,7.484v13.81c0,4.125,3.323,7.472,7.447,7.484
		c14.091,0.043,43.702,0.113,48.746-0.024c5.043,0.137,34.642,0.066,48.73,0.024c4.124-0.012,7.447-3.359,7.447-7.484v-13.81
		c0-4.133-3.351-7.484-7.484-7.484H172.506z"/>
</g>
<circle fill="#C0D3E2" cx="172.505" cy="227.528" r="6.811"/>
<g>
	<path fill="#FBBC95" d="M277.366,115.712c0,0-3.106,4.717-7.195,3.491c-4.089-1.226-7.03-5.518-7.942-6.364
		c-3.765-3.492-10.151-3.158-12.726-4.929c-2.576-1.772-1.75-3.178-0.674-2.814c6.03,2.04,10.108,1.206,12.699,2.404
		s12.95,3.255,12.95,3.255L277.366,115.712z"/>
	<path fill="#FBBC95" d="M274.371,118.093c0,0-1.606,2.414-6.507,1.316c-2.685-0.602-4.822-3.516-7.071-4.223
		c-2.249-0.707-1.23-1.486-0.932-1.685c0.298-0.199,3.057,0.701,4.341,0.94C265.485,114.679,271.179,113.333,274.371,118.093z"/>
</g>
<g>
	<g>
		<circle fill="#FBD844" cx="308.07" cy="58.694" r="35.645"/>
	</g>
	<g>
		<g>
			<circle fill="#202020" cx="308.569" cy="81.616" r="3.982"/>
			<path fill="#202020" d="M308.569,75.184L308.569,75.184c-1.537,0-2.824-1.209-2.933-2.777l-2.413-34.469
				c-0.231-3.298,1.907-6.15,4.685-6.15h1.322c2.779,0,4.916,2.851,4.685,6.15l-2.413,34.469
				C311.393,73.975,310.106,75.184,308.569,75.184z"/>
		</g>
	</g>
</g>
<g>
	<rect x="355.16" y="102.924" fill="#BE1E2D" width="3.977" height="4.227"/>
	<rect x="359.137" y="102.924" fill="#EF4136" width="3.977" height="4.227"/>
	<rect x="363.113" y="102.924" fill="#2E3192" width="3.977" height="4.227"/>
	<rect x="367.09" y="102.924" fill="#FFF200" width="3.977" height="4.227"/>
</g>
</svg>
